G75*
%MOIN*%
%OFA0B0*%
%FSLAX25Y25*%
%IPPOS*%
%LPD*%
%AMOC8*
5,1,8,0,0,1.08239X$1,22.5*
%
%ADD10C,0.07400*%
%ADD11C,0.07000*%
%ADD12C,0.01000*%
D10*
X0010250Y0094000D03*
X0010250Y0104000D03*
X0010250Y0114000D03*
X0010250Y0124000D03*
X0010250Y0134000D03*
D11*
X0025250Y0114000D03*
X0045250Y0114000D03*
X0065250Y0114000D03*
X0065250Y0176500D03*
X0045250Y0176500D03*
X0025250Y0176500D03*
X0025250Y0051500D03*
X0045250Y0051500D03*
X0065250Y0051500D03*
D12*
X0006400Y0090497D02*
X0006400Y0006400D01*
X0069023Y0006400D01*
X0069037Y0047368D01*
X0068422Y0046753D01*
X0066364Y0045900D01*
X0064136Y0045900D01*
X0062078Y0046753D01*
X0060503Y0048328D01*
X0059650Y0050386D01*
X0059650Y0052614D01*
X0060503Y0054672D01*
X0062078Y0056247D01*
X0064136Y0057100D01*
X0066364Y0057100D01*
X0068422Y0056247D01*
X0069040Y0055629D01*
X0069060Y0109890D01*
X0068422Y0109253D01*
X0066364Y0108400D01*
X0064136Y0108400D01*
X0062078Y0109253D01*
X0060503Y0110828D01*
X0059650Y0112886D01*
X0059650Y0115114D01*
X0060503Y0117172D01*
X0062078Y0118747D01*
X0064136Y0119600D01*
X0066364Y0119600D01*
X0068422Y0118747D01*
X0069062Y0118107D01*
X0069082Y0172412D01*
X0068422Y0171753D01*
X0066364Y0170900D01*
X0064136Y0170900D01*
X0062078Y0171753D01*
X0060503Y0173328D01*
X0059650Y0175386D01*
X0059650Y0177614D01*
X0060503Y0179672D01*
X0062078Y0181247D01*
X0064136Y0182100D01*
X0066364Y0182100D01*
X0068422Y0181247D01*
X0069085Y0180585D01*
X0069099Y0221600D01*
X0006400Y0221600D01*
X0006400Y0138352D01*
X0006965Y0138917D01*
X0009096Y0139800D01*
X0011404Y0139800D01*
X0013535Y0138917D01*
X0015167Y0137285D01*
X0016050Y0135154D01*
X0016050Y0132846D01*
X0015167Y0130715D01*
X0013535Y0129083D01*
X0013335Y0129000D01*
X0013535Y0128917D01*
X0015167Y0127285D01*
X0016050Y0125154D01*
X0016050Y0122846D01*
X0015167Y0120715D01*
X0013535Y0119083D01*
X0013335Y0119000D01*
X0013535Y0118917D01*
X0015167Y0117285D01*
X0016050Y0115154D01*
X0016050Y0112846D01*
X0015167Y0110715D01*
X0013535Y0109083D01*
X0013335Y0109000D01*
X0013535Y0108917D01*
X0015167Y0107285D01*
X0016050Y0105154D01*
X0016050Y0102846D01*
X0015167Y0100715D01*
X0013535Y0099083D01*
X0012538Y0098670D01*
X0012975Y0098447D01*
X0013638Y0097966D01*
X0014216Y0097388D01*
X0014697Y0096725D01*
X0015069Y0095996D01*
X0015322Y0095218D01*
X0015436Y0094500D01*
X0010750Y0094500D01*
X0010750Y0093500D01*
X0015436Y0093500D01*
X0015322Y0092782D01*
X0015069Y0092004D01*
X0014697Y0091275D01*
X0014216Y0090612D01*
X0013638Y0090034D01*
X0012975Y0089553D01*
X0012246Y0089181D01*
X0011468Y0088928D01*
X0010750Y0088814D01*
X0010750Y0093500D01*
X0009750Y0093500D01*
X0009750Y0088814D01*
X0009032Y0088928D01*
X0008254Y0089181D01*
X0007525Y0089553D01*
X0006862Y0090034D01*
X0006400Y0090497D01*
X0006400Y0089620D02*
X0007431Y0089620D01*
X0006400Y0088622D02*
X0069052Y0088622D01*
X0069052Y0089620D02*
X0013069Y0089620D01*
X0014221Y0090619D02*
X0069053Y0090619D01*
X0069053Y0091618D02*
X0014872Y0091618D01*
X0015268Y0092616D02*
X0069053Y0092616D01*
X0069054Y0093615D02*
X0010750Y0093615D01*
X0010750Y0092616D02*
X0009750Y0092616D01*
X0009750Y0091618D02*
X0010750Y0091618D01*
X0010750Y0090619D02*
X0009750Y0090619D01*
X0009750Y0089620D02*
X0010750Y0089620D01*
X0013995Y0097609D02*
X0069055Y0097609D01*
X0069056Y0098607D02*
X0012662Y0098607D01*
X0014058Y0099606D02*
X0069056Y0099606D01*
X0069056Y0100604D02*
X0015057Y0100604D01*
X0015535Y0101603D02*
X0069057Y0101603D01*
X0069057Y0102601D02*
X0015948Y0102601D01*
X0016050Y0103600D02*
X0069057Y0103600D01*
X0069058Y0104598D02*
X0016050Y0104598D01*
X0015867Y0105597D02*
X0069058Y0105597D01*
X0069058Y0106595D02*
X0015453Y0106595D01*
X0014859Y0107594D02*
X0069059Y0107594D01*
X0069059Y0108592D02*
X0066828Y0108592D01*
X0068760Y0109591D02*
X0069059Y0109591D01*
X0069063Y0118577D02*
X0068592Y0118577D01*
X0069063Y0119576D02*
X0066422Y0119576D01*
X0064078Y0119576D02*
X0046422Y0119576D01*
X0046364Y0119600D02*
X0044136Y0119600D01*
X0042078Y0118747D01*
X0040503Y0117172D01*
X0039650Y0115114D01*
X0039650Y0112886D01*
X0040503Y0110828D01*
X0042078Y0109253D01*
X0044136Y0108400D01*
X0046364Y0108400D01*
X0048422Y0109253D01*
X0049997Y0110828D01*
X0050850Y0112886D01*
X0050850Y0115114D01*
X0049997Y0117172D01*
X0048422Y0118747D01*
X0046364Y0119600D01*
X0044078Y0119576D02*
X0014028Y0119576D01*
X0013875Y0118577D02*
X0023220Y0118577D01*
X0023331Y0118634D02*
X0022629Y0118276D01*
X0021993Y0117814D01*
X0021436Y0117257D01*
X0020974Y0116621D01*
X0020616Y0115919D01*
X0020373Y0115171D01*
X0020264Y0114484D01*
X0024766Y0114484D01*
X0024766Y0113516D01*
X0025734Y0113516D01*
X0025734Y0109014D01*
X0026421Y0109123D01*
X0027169Y0109366D01*
X0027871Y0109724D01*
X0028507Y0110186D01*
X0029064Y0110743D01*
X0029526Y0111379D01*
X0029884Y0112081D01*
X0030127Y0112829D01*
X0030236Y0113516D01*
X0025734Y0113516D01*
X0025734Y0114484D01*
X0030236Y0114484D01*
X0030127Y0115171D01*
X0029884Y0115919D01*
X0029526Y0116621D01*
X0029064Y0117257D01*
X0028507Y0117814D01*
X0027871Y0118276D01*
X0027169Y0118634D01*
X0026421Y0118877D01*
X0025734Y0118986D01*
X0025734Y0114484D01*
X0024766Y0114484D01*
X0024766Y0118986D01*
X0024079Y0118877D01*
X0023331Y0118634D01*
X0024766Y0118577D02*
X0025734Y0118577D01*
X0025734Y0117579D02*
X0024766Y0117579D01*
X0024766Y0116580D02*
X0025734Y0116580D01*
X0025734Y0115582D02*
X0024766Y0115582D01*
X0024766Y0114583D02*
X0025734Y0114583D01*
X0025734Y0113585D02*
X0039650Y0113585D01*
X0039650Y0114583D02*
X0030220Y0114583D01*
X0029993Y0115582D02*
X0039844Y0115582D01*
X0040257Y0116580D02*
X0029547Y0116580D01*
X0028742Y0117579D02*
X0040909Y0117579D01*
X0041908Y0118577D02*
X0027280Y0118577D01*
X0025734Y0112586D02*
X0024766Y0112586D01*
X0024766Y0113516D02*
X0024766Y0109014D01*
X0024079Y0109123D01*
X0023331Y0109366D01*
X0022629Y0109724D01*
X0021993Y0110186D01*
X0021436Y0110743D01*
X0020974Y0111379D01*
X0020616Y0112081D01*
X0020373Y0112829D01*
X0020264Y0113516D01*
X0024766Y0113516D01*
X0024766Y0113585D02*
X0016050Y0113585D01*
X0016050Y0114583D02*
X0020280Y0114583D01*
X0020507Y0115582D02*
X0015873Y0115582D01*
X0015459Y0116580D02*
X0020953Y0116580D01*
X0021758Y0117579D02*
X0014874Y0117579D01*
X0015027Y0120574D02*
X0069063Y0120574D01*
X0069064Y0121573D02*
X0015523Y0121573D01*
X0015936Y0122571D02*
X0069064Y0122571D01*
X0069064Y0123570D02*
X0016050Y0123570D01*
X0016050Y0124568D02*
X0069065Y0124568D01*
X0069065Y0125567D02*
X0015879Y0125567D01*
X0015465Y0126565D02*
X0069065Y0126565D01*
X0069066Y0127564D02*
X0014889Y0127564D01*
X0013890Y0128562D02*
X0069066Y0128562D01*
X0069067Y0129561D02*
X0014013Y0129561D01*
X0015012Y0130559D02*
X0069067Y0130559D01*
X0069067Y0131558D02*
X0015516Y0131558D01*
X0015930Y0132556D02*
X0069068Y0132556D01*
X0069068Y0133555D02*
X0016050Y0133555D01*
X0016050Y0134553D02*
X0069068Y0134553D01*
X0069069Y0135552D02*
X0015885Y0135552D01*
X0015471Y0136551D02*
X0069069Y0136551D01*
X0069069Y0137549D02*
X0014903Y0137549D01*
X0013905Y0138548D02*
X0069070Y0138548D01*
X0069070Y0139546D02*
X0012017Y0139546D01*
X0008483Y0139546D02*
X0006400Y0139546D01*
X0006400Y0138548D02*
X0006595Y0138548D01*
X0006400Y0140545D02*
X0069070Y0140545D01*
X0069071Y0141543D02*
X0006400Y0141543D01*
X0006400Y0142542D02*
X0069071Y0142542D01*
X0069071Y0143540D02*
X0006400Y0143540D01*
X0006400Y0144539D02*
X0069072Y0144539D01*
X0069072Y0145537D02*
X0006400Y0145537D01*
X0006400Y0146536D02*
X0069073Y0146536D01*
X0069073Y0147534D02*
X0006400Y0147534D01*
X0006400Y0148533D02*
X0069073Y0148533D01*
X0069074Y0149531D02*
X0006400Y0149531D01*
X0006400Y0150530D02*
X0069074Y0150530D01*
X0069074Y0151528D02*
X0006400Y0151528D01*
X0006400Y0152527D02*
X0069075Y0152527D01*
X0069075Y0153525D02*
X0006400Y0153525D01*
X0006400Y0154524D02*
X0069075Y0154524D01*
X0069076Y0155522D02*
X0006400Y0155522D01*
X0006400Y0156521D02*
X0069076Y0156521D01*
X0069076Y0157519D02*
X0006400Y0157519D01*
X0006400Y0158518D02*
X0069077Y0158518D01*
X0069077Y0159516D02*
X0006400Y0159516D01*
X0006400Y0160515D02*
X0069077Y0160515D01*
X0069078Y0161513D02*
X0006400Y0161513D01*
X0006400Y0162512D02*
X0069078Y0162512D01*
X0069079Y0163510D02*
X0006400Y0163510D01*
X0006400Y0164509D02*
X0069079Y0164509D01*
X0069079Y0165507D02*
X0006400Y0165507D01*
X0006400Y0166506D02*
X0069080Y0166506D01*
X0069080Y0167504D02*
X0006400Y0167504D01*
X0006400Y0168503D02*
X0069080Y0168503D01*
X0069081Y0169501D02*
X0006400Y0169501D01*
X0006400Y0170500D02*
X0069081Y0170500D01*
X0069081Y0171498D02*
X0067809Y0171498D01*
X0067852Y0181484D02*
X0069085Y0181484D01*
X0069085Y0182482D02*
X0006400Y0182482D01*
X0006400Y0181484D02*
X0024753Y0181484D01*
X0024766Y0181484D02*
X0025734Y0181484D01*
X0025734Y0181486D02*
X0026421Y0181377D01*
X0027169Y0181134D01*
X0027871Y0180776D01*
X0028507Y0180314D01*
X0029064Y0179757D01*
X0029526Y0179121D01*
X0029884Y0178419D01*
X0030127Y0177671D01*
X0030236Y0176984D01*
X0025734Y0176984D01*
X0025734Y0176016D01*
X0025734Y0171514D01*
X0026421Y0171623D01*
X0027169Y0171866D01*
X0027871Y0172224D01*
X0028507Y0172686D01*
X0029064Y0173243D01*
X0029526Y0173879D01*
X0029884Y0174581D01*
X0030127Y0175329D01*
X0030236Y0176016D01*
X0025734Y0176016D01*
X0024766Y0176016D01*
X0024766Y0171514D01*
X0024079Y0171623D01*
X0023331Y0171866D01*
X0022629Y0172224D01*
X0021993Y0172686D01*
X0021436Y0173243D01*
X0020974Y0173879D01*
X0020616Y0174581D01*
X0020373Y0175329D01*
X0020264Y0176016D01*
X0024766Y0176016D01*
X0024766Y0176984D01*
X0020264Y0176984D01*
X0020373Y0177671D01*
X0020616Y0178419D01*
X0020974Y0179121D01*
X0021436Y0179757D01*
X0021993Y0180314D01*
X0022629Y0180776D01*
X0023331Y0181134D01*
X0024079Y0181377D01*
X0024766Y0181486D01*
X0024766Y0176984D01*
X0025734Y0176984D01*
X0025734Y0181486D01*
X0025747Y0181484D02*
X0042648Y0181484D01*
X0042078Y0181247D02*
X0040503Y0179672D01*
X0039650Y0177614D01*
X0039650Y0175386D01*
X0040503Y0173328D01*
X0042078Y0171753D01*
X0044136Y0170900D01*
X0046364Y0170900D01*
X0048422Y0171753D01*
X0049997Y0173328D01*
X0050850Y0175386D01*
X0050850Y0177614D01*
X0049997Y0179672D01*
X0048422Y0181247D01*
X0046364Y0182100D01*
X0044136Y0182100D01*
X0042078Y0181247D01*
X0041315Y0180485D02*
X0028272Y0180485D01*
X0029261Y0179487D02*
X0040426Y0179487D01*
X0040012Y0178488D02*
X0029849Y0178488D01*
X0030156Y0177489D02*
X0039650Y0177489D01*
X0039650Y0176491D02*
X0025734Y0176491D01*
X0025734Y0177489D02*
X0024766Y0177489D01*
X0024766Y0176491D02*
X0006400Y0176491D01*
X0006400Y0177489D02*
X0020344Y0177489D01*
X0020651Y0178488D02*
X0006400Y0178488D01*
X0006400Y0179487D02*
X0021239Y0179487D01*
X0022228Y0180485D02*
X0006400Y0180485D01*
X0006400Y0183481D02*
X0069086Y0183481D01*
X0069086Y0184479D02*
X0006400Y0184479D01*
X0006400Y0185478D02*
X0069086Y0185478D01*
X0069087Y0186476D02*
X0006400Y0186476D01*
X0006400Y0187475D02*
X0069087Y0187475D01*
X0069087Y0188473D02*
X0006400Y0188473D01*
X0006400Y0189472D02*
X0069088Y0189472D01*
X0069088Y0190470D02*
X0006400Y0190470D01*
X0006400Y0191469D02*
X0069088Y0191469D01*
X0069089Y0192467D02*
X0006400Y0192467D01*
X0006400Y0193466D02*
X0069089Y0193466D01*
X0069090Y0194464D02*
X0006400Y0194464D01*
X0006400Y0195463D02*
X0069090Y0195463D01*
X0069090Y0196461D02*
X0006400Y0196461D01*
X0006400Y0197460D02*
X0069091Y0197460D01*
X0069091Y0198458D02*
X0006400Y0198458D01*
X0006400Y0199457D02*
X0069091Y0199457D01*
X0069092Y0200455D02*
X0006400Y0200455D01*
X0006400Y0201454D02*
X0069092Y0201454D01*
X0069092Y0202452D02*
X0039847Y0202452D01*
X0039572Y0202339D02*
X0042940Y0203733D01*
X0045517Y0206310D01*
X0046911Y0209678D01*
X0046911Y0213322D01*
X0045517Y0216690D01*
X0042940Y0219267D01*
X0039572Y0220661D01*
X0035928Y0220661D01*
X0032560Y0219267D01*
X0029983Y0216690D01*
X0028589Y0213322D01*
X0028589Y0209678D01*
X0029983Y0206310D01*
X0032560Y0203733D01*
X0035928Y0202339D01*
X0039572Y0202339D01*
X0042257Y0203451D02*
X0069093Y0203451D01*
X0069093Y0204449D02*
X0043655Y0204449D01*
X0044654Y0205448D02*
X0069093Y0205448D01*
X0069094Y0206446D02*
X0045573Y0206446D01*
X0045987Y0207445D02*
X0069094Y0207445D01*
X0069094Y0208443D02*
X0046400Y0208443D01*
X0046814Y0209442D02*
X0069095Y0209442D01*
X0069095Y0210440D02*
X0046911Y0210440D01*
X0046911Y0211439D02*
X0069096Y0211439D01*
X0069096Y0212437D02*
X0046911Y0212437D01*
X0046864Y0213436D02*
X0069096Y0213436D01*
X0069097Y0214434D02*
X0046451Y0214434D01*
X0046037Y0215433D02*
X0069097Y0215433D01*
X0069097Y0216431D02*
X0045624Y0216431D01*
X0044776Y0217430D02*
X0069098Y0217430D01*
X0069098Y0218428D02*
X0043778Y0218428D01*
X0042553Y0219427D02*
X0069098Y0219427D01*
X0069099Y0220425D02*
X0040142Y0220425D01*
X0035358Y0220425D02*
X0006400Y0220425D01*
X0006400Y0219427D02*
X0032947Y0219427D01*
X0031722Y0218428D02*
X0006400Y0218428D01*
X0006400Y0217430D02*
X0030724Y0217430D01*
X0029876Y0216431D02*
X0006400Y0216431D01*
X0006400Y0215433D02*
X0029463Y0215433D01*
X0029049Y0214434D02*
X0006400Y0214434D01*
X0006400Y0213436D02*
X0028636Y0213436D01*
X0028589Y0212437D02*
X0006400Y0212437D01*
X0006400Y0211439D02*
X0028589Y0211439D01*
X0028589Y0210440D02*
X0006400Y0210440D01*
X0006400Y0209442D02*
X0028686Y0209442D01*
X0029100Y0208443D02*
X0006400Y0208443D01*
X0006400Y0207445D02*
X0029513Y0207445D01*
X0029927Y0206446D02*
X0006400Y0206446D01*
X0006400Y0205448D02*
X0030846Y0205448D01*
X0031845Y0204449D02*
X0006400Y0204449D01*
X0006400Y0203451D02*
X0033243Y0203451D01*
X0035653Y0202452D02*
X0006400Y0202452D01*
X0006400Y0221424D02*
X0069099Y0221424D01*
X0062648Y0181484D02*
X0047852Y0181484D01*
X0049185Y0180485D02*
X0061315Y0180485D01*
X0060426Y0179487D02*
X0050074Y0179487D01*
X0050488Y0178488D02*
X0060012Y0178488D01*
X0059650Y0177489D02*
X0050850Y0177489D01*
X0050850Y0176491D02*
X0059650Y0176491D01*
X0059650Y0175492D02*
X0050850Y0175492D01*
X0050480Y0174494D02*
X0060020Y0174494D01*
X0060433Y0173495D02*
X0050067Y0173495D01*
X0049167Y0172497D02*
X0061333Y0172497D01*
X0062691Y0171498D02*
X0047809Y0171498D01*
X0042691Y0171498D02*
X0006400Y0171498D01*
X0006400Y0172497D02*
X0022253Y0172497D01*
X0021253Y0173495D02*
X0006400Y0173495D01*
X0006400Y0174494D02*
X0020660Y0174494D01*
X0020347Y0175492D02*
X0006400Y0175492D01*
X0024766Y0175492D02*
X0025734Y0175492D01*
X0025734Y0174494D02*
X0024766Y0174494D01*
X0024766Y0173495D02*
X0025734Y0173495D01*
X0025734Y0172497D02*
X0024766Y0172497D01*
X0024766Y0178488D02*
X0025734Y0178488D01*
X0025734Y0179487D02*
X0024766Y0179487D01*
X0024766Y0180485D02*
X0025734Y0180485D01*
X0029247Y0173495D02*
X0040433Y0173495D01*
X0040020Y0174494D02*
X0029839Y0174494D01*
X0030153Y0175492D02*
X0039650Y0175492D01*
X0041333Y0172497D02*
X0028247Y0172497D01*
X0030048Y0112586D02*
X0039774Y0112586D01*
X0040188Y0111588D02*
X0029633Y0111588D01*
X0028910Y0110589D02*
X0040741Y0110589D01*
X0041740Y0109591D02*
X0027610Y0109591D01*
X0025734Y0109591D02*
X0024766Y0109591D01*
X0024766Y0110589D02*
X0025734Y0110589D01*
X0025734Y0111588D02*
X0024766Y0111588D01*
X0022890Y0109591D02*
X0014043Y0109591D01*
X0013860Y0108592D02*
X0043672Y0108592D01*
X0046828Y0108592D02*
X0063672Y0108592D01*
X0061740Y0109591D02*
X0048760Y0109591D01*
X0049759Y0110589D02*
X0060741Y0110589D01*
X0060188Y0111588D02*
X0050312Y0111588D01*
X0050726Y0112586D02*
X0059774Y0112586D01*
X0059650Y0113585D02*
X0050850Y0113585D01*
X0050850Y0114583D02*
X0059650Y0114583D01*
X0059844Y0115582D02*
X0050656Y0115582D01*
X0050243Y0116580D02*
X0060257Y0116580D01*
X0060909Y0117579D02*
X0049591Y0117579D01*
X0048592Y0118577D02*
X0061908Y0118577D01*
X0069055Y0096610D02*
X0014756Y0096610D01*
X0015194Y0095612D02*
X0069055Y0095612D01*
X0069054Y0094613D02*
X0015418Y0094613D01*
X0015042Y0110589D02*
X0021590Y0110589D01*
X0020867Y0111588D02*
X0015529Y0111588D01*
X0015942Y0112586D02*
X0020452Y0112586D01*
X0006400Y0087623D02*
X0069052Y0087623D01*
X0069051Y0086625D02*
X0006400Y0086625D01*
X0006400Y0085626D02*
X0069051Y0085626D01*
X0069051Y0084628D02*
X0006400Y0084628D01*
X0006400Y0083629D02*
X0069050Y0083629D01*
X0069050Y0082631D02*
X0006400Y0082631D01*
X0006400Y0081632D02*
X0069050Y0081632D01*
X0069049Y0080634D02*
X0006400Y0080634D01*
X0006400Y0079635D02*
X0069049Y0079635D01*
X0069049Y0078637D02*
X0006400Y0078637D01*
X0006400Y0077638D02*
X0069048Y0077638D01*
X0069048Y0076640D02*
X0006400Y0076640D01*
X0006400Y0075641D02*
X0069047Y0075641D01*
X0069047Y0074643D02*
X0006400Y0074643D01*
X0006400Y0073644D02*
X0069047Y0073644D01*
X0069046Y0072646D02*
X0006400Y0072646D01*
X0006400Y0071647D02*
X0069046Y0071647D01*
X0069046Y0070649D02*
X0006400Y0070649D01*
X0006400Y0069650D02*
X0069045Y0069650D01*
X0069045Y0068652D02*
X0006400Y0068652D01*
X0006400Y0067653D02*
X0069045Y0067653D01*
X0069044Y0066655D02*
X0006400Y0066655D01*
X0006400Y0065656D02*
X0069044Y0065656D01*
X0069044Y0064658D02*
X0006400Y0064658D01*
X0006400Y0063659D02*
X0069043Y0063659D01*
X0069043Y0062661D02*
X0006400Y0062661D01*
X0006400Y0061662D02*
X0069043Y0061662D01*
X0069042Y0060664D02*
X0006400Y0060664D01*
X0006400Y0059665D02*
X0069042Y0059665D01*
X0069041Y0058667D02*
X0006400Y0058667D01*
X0006400Y0057668D02*
X0069041Y0057668D01*
X0069041Y0056670D02*
X0067403Y0056670D01*
X0068998Y0055671D02*
X0069040Y0055671D01*
X0069037Y0046684D02*
X0068258Y0046684D01*
X0069037Y0045686D02*
X0006400Y0045686D01*
X0006400Y0046684D02*
X0023890Y0046684D01*
X0024079Y0046623D02*
X0024766Y0046514D01*
X0024766Y0051016D01*
X0025734Y0051016D01*
X0025734Y0046514D01*
X0026421Y0046623D01*
X0027169Y0046866D01*
X0027871Y0047224D01*
X0028507Y0047686D01*
X0029064Y0048243D01*
X0029526Y0048879D01*
X0029884Y0049581D01*
X0030127Y0050329D01*
X0030236Y0051016D01*
X0025734Y0051016D01*
X0025734Y0051984D01*
X0030236Y0051984D01*
X0030127Y0052671D01*
X0029884Y0053419D01*
X0029526Y0054121D01*
X0029064Y0054757D01*
X0028507Y0055314D01*
X0027871Y0055776D01*
X0027169Y0056134D01*
X0026421Y0056377D01*
X0025734Y0056486D01*
X0025734Y0051984D01*
X0024766Y0051984D01*
X0024766Y0051016D01*
X0020264Y0051016D01*
X0020373Y0050329D01*
X0020616Y0049581D01*
X0020974Y0048879D01*
X0021436Y0048243D01*
X0021993Y0047686D01*
X0022629Y0047224D01*
X0023331Y0046866D01*
X0024079Y0046623D01*
X0024766Y0046684D02*
X0025734Y0046684D01*
X0026610Y0046684D02*
X0042242Y0046684D01*
X0042078Y0046753D02*
X0044136Y0045900D01*
X0046364Y0045900D01*
X0048422Y0046753D01*
X0049997Y0048328D01*
X0050850Y0050386D01*
X0050850Y0052614D01*
X0049997Y0054672D01*
X0048422Y0056247D01*
X0046364Y0057100D01*
X0044136Y0057100D01*
X0042078Y0056247D01*
X0040503Y0054672D01*
X0039650Y0052614D01*
X0039650Y0050386D01*
X0040503Y0048328D01*
X0042078Y0046753D01*
X0041147Y0047683D02*
X0028503Y0047683D01*
X0029383Y0048682D02*
X0040356Y0048682D01*
X0039942Y0049680D02*
X0029916Y0049680D01*
X0030182Y0050679D02*
X0039650Y0050679D01*
X0039650Y0051677D02*
X0025734Y0051677D01*
X0025734Y0050679D02*
X0024766Y0050679D01*
X0024766Y0051677D02*
X0006400Y0051677D01*
X0006400Y0050679D02*
X0020318Y0050679D01*
X0020584Y0049680D02*
X0006400Y0049680D01*
X0006400Y0048682D02*
X0021117Y0048682D01*
X0020264Y0051984D02*
X0024766Y0051984D01*
X0024766Y0056486D01*
X0024079Y0056377D01*
X0023331Y0056134D01*
X0022629Y0055776D01*
X0021993Y0055314D01*
X0021436Y0054757D01*
X0020974Y0054121D01*
X0020616Y0053419D01*
X0020373Y0052671D01*
X0020264Y0051984D01*
X0020375Y0052676D02*
X0006400Y0052676D01*
X0006400Y0053674D02*
X0020746Y0053674D01*
X0021375Y0054673D02*
X0006400Y0054673D01*
X0006400Y0055671D02*
X0022485Y0055671D01*
X0024766Y0055671D02*
X0025734Y0055671D01*
X0025734Y0054673D02*
X0024766Y0054673D01*
X0024766Y0053674D02*
X0025734Y0053674D01*
X0025734Y0052676D02*
X0024766Y0052676D01*
X0024766Y0049680D02*
X0025734Y0049680D01*
X0025734Y0048682D02*
X0024766Y0048682D01*
X0024766Y0047683D02*
X0025734Y0047683D01*
X0029125Y0054673D02*
X0040503Y0054673D01*
X0040089Y0053674D02*
X0029754Y0053674D01*
X0030125Y0052676D02*
X0039676Y0052676D01*
X0041502Y0055671D02*
X0028015Y0055671D01*
X0021997Y0047683D02*
X0006400Y0047683D01*
X0006400Y0044687D02*
X0069037Y0044687D01*
X0069036Y0043689D02*
X0006400Y0043689D01*
X0006400Y0042690D02*
X0069036Y0042690D01*
X0069035Y0041692D02*
X0006400Y0041692D01*
X0006400Y0040693D02*
X0069035Y0040693D01*
X0069035Y0039695D02*
X0006400Y0039695D01*
X0006400Y0038696D02*
X0069034Y0038696D01*
X0069034Y0037698D02*
X0006400Y0037698D01*
X0006400Y0036699D02*
X0069034Y0036699D01*
X0069033Y0035701D02*
X0006400Y0035701D01*
X0006400Y0034702D02*
X0069033Y0034702D01*
X0069033Y0033704D02*
X0006400Y0033704D01*
X0006400Y0032705D02*
X0069032Y0032705D01*
X0069032Y0031707D02*
X0006400Y0031707D01*
X0006400Y0030708D02*
X0069032Y0030708D01*
X0069031Y0029710D02*
X0006400Y0029710D01*
X0006400Y0028711D02*
X0069031Y0028711D01*
X0069030Y0027713D02*
X0006400Y0027713D01*
X0006400Y0026714D02*
X0069030Y0026714D01*
X0069030Y0025716D02*
X0006400Y0025716D01*
X0006400Y0024717D02*
X0033648Y0024717D01*
X0032560Y0024267D02*
X0029983Y0021690D01*
X0028589Y0018322D01*
X0028589Y0014678D01*
X0029983Y0011310D01*
X0032560Y0008733D01*
X0035928Y0007339D01*
X0039572Y0007339D01*
X0042940Y0008733D01*
X0045517Y0011310D01*
X0046911Y0014678D01*
X0046911Y0018322D01*
X0045517Y0021690D01*
X0042940Y0024267D01*
X0039572Y0025661D01*
X0035928Y0025661D01*
X0032560Y0024267D01*
X0032013Y0023719D02*
X0006400Y0023719D01*
X0006400Y0022720D02*
X0031014Y0022720D01*
X0030016Y0021722D02*
X0006400Y0021722D01*
X0006400Y0020723D02*
X0029583Y0020723D01*
X0029169Y0019725D02*
X0006400Y0019725D01*
X0006400Y0018726D02*
X0028756Y0018726D01*
X0028589Y0017728D02*
X0006400Y0017728D01*
X0006400Y0016729D02*
X0028589Y0016729D01*
X0028589Y0015731D02*
X0006400Y0015731D01*
X0006400Y0014732D02*
X0028589Y0014732D01*
X0028980Y0013734D02*
X0006400Y0013734D01*
X0006400Y0012735D02*
X0029393Y0012735D01*
X0029807Y0011737D02*
X0006400Y0011737D01*
X0006400Y0010738D02*
X0030556Y0010738D01*
X0031554Y0009740D02*
X0006400Y0009740D01*
X0006400Y0008741D02*
X0032553Y0008741D01*
X0034952Y0007743D02*
X0006400Y0007743D01*
X0006400Y0006744D02*
X0069023Y0006744D01*
X0069023Y0007743D02*
X0040548Y0007743D01*
X0042947Y0008741D02*
X0069024Y0008741D01*
X0069024Y0009740D02*
X0043946Y0009740D01*
X0044944Y0010738D02*
X0069024Y0010738D01*
X0069025Y0011737D02*
X0045693Y0011737D01*
X0046107Y0012735D02*
X0069025Y0012735D01*
X0069026Y0013734D02*
X0046520Y0013734D01*
X0046911Y0014732D02*
X0069026Y0014732D01*
X0069026Y0015731D02*
X0046911Y0015731D01*
X0046911Y0016729D02*
X0069027Y0016729D01*
X0069027Y0017728D02*
X0046911Y0017728D01*
X0046744Y0018726D02*
X0069027Y0018726D01*
X0069028Y0019725D02*
X0046331Y0019725D01*
X0045917Y0020723D02*
X0069028Y0020723D01*
X0069028Y0021722D02*
X0045484Y0021722D01*
X0044486Y0022720D02*
X0069029Y0022720D01*
X0069029Y0023719D02*
X0043487Y0023719D01*
X0041852Y0024717D02*
X0069029Y0024717D01*
X0062242Y0046684D02*
X0048258Y0046684D01*
X0049353Y0047683D02*
X0061147Y0047683D01*
X0060356Y0048682D02*
X0050144Y0048682D01*
X0050558Y0049680D02*
X0059942Y0049680D01*
X0059650Y0050679D02*
X0050850Y0050679D01*
X0050850Y0051677D02*
X0059650Y0051677D01*
X0059676Y0052676D02*
X0050824Y0052676D01*
X0050411Y0053674D02*
X0060089Y0053674D01*
X0060503Y0054673D02*
X0049997Y0054673D01*
X0048998Y0055671D02*
X0061502Y0055671D01*
X0063097Y0056670D02*
X0047403Y0056670D01*
X0043097Y0056670D02*
X0006400Y0056670D01*
M02*
