G75*
%MOIN*%
%OFA0B0*%
%FSLAX25Y25*%
%IPPOS*%
%LPD*%
%AMOC8*
5,1,8,0,0,1.08239X$1,22.5*
%
%ADD10C,0.07400*%
%ADD11C,0.07000*%
%ADD12C,0.03200*%
%ADD13C,0.01600*%
D10*
X0010250Y0094000D03*
X0010250Y0104000D03*
X0010250Y0114000D03*
X0010250Y0124000D03*
X0010250Y0134000D03*
D11*
X0025250Y0114000D03*
X0045250Y0114000D03*
X0065250Y0114000D03*
X0065250Y0176500D03*
X0045250Y0176500D03*
X0025250Y0176500D03*
X0025250Y0051500D03*
X0045250Y0051500D03*
X0065250Y0051500D03*
D12*
X0045250Y0051500D02*
X0045250Y0081500D01*
X0012750Y0114000D01*
X0010250Y0114000D01*
X0010250Y0124000D02*
X0035250Y0124000D01*
X0045250Y0114000D01*
X0016500Y0134000D02*
X0042750Y0160250D01*
X0042750Y0174000D01*
X0045250Y0176500D01*
X0016500Y0134000D02*
X0010250Y0134000D01*
D13*
X0006700Y0098924D02*
X0006700Y0006700D01*
X0068723Y0006700D01*
X0068737Y0046643D01*
X0068592Y0046498D01*
X0066424Y0045600D01*
X0064076Y0045600D01*
X0061908Y0046498D01*
X0060248Y0048158D01*
X0059350Y0050326D01*
X0059350Y0052674D01*
X0060248Y0054842D01*
X0061908Y0056502D01*
X0064076Y0057400D01*
X0066424Y0057400D01*
X0068592Y0056502D01*
X0068741Y0056353D01*
X0068759Y0109165D01*
X0068592Y0108998D01*
X0066424Y0108100D01*
X0064076Y0108100D01*
X0061908Y0108998D01*
X0060248Y0110658D01*
X0059350Y0112826D01*
X0059350Y0115174D01*
X0060248Y0117342D01*
X0061908Y0119002D01*
X0064076Y0119900D01*
X0066424Y0119900D01*
X0068592Y0119002D01*
X0068763Y0118831D01*
X0068781Y0171688D01*
X0068592Y0171498D01*
X0066424Y0170600D01*
X0064076Y0170600D01*
X0061908Y0171498D01*
X0060248Y0173158D01*
X0059350Y0175326D01*
X0059350Y0177674D01*
X0060248Y0179842D01*
X0061908Y0181502D01*
X0064076Y0182400D01*
X0066424Y0182400D01*
X0068592Y0181502D01*
X0068785Y0181309D01*
X0068799Y0221300D01*
X0006700Y0221300D01*
X0006700Y0139076D01*
X0006795Y0139171D01*
X0009037Y0140100D01*
X0011463Y0140100D01*
X0013705Y0139171D01*
X0014860Y0138017D01*
X0038750Y0161907D01*
X0038750Y0174796D01*
X0039350Y0176244D01*
X0039350Y0177674D01*
X0040248Y0179842D01*
X0041908Y0181502D01*
X0044076Y0182400D01*
X0046424Y0182400D01*
X0048592Y0181502D01*
X0050252Y0179842D01*
X0051150Y0177674D01*
X0051150Y0175326D01*
X0050252Y0173158D01*
X0048592Y0171498D01*
X0046750Y0170735D01*
X0046750Y0159454D01*
X0046141Y0157984D01*
X0045016Y0156859D01*
X0018766Y0130609D01*
X0017296Y0130000D01*
X0014877Y0130000D01*
X0013877Y0129000D01*
X0014877Y0128000D01*
X0036046Y0128000D01*
X0037516Y0127391D01*
X0045007Y0119900D01*
X0046424Y0119900D01*
X0048592Y0119002D01*
X0050252Y0117342D01*
X0051150Y0115174D01*
X0051150Y0112826D01*
X0050252Y0110658D01*
X0048592Y0108998D01*
X0046424Y0108100D01*
X0044076Y0108100D01*
X0041908Y0108998D01*
X0040248Y0110658D01*
X0039350Y0112826D01*
X0039350Y0114243D01*
X0033593Y0120000D01*
X0014877Y0120000D01*
X0013877Y0119000D01*
X0015421Y0117455D01*
X0015754Y0116653D01*
X0048641Y0083766D01*
X0049250Y0082296D01*
X0049250Y0055844D01*
X0050252Y0054842D01*
X0051150Y0052674D01*
X0051150Y0050326D01*
X0050252Y0048158D01*
X0048592Y0046498D01*
X0046424Y0045600D01*
X0044076Y0045600D01*
X0041908Y0046498D01*
X0040248Y0048158D01*
X0039350Y0050326D01*
X0039350Y0052674D01*
X0040248Y0054842D01*
X0041250Y0055844D01*
X0041250Y0079843D01*
X0016350Y0104743D01*
X0016350Y0102787D01*
X0015421Y0100545D01*
X0013705Y0098829D01*
X0011463Y0097900D01*
X0009037Y0097900D01*
X0006795Y0098829D01*
X0006700Y0098924D01*
X0006700Y0098661D02*
X0007200Y0098661D01*
X0006700Y0097062D02*
X0024031Y0097062D01*
X0025629Y0095464D02*
X0006700Y0095464D01*
X0006700Y0093865D02*
X0027228Y0093865D01*
X0028827Y0092267D02*
X0006700Y0092267D01*
X0006700Y0090668D02*
X0030425Y0090668D01*
X0032024Y0089070D02*
X0006700Y0089070D01*
X0006700Y0087471D02*
X0033622Y0087471D01*
X0035221Y0085873D02*
X0006700Y0085873D01*
X0006700Y0084274D02*
X0036819Y0084274D01*
X0038418Y0082676D02*
X0006700Y0082676D01*
X0006700Y0081077D02*
X0040016Y0081077D01*
X0041250Y0079479D02*
X0006700Y0079479D01*
X0006700Y0077880D02*
X0041250Y0077880D01*
X0041250Y0076282D02*
X0006700Y0076282D01*
X0006700Y0074683D02*
X0041250Y0074683D01*
X0041250Y0073084D02*
X0006700Y0073084D01*
X0006700Y0071486D02*
X0041250Y0071486D01*
X0041250Y0069887D02*
X0006700Y0069887D01*
X0006700Y0068289D02*
X0041250Y0068289D01*
X0041250Y0066690D02*
X0006700Y0066690D01*
X0006700Y0065092D02*
X0041250Y0065092D01*
X0041250Y0063493D02*
X0006700Y0063493D01*
X0006700Y0061895D02*
X0041250Y0061895D01*
X0041250Y0060296D02*
X0006700Y0060296D01*
X0006700Y0058698D02*
X0041250Y0058698D01*
X0041250Y0057099D02*
X0006700Y0057099D01*
X0006700Y0055501D02*
X0040907Y0055501D01*
X0039859Y0053902D02*
X0006700Y0053902D01*
X0006700Y0052304D02*
X0039350Y0052304D01*
X0039350Y0050705D02*
X0006700Y0050705D01*
X0006700Y0049107D02*
X0039855Y0049107D01*
X0040898Y0047508D02*
X0006700Y0047508D01*
X0006700Y0045910D02*
X0043328Y0045910D01*
X0047172Y0045910D02*
X0063328Y0045910D01*
X0060898Y0047508D02*
X0049602Y0047508D01*
X0050645Y0049107D02*
X0059855Y0049107D01*
X0059350Y0050705D02*
X0051150Y0050705D01*
X0051150Y0052304D02*
X0059350Y0052304D01*
X0059859Y0053902D02*
X0050641Y0053902D01*
X0049593Y0055501D02*
X0060907Y0055501D01*
X0063351Y0057099D02*
X0049250Y0057099D01*
X0049250Y0058698D02*
X0068741Y0058698D01*
X0068742Y0060296D02*
X0049250Y0060296D01*
X0049250Y0061895D02*
X0068743Y0061895D01*
X0068743Y0063493D02*
X0049250Y0063493D01*
X0049250Y0065092D02*
X0068744Y0065092D01*
X0068744Y0066690D02*
X0049250Y0066690D01*
X0049250Y0068289D02*
X0068745Y0068289D01*
X0068745Y0069887D02*
X0049250Y0069887D01*
X0049250Y0071486D02*
X0068746Y0071486D01*
X0068747Y0073084D02*
X0049250Y0073084D01*
X0049250Y0074683D02*
X0068747Y0074683D01*
X0068748Y0076282D02*
X0049250Y0076282D01*
X0049250Y0077880D02*
X0068748Y0077880D01*
X0068749Y0079479D02*
X0049250Y0079479D01*
X0049250Y0081077D02*
X0068749Y0081077D01*
X0068750Y0082676D02*
X0049093Y0082676D01*
X0048133Y0084274D02*
X0068751Y0084274D01*
X0068751Y0085873D02*
X0046534Y0085873D01*
X0044936Y0087471D02*
X0068752Y0087471D01*
X0068752Y0089070D02*
X0043337Y0089070D01*
X0041739Y0090668D02*
X0068753Y0090668D01*
X0068753Y0092267D02*
X0040140Y0092267D01*
X0038542Y0093865D02*
X0068754Y0093865D01*
X0068754Y0095464D02*
X0036943Y0095464D01*
X0035345Y0097062D02*
X0068755Y0097062D01*
X0068756Y0098661D02*
X0033746Y0098661D01*
X0032148Y0100259D02*
X0068756Y0100259D01*
X0068757Y0101858D02*
X0030549Y0101858D01*
X0028951Y0103456D02*
X0068757Y0103456D01*
X0068758Y0105055D02*
X0027352Y0105055D01*
X0025754Y0106653D02*
X0068758Y0106653D01*
X0068759Y0108252D02*
X0066790Y0108252D01*
X0063710Y0108252D02*
X0046790Y0108252D01*
X0043710Y0108252D02*
X0024155Y0108252D01*
X0022557Y0109850D02*
X0041056Y0109850D01*
X0039921Y0111449D02*
X0020958Y0111449D01*
X0019360Y0113047D02*
X0039350Y0113047D01*
X0038947Y0114646D02*
X0017761Y0114646D01*
X0016163Y0116244D02*
X0037349Y0116244D01*
X0035750Y0117843D02*
X0015034Y0117843D01*
X0014318Y0119441D02*
X0034152Y0119441D01*
X0037412Y0127434D02*
X0068766Y0127434D01*
X0068766Y0129032D02*
X0013909Y0129032D01*
X0014253Y0138623D02*
X0015467Y0138623D01*
X0017065Y0140222D02*
X0006700Y0140222D01*
X0006700Y0141820D02*
X0018664Y0141820D01*
X0020262Y0143419D02*
X0006700Y0143419D01*
X0006700Y0145018D02*
X0021861Y0145018D01*
X0023459Y0146616D02*
X0006700Y0146616D01*
X0006700Y0148215D02*
X0025058Y0148215D01*
X0026656Y0149813D02*
X0006700Y0149813D01*
X0006700Y0151412D02*
X0028255Y0151412D01*
X0029853Y0153010D02*
X0006700Y0153010D01*
X0006700Y0154609D02*
X0031452Y0154609D01*
X0033050Y0156207D02*
X0006700Y0156207D01*
X0006700Y0157806D02*
X0034649Y0157806D01*
X0036247Y0159404D02*
X0006700Y0159404D01*
X0006700Y0161003D02*
X0037846Y0161003D01*
X0038750Y0162601D02*
X0006700Y0162601D01*
X0006700Y0164200D02*
X0038750Y0164200D01*
X0038750Y0165798D02*
X0006700Y0165798D01*
X0006700Y0167397D02*
X0038750Y0167397D01*
X0038750Y0168995D02*
X0006700Y0168995D01*
X0006700Y0170594D02*
X0038750Y0170594D01*
X0038750Y0172192D02*
X0006700Y0172192D01*
X0006700Y0173791D02*
X0038750Y0173791D01*
X0038996Y0175389D02*
X0006700Y0175389D01*
X0006700Y0176988D02*
X0039350Y0176988D01*
X0039728Y0178586D02*
X0006700Y0178586D01*
X0006700Y0180185D02*
X0040591Y0180185D01*
X0042588Y0181783D02*
X0006700Y0181783D01*
X0006700Y0183382D02*
X0068786Y0183382D01*
X0068786Y0184980D02*
X0006700Y0184980D01*
X0006700Y0186579D02*
X0068787Y0186579D01*
X0068787Y0188177D02*
X0006700Y0188177D01*
X0006700Y0189776D02*
X0068788Y0189776D01*
X0068788Y0191374D02*
X0006700Y0191374D01*
X0006700Y0192973D02*
X0068789Y0192973D01*
X0068790Y0194571D02*
X0006700Y0194571D01*
X0006700Y0196170D02*
X0068790Y0196170D01*
X0068791Y0197768D02*
X0006700Y0197768D01*
X0006700Y0199367D02*
X0068791Y0199367D01*
X0068792Y0200965D02*
X0006700Y0200965D01*
X0006700Y0202564D02*
X0034600Y0202564D01*
X0035868Y0202039D02*
X0039632Y0202039D01*
X0043109Y0203479D01*
X0045771Y0206141D01*
X0047211Y0209618D01*
X0047211Y0213382D01*
X0045771Y0216859D01*
X0043109Y0219521D01*
X0039632Y0220961D01*
X0035868Y0220961D01*
X0032391Y0219521D01*
X0029729Y0216859D01*
X0028289Y0213382D01*
X0028289Y0209618D01*
X0029729Y0206141D01*
X0032391Y0203479D01*
X0035868Y0202039D01*
X0031707Y0204162D02*
X0006700Y0204162D01*
X0006700Y0205761D02*
X0030109Y0205761D01*
X0029224Y0207359D02*
X0006700Y0207359D01*
X0006700Y0208958D02*
X0028562Y0208958D01*
X0028289Y0210556D02*
X0006700Y0210556D01*
X0006700Y0212155D02*
X0028289Y0212155D01*
X0028442Y0213753D02*
X0006700Y0213753D01*
X0006700Y0215352D02*
X0029105Y0215352D01*
X0029820Y0216951D02*
X0006700Y0216951D01*
X0006700Y0218549D02*
X0031419Y0218549D01*
X0033903Y0220148D02*
X0006700Y0220148D01*
X0031576Y0143419D02*
X0068771Y0143419D01*
X0068771Y0141820D02*
X0029977Y0141820D01*
X0028379Y0140222D02*
X0068770Y0140222D01*
X0068770Y0138623D02*
X0026780Y0138623D01*
X0025182Y0137025D02*
X0068769Y0137025D01*
X0068769Y0135426D02*
X0023583Y0135426D01*
X0021985Y0133828D02*
X0068768Y0133828D01*
X0068767Y0132229D02*
X0020386Y0132229D01*
X0018788Y0130631D02*
X0068767Y0130631D01*
X0068765Y0125835D02*
X0039071Y0125835D01*
X0040670Y0124237D02*
X0068765Y0124237D01*
X0068764Y0122638D02*
X0042268Y0122638D01*
X0043867Y0121040D02*
X0068764Y0121040D01*
X0068763Y0119441D02*
X0067531Y0119441D01*
X0062969Y0119441D02*
X0047531Y0119441D01*
X0049751Y0117843D02*
X0060749Y0117843D01*
X0059794Y0116244D02*
X0050706Y0116244D01*
X0051150Y0114646D02*
X0059350Y0114646D01*
X0059350Y0113047D02*
X0051150Y0113047D01*
X0050579Y0111449D02*
X0059921Y0111449D01*
X0061056Y0109850D02*
X0049444Y0109850D01*
X0036371Y0148215D02*
X0068773Y0148215D01*
X0068774Y0149813D02*
X0037970Y0149813D01*
X0039568Y0151412D02*
X0068774Y0151412D01*
X0068775Y0153010D02*
X0041167Y0153010D01*
X0042765Y0154609D02*
X0068775Y0154609D01*
X0068776Y0156207D02*
X0044364Y0156207D01*
X0045962Y0157806D02*
X0068777Y0157806D01*
X0068777Y0159404D02*
X0046729Y0159404D01*
X0046750Y0161003D02*
X0068778Y0161003D01*
X0068778Y0162601D02*
X0046750Y0162601D01*
X0046750Y0164200D02*
X0068779Y0164200D01*
X0068779Y0165798D02*
X0046750Y0165798D01*
X0046750Y0167397D02*
X0068780Y0167397D01*
X0068780Y0168995D02*
X0046750Y0168995D01*
X0046750Y0170594D02*
X0068781Y0170594D01*
X0068785Y0181783D02*
X0067912Y0181783D01*
X0062588Y0181783D02*
X0047912Y0181783D01*
X0049909Y0180185D02*
X0060591Y0180185D01*
X0059728Y0178586D02*
X0050772Y0178586D01*
X0051150Y0176988D02*
X0059350Y0176988D01*
X0059350Y0175389D02*
X0051150Y0175389D01*
X0050514Y0173791D02*
X0059986Y0173791D01*
X0061214Y0172192D02*
X0049286Y0172192D01*
X0040900Y0202564D02*
X0068792Y0202564D01*
X0068793Y0204162D02*
X0043793Y0204162D01*
X0045391Y0205761D02*
X0068794Y0205761D01*
X0068794Y0207359D02*
X0046276Y0207359D01*
X0046938Y0208958D02*
X0068795Y0208958D01*
X0068795Y0210556D02*
X0047211Y0210556D01*
X0047211Y0212155D02*
X0068796Y0212155D01*
X0068796Y0213753D02*
X0047058Y0213753D01*
X0046395Y0215352D02*
X0068797Y0215352D01*
X0068797Y0216951D02*
X0045680Y0216951D01*
X0044081Y0218549D02*
X0068798Y0218549D01*
X0068799Y0220148D02*
X0041597Y0220148D01*
X0034773Y0146616D02*
X0068773Y0146616D01*
X0068772Y0145018D02*
X0033174Y0145018D01*
X0019235Y0101858D02*
X0015965Y0101858D01*
X0016350Y0103456D02*
X0017637Y0103456D01*
X0015136Y0100259D02*
X0020834Y0100259D01*
X0022432Y0098661D02*
X0013300Y0098661D01*
X0006700Y0044311D02*
X0068736Y0044311D01*
X0068736Y0042713D02*
X0006700Y0042713D01*
X0006700Y0041114D02*
X0068735Y0041114D01*
X0068735Y0039516D02*
X0006700Y0039516D01*
X0006700Y0037917D02*
X0068734Y0037917D01*
X0068734Y0036319D02*
X0006700Y0036319D01*
X0006700Y0034720D02*
X0068733Y0034720D01*
X0068732Y0033122D02*
X0006700Y0033122D01*
X0006700Y0031523D02*
X0068732Y0031523D01*
X0068731Y0029925D02*
X0006700Y0029925D01*
X0006700Y0028326D02*
X0068731Y0028326D01*
X0068730Y0026728D02*
X0006700Y0026728D01*
X0006700Y0025129D02*
X0033859Y0025129D01*
X0032391Y0024521D02*
X0029729Y0021859D01*
X0028289Y0018382D01*
X0028289Y0014618D01*
X0029729Y0011141D01*
X0032391Y0008479D01*
X0035868Y0007039D01*
X0039632Y0007039D01*
X0043109Y0008479D01*
X0045771Y0011141D01*
X0047211Y0014618D01*
X0047211Y0018382D01*
X0045771Y0021859D01*
X0043109Y0024521D01*
X0039632Y0025961D01*
X0035868Y0025961D01*
X0032391Y0024521D01*
X0031400Y0023531D02*
X0006700Y0023531D01*
X0006700Y0021932D02*
X0029802Y0021932D01*
X0029097Y0020334D02*
X0006700Y0020334D01*
X0006700Y0018735D02*
X0028435Y0018735D01*
X0028289Y0017137D02*
X0006700Y0017137D01*
X0006700Y0015538D02*
X0028289Y0015538D01*
X0028570Y0013940D02*
X0006700Y0013940D01*
X0006700Y0012341D02*
X0029232Y0012341D01*
X0030127Y0010743D02*
X0006700Y0010743D01*
X0006700Y0009144D02*
X0031725Y0009144D01*
X0034644Y0007546D02*
X0006700Y0007546D01*
X0040856Y0007546D02*
X0068723Y0007546D01*
X0068724Y0009144D02*
X0043775Y0009144D01*
X0045373Y0010743D02*
X0068724Y0010743D01*
X0068725Y0012341D02*
X0046268Y0012341D01*
X0046930Y0013940D02*
X0068726Y0013940D01*
X0068726Y0015538D02*
X0047211Y0015538D01*
X0047211Y0017137D02*
X0068727Y0017137D01*
X0068727Y0018735D02*
X0047065Y0018735D01*
X0046403Y0020334D02*
X0068728Y0020334D01*
X0068728Y0021932D02*
X0045698Y0021932D01*
X0044100Y0023531D02*
X0068729Y0023531D01*
X0068730Y0025129D02*
X0041641Y0025129D01*
X0067172Y0045910D02*
X0068737Y0045910D01*
X0068741Y0057099D02*
X0067149Y0057099D01*
M02*
