G75*
%MOIN*%
%OFA0B0*%
%FSLAX25Y25*%
%IPPOS*%
%LPD*%
%AMOC8*
5,1,8,0,0,1.08239X$1,22.5*
%
%ADD10C,0.00800*%
%ADD11C,0.01200*%
D10*
X0007750Y0089000D02*
X0012750Y0089000D01*
X0015250Y0091500D01*
X0015250Y0096500D01*
X0012750Y0099000D01*
X0015250Y0101500D01*
X0015250Y0106500D01*
X0012750Y0109000D01*
X0015250Y0111500D01*
X0015250Y0116500D01*
X0012750Y0119000D01*
X0015250Y0121500D01*
X0015250Y0126500D01*
X0012750Y0129000D01*
X0015250Y0131500D01*
X0015250Y0136500D01*
X0012750Y0139000D01*
X0007750Y0139000D01*
X0005250Y0136500D01*
X0005250Y0131500D01*
X0007750Y0129000D01*
X0005250Y0126500D01*
X0005250Y0121500D01*
X0007750Y0119000D01*
X0005250Y0116500D01*
X0005250Y0111500D01*
X0007750Y0109000D01*
X0005250Y0106500D01*
X0005250Y0101500D01*
X0007750Y0099000D01*
X0005250Y0096500D01*
X0005250Y0091500D01*
X0007750Y0089000D01*
X0040650Y0096351D02*
X0041351Y0095650D01*
X0042752Y0095650D01*
X0043452Y0096351D01*
X0043452Y0097051D01*
X0042752Y0097752D01*
X0041351Y0097752D01*
X0040650Y0098452D01*
X0040650Y0099153D01*
X0041351Y0099854D01*
X0042752Y0099854D01*
X0043452Y0099153D01*
X0045254Y0099854D02*
X0045254Y0095650D01*
X0048056Y0095650D01*
X0046655Y0097752D02*
X0045254Y0097752D01*
X0045254Y0099854D02*
X0048056Y0099854D01*
X0049858Y0099854D02*
X0049858Y0095650D01*
X0052660Y0095650D01*
X0049306Y0036104D02*
X0049306Y0031900D01*
X0046504Y0036104D01*
X0046504Y0031900D01*
X0044702Y0032601D02*
X0044702Y0035403D01*
X0044002Y0036104D01*
X0041900Y0036104D01*
X0041900Y0031900D01*
X0044002Y0031900D01*
X0044702Y0032601D01*
X0044002Y0156900D02*
X0042601Y0156900D01*
X0041900Y0157601D01*
X0041900Y0161104D01*
X0044702Y0157601D02*
X0044002Y0156900D01*
X0044702Y0157601D02*
X0044702Y0161104D01*
X0046504Y0161104D02*
X0046504Y0156900D01*
X0046504Y0158301D02*
X0048606Y0158301D01*
X0049306Y0159002D01*
X0049306Y0160403D01*
X0048606Y0161104D01*
X0046504Y0161104D01*
D11*
X0020053Y0062917D02*
X0020053Y0040083D01*
X0045250Y0040083D01*
X0070526Y0040083D01*
X0070447Y0040043D02*
X0070447Y0062917D01*
X0020053Y0062917D01*
X0020053Y0102583D02*
X0020053Y0125417D01*
X0070447Y0125417D01*
X0070447Y0102543D01*
X0070526Y0102583D02*
X0045250Y0102583D01*
X0020053Y0102583D01*
X0035211Y0108094D02*
X0035211Y0119906D01*
X0039935Y0119906D01*
X0039935Y0114000D01*
X0039935Y0108094D01*
X0035211Y0108094D01*
X0035211Y0057406D02*
X0039935Y0057406D01*
X0039935Y0051500D01*
X0039935Y0045594D01*
X0035211Y0045594D01*
X0035211Y0057406D01*
X0045250Y0165083D02*
X0020053Y0165083D01*
X0020053Y0187917D01*
X0070447Y0187917D01*
X0070447Y0165043D01*
X0070526Y0165083D02*
X0045250Y0165083D01*
X0039935Y0170594D02*
X0035211Y0170594D01*
X0035211Y0182406D01*
X0039935Y0182406D01*
X0039935Y0176500D01*
X0039935Y0170594D01*
M02*
