G75*
%MOIN*%
%OFA0B0*%
%FSLAX25Y25*%
%IPPOS*%
%LPD*%
%AMOC8*
5,1,8,0,0,1.08239X$1,22.5*
%
%ADD10R,0.07874X0.08425*%
%ADD11R,0.07099X0.05918*%
%ADD12R,0.05918X0.07099*%
%ADD13R,0.05800X0.03000*%
%ADD14R,0.03000X0.05800*%
%ADD15C,0.05950*%
%ADD16R,0.09600X0.05600*%
%ADD17R,0.09461X0.14973*%
%ADD18OC8,0.07800*%
%ADD19R,0.04737X0.06312*%
%ADD20R,0.06706X0.05918*%
%ADD21R,0.05918X0.06706*%
%ADD22C,0.07400*%
D10*
X0025665Y0106650D03*
D11*
X0092102Y0097516D03*
X0092102Y0089642D03*
D12*
X0091610Y0080783D03*
X0083736Y0080783D03*
X0081768Y0097024D03*
X0073894Y0097024D03*
D13*
X0073077Y0090823D03*
X0073077Y0087673D03*
X0073077Y0084524D03*
X0073077Y0081374D03*
X0073077Y0078224D03*
X0073077Y0075075D03*
X0073077Y0071925D03*
X0073077Y0068776D03*
X0039277Y0068776D03*
X0039277Y0071925D03*
X0039277Y0075075D03*
X0039277Y0078224D03*
X0039277Y0081374D03*
X0039277Y0084524D03*
X0039277Y0087673D03*
X0039277Y0090823D03*
D14*
X0045154Y0096699D03*
X0048303Y0096699D03*
X0051453Y0096699D03*
X0054602Y0096699D03*
X0057752Y0096699D03*
X0060902Y0096699D03*
X0064051Y0096699D03*
X0067201Y0096699D03*
X0067201Y0062899D03*
X0064051Y0062899D03*
X0060902Y0062899D03*
X0057752Y0062899D03*
X0054602Y0062899D03*
X0051453Y0062899D03*
X0048303Y0062899D03*
X0045154Y0062899D03*
D15*
X0063894Y0111295D03*
X0083894Y0111295D03*
D16*
X0087078Y0056419D03*
X0087078Y0047319D03*
X0087078Y0038219D03*
D17*
X0062677Y0047319D03*
D18*
X0025665Y0116217D03*
D19*
X0044366Y0054602D03*
X0040626Y0045941D03*
X0048106Y0045941D03*
D20*
X0027634Y0029799D03*
X0027634Y0037280D03*
X0036492Y0105587D03*
X0036492Y0113067D03*
X0045350Y0113067D03*
X0045350Y0105587D03*
D21*
X0031374Y0094563D03*
X0023894Y0094563D03*
X0023894Y0085705D03*
X0031374Y0085705D03*
X0031374Y0071925D03*
X0023894Y0071925D03*
X0023894Y0063067D03*
X0031374Y0063067D03*
X0031374Y0054209D03*
X0023894Y0054209D03*
X0023894Y0045350D03*
X0031374Y0045350D03*
X0040626Y0037476D03*
X0048106Y0037476D03*
X0081965Y0067988D03*
X0089445Y0067988D03*
D22*
X0077831Y0027634D03*
X0067831Y0027634D03*
X0057831Y0027634D03*
X0047831Y0027634D03*
X0037831Y0027634D03*
M02*
