%
M48
M72
T01C0.01575
T02C0.03150
T03C0.03937
T04C0.04000
%
T01
X60095Y65183
X75095Y63933
X95720Y90183
X101345Y83933
X101345Y76433
X116345Y90808
X122595Y88933
X118845Y69558
X101611Y100183
X100095Y114558
X96345Y117683
X97595Y127683
X89470Y127683
X78845Y131433
X73220Y119558
X62595Y117683
X62595Y112683
X73845Y105183
X77595Y101433
X71345Y98933
X66345Y97683
X83845Y111433
X106345Y114558
X105095Y142683
X101970Y153308
X56345Y138933
X55720Y153308
X35095Y125183
X35095Y117683
X35095Y111433
X41345Y102683
X43845Y98933
T02
X65095Y61433
X85095Y61433
T03
X123845Y57683
X133845Y57683
T04
X33845Y35183
X43845Y35183
X53845Y35183
X63845Y35183
X73845Y35183
X83845Y35183
X93845Y35183
X103845Y35183
X113845Y35183
X123845Y35183
X133845Y35183
X133845Y77683
X133845Y87683
X133845Y97683
X133845Y107683
X133845Y120183
X133845Y130183
X133845Y140183
X133845Y150183
X123845Y77683
X33845Y76433
X33845Y86433
X33599Y151074
M30
