G75*
%MOIN*%
%OFA0B0*%
%FSLAX25Y25*%
%IPPOS*%
%LPD*%
%AMOC8*
5,1,8,0,0,1.08239X$1,22.5*
%
%ADD10C,0.00600*%
%ADD11C,0.01000*%
D10*
X0031478Y0032930D02*
X0032046Y0032363D01*
X0033747Y0032363D01*
X0033747Y0035766D01*
X0032046Y0035766D01*
X0031478Y0035199D01*
X0031478Y0032930D01*
X0035162Y0032363D02*
X0035162Y0035766D01*
X0037430Y0035766D02*
X0035162Y0032363D01*
X0037430Y0032363D02*
X0037430Y0035766D01*
X0038845Y0035199D02*
X0039412Y0035766D01*
X0040546Y0035766D01*
X0041113Y0035199D01*
X0041113Y0032930D01*
X0040546Y0032363D01*
X0039412Y0032363D01*
X0038845Y0032930D01*
X0038845Y0034064D01*
X0039979Y0034064D01*
X0043290Y0033497D02*
X0043290Y0035766D01*
X0043290Y0033497D02*
X0044424Y0032363D01*
X0045558Y0033497D01*
X0045558Y0035766D01*
X0046973Y0035766D02*
X0049241Y0035766D01*
X0049241Y0034064D01*
X0048107Y0034632D01*
X0047540Y0034632D01*
X0046973Y0034064D01*
X0046973Y0032930D01*
X0047540Y0032363D01*
X0048674Y0032363D01*
X0049241Y0032930D01*
X0050656Y0034064D02*
X0052924Y0034064D01*
X0051790Y0032930D02*
X0051790Y0035199D01*
X0055339Y0035766D02*
X0057607Y0032363D01*
X0055339Y0032363D02*
X0057607Y0035766D01*
X0059022Y0035766D02*
X0061291Y0035766D01*
X0060156Y0035766D02*
X0060156Y0032363D01*
X0064689Y0032363D02*
X0066958Y0035766D01*
X0068372Y0035199D02*
X0068372Y0034064D01*
X0068939Y0033497D01*
X0070641Y0033497D01*
X0070641Y0032363D02*
X0070641Y0035766D01*
X0068939Y0035766D01*
X0068372Y0035199D01*
X0069507Y0033497D02*
X0068372Y0032363D01*
X0066958Y0032363D02*
X0064689Y0035766D01*
X0072817Y0035766D02*
X0075086Y0035766D01*
X0073951Y0035766D02*
X0073951Y0032363D01*
X0076500Y0032930D02*
X0077067Y0032363D01*
X0078202Y0032363D01*
X0078769Y0032930D01*
X0078202Y0034064D02*
X0077067Y0034064D01*
X0076500Y0033497D01*
X0076500Y0032930D01*
X0078202Y0034064D02*
X0078769Y0034632D01*
X0078769Y0035199D01*
X0078202Y0035766D01*
X0077067Y0035766D01*
X0076500Y0035199D01*
X0080183Y0035199D02*
X0080183Y0034064D01*
X0080751Y0033497D01*
X0082452Y0033497D01*
X0082452Y0032363D02*
X0082452Y0035766D01*
X0080751Y0035766D01*
X0080183Y0035199D01*
X0081318Y0033497D02*
X0080183Y0032363D01*
D11*
X0092594Y0040429D02*
X0094563Y0040429D01*
X0094563Y0103421D01*
X0092594Y0103421D01*
X0031570Y0095547D02*
X0031572Y0095635D01*
X0031578Y0095723D01*
X0031588Y0095811D01*
X0031602Y0095899D01*
X0031619Y0095985D01*
X0031641Y0096071D01*
X0031666Y0096155D01*
X0031696Y0096239D01*
X0031728Y0096321D01*
X0031765Y0096401D01*
X0031805Y0096480D01*
X0031849Y0096557D01*
X0031896Y0096632D01*
X0031946Y0096704D01*
X0032000Y0096775D01*
X0032056Y0096842D01*
X0032116Y0096908D01*
X0032178Y0096970D01*
X0032244Y0097030D01*
X0032311Y0097086D01*
X0032382Y0097140D01*
X0032454Y0097190D01*
X0032529Y0097237D01*
X0032606Y0097281D01*
X0032685Y0097321D01*
X0032765Y0097358D01*
X0032847Y0097390D01*
X0032931Y0097420D01*
X0033015Y0097445D01*
X0033101Y0097467D01*
X0033187Y0097484D01*
X0033275Y0097498D01*
X0033363Y0097508D01*
X0033451Y0097514D01*
X0033539Y0097516D01*
X0033627Y0097514D01*
X0033715Y0097508D01*
X0033803Y0097498D01*
X0033891Y0097484D01*
X0033977Y0097467D01*
X0034063Y0097445D01*
X0034147Y0097420D01*
X0034231Y0097390D01*
X0034313Y0097358D01*
X0034393Y0097321D01*
X0034472Y0097281D01*
X0034549Y0097237D01*
X0034624Y0097190D01*
X0034696Y0097140D01*
X0034767Y0097086D01*
X0034834Y0097030D01*
X0034900Y0096970D01*
X0034962Y0096908D01*
X0035022Y0096842D01*
X0035078Y0096775D01*
X0035132Y0096704D01*
X0035182Y0096632D01*
X0035229Y0096557D01*
X0035273Y0096480D01*
X0035313Y0096401D01*
X0035350Y0096321D01*
X0035382Y0096239D01*
X0035412Y0096155D01*
X0035437Y0096071D01*
X0035459Y0095985D01*
X0035476Y0095899D01*
X0035490Y0095811D01*
X0035500Y0095723D01*
X0035506Y0095635D01*
X0035508Y0095547D01*
X0035506Y0095459D01*
X0035500Y0095371D01*
X0035490Y0095283D01*
X0035476Y0095195D01*
X0035459Y0095109D01*
X0035437Y0095023D01*
X0035412Y0094939D01*
X0035382Y0094855D01*
X0035350Y0094773D01*
X0035313Y0094693D01*
X0035273Y0094614D01*
X0035229Y0094537D01*
X0035182Y0094462D01*
X0035132Y0094390D01*
X0035078Y0094319D01*
X0035022Y0094252D01*
X0034962Y0094186D01*
X0034900Y0094124D01*
X0034834Y0094064D01*
X0034767Y0094008D01*
X0034696Y0093954D01*
X0034624Y0093904D01*
X0034549Y0093857D01*
X0034472Y0093813D01*
X0034393Y0093773D01*
X0034313Y0093736D01*
X0034231Y0093704D01*
X0034147Y0093674D01*
X0034063Y0093649D01*
X0033977Y0093627D01*
X0033891Y0093610D01*
X0033803Y0093596D01*
X0033715Y0093586D01*
X0033627Y0093580D01*
X0033539Y0093578D01*
X0033451Y0093580D01*
X0033363Y0093586D01*
X0033275Y0093596D01*
X0033187Y0093610D01*
X0033101Y0093627D01*
X0033015Y0093649D01*
X0032931Y0093674D01*
X0032847Y0093704D01*
X0032765Y0093736D01*
X0032685Y0093773D01*
X0032606Y0093813D01*
X0032529Y0093857D01*
X0032454Y0093904D01*
X0032382Y0093954D01*
X0032311Y0094008D01*
X0032244Y0094064D01*
X0032178Y0094124D01*
X0032116Y0094186D01*
X0032056Y0094252D01*
X0032000Y0094319D01*
X0031946Y0094390D01*
X0031896Y0094462D01*
X0031849Y0094537D01*
X0031805Y0094614D01*
X0031765Y0094693D01*
X0031728Y0094773D01*
X0031696Y0094855D01*
X0031666Y0094939D01*
X0031641Y0095023D01*
X0031619Y0095109D01*
X0031602Y0095195D01*
X0031588Y0095283D01*
X0031578Y0095371D01*
X0031572Y0095459D01*
X0031570Y0095547D01*
X0029602Y0103421D02*
X0027634Y0103421D01*
X0027634Y0040429D01*
X0029602Y0040429D01*
M02*
