G75*
%MOIN*%
%OFA0B0*%
%FSLAX25Y25*%
%IPPOS*%
%LPD*%
%AMOC8*
5,1,8,0,0,1.08239X$1,22.5*
%
%ADD10C,0.05150*%
%ADD11R,0.05906X0.05118*%
%ADD12R,0.05906X0.05906*%
%ADD13R,0.05118X0.05906*%
%ADD14C,0.06600*%
%ADD15OC8,0.07000*%
%ADD16R,0.06299X0.05118*%
%ADD17R,0.03937X0.05512*%
%ADD18R,0.06600X0.03200*%
%ADD19C,0.01000*%
%ADD20C,0.03175*%
%ADD21C,0.01200*%
%ADD22C,0.02400*%
%ADD23C,0.01600*%
D10*
X0065095Y0061433D03*
X0085095Y0061433D03*
D11*
X0075095Y0076443D03*
X0075095Y0083923D03*
X0102595Y0067673D03*
X0102595Y0060193D03*
X0111345Y0075193D03*
X0111345Y0082673D03*
X0120095Y0115193D03*
X0120095Y0122673D03*
X0120095Y0130193D03*
X0120095Y0137673D03*
X0120095Y0145193D03*
X0120095Y0152673D03*
X0043220Y0066423D03*
X0043220Y0058943D03*
X0033845Y0098943D03*
X0033845Y0106423D03*
D12*
X0033845Y0067073D03*
X0033845Y0053293D03*
D13*
X0051355Y0075183D03*
X0058835Y0075183D03*
X0058835Y0083933D03*
X0051355Y0083933D03*
D14*
X0033845Y0086433D03*
X0033845Y0076433D03*
X0033845Y0035183D03*
X0043845Y0035183D03*
X0053845Y0035183D03*
X0063845Y0035183D03*
X0073845Y0035183D03*
X0083845Y0035183D03*
X0093845Y0035183D03*
X0103845Y0035183D03*
X0113845Y0035183D03*
X0123845Y0035183D03*
X0133845Y0035183D03*
X0133845Y0057683D03*
X0123845Y0057683D03*
X0123845Y0077683D03*
X0133845Y0077683D03*
X0133845Y0087683D03*
X0133845Y0097683D03*
X0133845Y0107683D03*
X0133845Y0120183D03*
X0133845Y0130183D03*
X0133845Y0140183D03*
X0133845Y0150183D03*
D15*
X0033599Y0151074D03*
D16*
X0111345Y0067870D03*
X0111345Y0059996D03*
D17*
X0090085Y0075852D03*
X0082605Y0075852D03*
X0086345Y0084514D03*
D18*
X0111591Y0095124D03*
X0111591Y0102998D03*
X0111591Y0110872D03*
X0111591Y0118746D03*
X0111591Y0126620D03*
X0111591Y0134494D03*
X0111591Y0142368D03*
X0111591Y0150242D03*
X0048599Y0150242D03*
X0048599Y0142368D03*
X0048599Y0134494D03*
X0048599Y0126620D03*
X0048599Y0118746D03*
X0048599Y0110872D03*
X0048599Y0102998D03*
X0048599Y0095124D03*
D19*
X0027564Y0045808D02*
X0027564Y0022652D01*
X0128220Y0022652D01*
X0128220Y0032729D01*
X0128068Y0032362D01*
X0126667Y0030960D01*
X0124836Y0030202D01*
X0122854Y0030202D01*
X0121024Y0030960D01*
X0119622Y0032362D01*
X0118864Y0034192D01*
X0118864Y0036174D01*
X0119622Y0038005D01*
X0121024Y0039406D01*
X0122854Y0040164D01*
X0124836Y0040164D01*
X0126667Y0039406D01*
X0128068Y0038005D01*
X0128220Y0037637D01*
X0128220Y0062058D01*
X0127976Y0062302D01*
X0120039Y0062302D01*
X0118220Y0060484D01*
X0118220Y0045808D01*
X0027564Y0045808D01*
X0027564Y0045146D02*
X0128220Y0045146D01*
X0128220Y0046144D02*
X0118220Y0046144D01*
X0118220Y0047143D02*
X0128220Y0047143D01*
X0128220Y0048141D02*
X0118220Y0048141D01*
X0118220Y0049140D02*
X0128220Y0049140D01*
X0128220Y0050138D02*
X0118220Y0050138D01*
X0118220Y0051137D02*
X0128220Y0051137D01*
X0128220Y0052135D02*
X0118220Y0052135D01*
X0118220Y0053134D02*
X0128220Y0053134D01*
X0128220Y0054132D02*
X0118220Y0054132D01*
X0118220Y0055131D02*
X0128220Y0055131D01*
X0128220Y0056129D02*
X0118220Y0056129D01*
X0118220Y0057128D02*
X0128220Y0057128D01*
X0128220Y0058127D02*
X0118220Y0058127D01*
X0118220Y0059125D02*
X0128220Y0059125D01*
X0128220Y0060124D02*
X0118220Y0060124D01*
X0118859Y0061122D02*
X0128220Y0061122D01*
X0128158Y0062121D02*
X0119857Y0062121D01*
X0115702Y0066115D02*
X0107229Y0066115D01*
X0107229Y0067113D02*
X0116701Y0067113D01*
X0116403Y0066815D02*
X0113824Y0064236D01*
X0107499Y0064236D01*
X0106970Y0063707D01*
X0106744Y0063933D01*
X0107229Y0064418D01*
X0107229Y0070929D01*
X0106244Y0071913D01*
X0101581Y0071913D01*
X0101030Y0072464D01*
X0093735Y0072464D01*
X0093735Y0073571D01*
X0095459Y0073571D01*
X0096796Y0074907D01*
X0097290Y0075402D01*
X0098077Y0076189D01*
X0098077Y0075783D01*
X0098574Y0074582D01*
X0099494Y0073662D01*
X0100695Y0073165D01*
X0101995Y0073165D01*
X0103197Y0073662D01*
X0104116Y0074582D01*
X0104614Y0075783D01*
X0104614Y0077083D01*
X0104116Y0078285D01*
X0103626Y0078774D01*
X0103626Y0081592D01*
X0104116Y0082082D01*
X0104614Y0083283D01*
X0104614Y0084583D01*
X0104116Y0085785D01*
X0103197Y0086704D01*
X0101995Y0087202D01*
X0101590Y0087202D01*
X0102376Y0087988D01*
X0102376Y0089676D01*
X0105939Y0086113D01*
X0106711Y0085341D01*
X0106711Y0083789D01*
X0106558Y0083637D01*
X0106551Y0081747D01*
X0106711Y0081585D01*
X0106711Y0079418D01*
X0107196Y0078933D01*
X0106711Y0078448D01*
X0106711Y0076265D01*
X0106574Y0076128D01*
X0106574Y0076123D01*
X0106570Y0076119D01*
X0106574Y0075179D01*
X0106574Y0074238D01*
X0106578Y0074234D01*
X0106578Y0074229D01*
X0106711Y0074097D01*
X0106711Y0071938D01*
X0107696Y0070953D01*
X0114994Y0070953D01*
X0115979Y0071938D01*
X0115979Y0072902D01*
X0116040Y0072902D01*
X0118540Y0075402D01*
X0119398Y0075402D01*
X0119622Y0074862D01*
X0121024Y0073460D01*
X0122854Y0072702D01*
X0124836Y0072702D01*
X0126667Y0073460D01*
X0127914Y0074708D01*
X0127914Y0068064D01*
X0118272Y0068064D01*
X0117213Y0067626D01*
X0116403Y0066815D01*
X0114704Y0065116D02*
X0107229Y0065116D01*
X0107381Y0064118D02*
X0106929Y0064118D01*
X0107229Y0068112D02*
X0127914Y0068112D01*
X0127914Y0069110D02*
X0107229Y0069110D01*
X0107229Y0070109D02*
X0127914Y0070109D01*
X0127914Y0071107D02*
X0115149Y0071107D01*
X0115979Y0072106D02*
X0127914Y0072106D01*
X0127914Y0073104D02*
X0125807Y0073104D01*
X0127309Y0074103D02*
X0127914Y0074103D01*
X0130095Y0074103D02*
X0130381Y0074103D01*
X0130095Y0074389D02*
X0131024Y0073460D01*
X0132854Y0072702D01*
X0134836Y0072702D01*
X0136667Y0073460D01*
X0138068Y0074862D01*
X0138826Y0076692D01*
X0138826Y0078674D01*
X0138068Y0080505D01*
X0136667Y0081906D01*
X0134836Y0082664D01*
X0132854Y0082664D01*
X0131024Y0081906D01*
X0130095Y0080977D01*
X0130095Y0094389D01*
X0131024Y0093460D01*
X0132854Y0092702D01*
X0134836Y0092702D01*
X0136667Y0093460D01*
X0138068Y0094862D01*
X0138826Y0096692D01*
X0138826Y0098674D01*
X0138068Y0100505D01*
X0136667Y0101906D01*
X0134836Y0102664D01*
X0132854Y0102664D01*
X0131024Y0101906D01*
X0130095Y0100977D01*
X0130095Y0104389D01*
X0131024Y0103460D01*
X0132854Y0102702D01*
X0134836Y0102702D01*
X0136667Y0103460D01*
X0138068Y0104862D01*
X0138826Y0106692D01*
X0138826Y0108674D01*
X0138068Y0110505D01*
X0136667Y0111906D01*
X0134836Y0112664D01*
X0132854Y0112664D01*
X0131024Y0111906D01*
X0130095Y0110977D01*
X0130095Y0116889D01*
X0131024Y0115960D01*
X0132854Y0115202D01*
X0134836Y0115202D01*
X0136667Y0115960D01*
X0138068Y0117362D01*
X0138826Y0119192D01*
X0138826Y0121174D01*
X0138068Y0123005D01*
X0136667Y0124406D01*
X0134836Y0125164D01*
X0132854Y0125164D01*
X0131024Y0124406D01*
X0130095Y0123477D01*
X0130095Y0123933D01*
X0127595Y0125183D01*
X0125095Y0125183D01*
X0125095Y0132683D01*
X0140127Y0132683D01*
X0140127Y0022652D01*
X0130401Y0022652D01*
X0130401Y0031583D01*
X0131024Y0030960D01*
X0132854Y0030202D01*
X0134836Y0030202D01*
X0136667Y0030960D01*
X0138068Y0032362D01*
X0138826Y0034192D01*
X0138826Y0036174D01*
X0138068Y0038005D01*
X0136667Y0039406D01*
X0134836Y0040164D01*
X0132854Y0040164D01*
X0131024Y0039406D01*
X0130401Y0038783D01*
X0130401Y0062962D01*
X0130095Y0063268D01*
X0130095Y0074389D01*
X0130095Y0073104D02*
X0131883Y0073104D01*
X0130095Y0072106D02*
X0140127Y0072106D01*
X0140127Y0073104D02*
X0135807Y0073104D01*
X0137309Y0074103D02*
X0140127Y0074103D01*
X0140127Y0075101D02*
X0138167Y0075101D01*
X0138581Y0076100D02*
X0140127Y0076100D01*
X0140127Y0077098D02*
X0138826Y0077098D01*
X0138826Y0078097D02*
X0140127Y0078097D01*
X0140127Y0079095D02*
X0138652Y0079095D01*
X0138238Y0080094D02*
X0140127Y0080094D01*
X0140127Y0081092D02*
X0137480Y0081092D01*
X0136220Y0082091D02*
X0140127Y0082091D01*
X0140127Y0083089D02*
X0130095Y0083089D01*
X0130095Y0082091D02*
X0131470Y0082091D01*
X0130210Y0081092D02*
X0130095Y0081092D01*
X0130095Y0084088D02*
X0140127Y0084088D01*
X0140127Y0085086D02*
X0130095Y0085086D01*
X0130095Y0086085D02*
X0140127Y0086085D01*
X0140127Y0087083D02*
X0130095Y0087083D01*
X0130095Y0088082D02*
X0140127Y0088082D01*
X0140127Y0089080D02*
X0130095Y0089080D01*
X0130095Y0090079D02*
X0140127Y0090079D01*
X0140127Y0091077D02*
X0130095Y0091077D01*
X0130095Y0092076D02*
X0140127Y0092076D01*
X0140127Y0093074D02*
X0135735Y0093074D01*
X0137279Y0094073D02*
X0140127Y0094073D01*
X0140127Y0095071D02*
X0138155Y0095071D01*
X0138568Y0096070D02*
X0140127Y0096070D01*
X0140127Y0097068D02*
X0138826Y0097068D01*
X0138826Y0098067D02*
X0140127Y0098067D01*
X0140127Y0099065D02*
X0138664Y0099065D01*
X0138250Y0100064D02*
X0140127Y0100064D01*
X0140127Y0101062D02*
X0137510Y0101062D01*
X0136292Y0102061D02*
X0140127Y0102061D01*
X0140127Y0103060D02*
X0135699Y0103060D01*
X0137264Y0104058D02*
X0140127Y0104058D01*
X0140127Y0105057D02*
X0138149Y0105057D01*
X0138562Y0106055D02*
X0140127Y0106055D01*
X0140127Y0107054D02*
X0138826Y0107054D01*
X0138826Y0108052D02*
X0140127Y0108052D01*
X0140127Y0109051D02*
X0138670Y0109051D01*
X0138257Y0110049D02*
X0140127Y0110049D01*
X0140127Y0111048D02*
X0137525Y0111048D01*
X0136328Y0112046D02*
X0140127Y0112046D01*
X0140127Y0113045D02*
X0130095Y0113045D01*
X0130095Y0114043D02*
X0140127Y0114043D01*
X0140127Y0115042D02*
X0130095Y0115042D01*
X0130095Y0116040D02*
X0130944Y0116040D01*
X0127914Y0116040D02*
X0116163Y0116040D01*
X0116572Y0116450D02*
X0116572Y0118433D01*
X0123744Y0118433D01*
X0124729Y0119418D01*
X0124729Y0123002D01*
X0127080Y0123002D01*
X0127914Y0122585D01*
X0127914Y0089964D01*
X0126650Y0089964D01*
X0125864Y0089178D01*
X0125864Y0089583D01*
X0125366Y0090785D01*
X0124447Y0091704D01*
X0123245Y0092202D01*
X0121945Y0092202D01*
X0120744Y0091704D01*
X0119824Y0090785D01*
X0119327Y0089583D01*
X0119327Y0089516D01*
X0119150Y0089339D01*
X0109165Y0089339D01*
X0105142Y0093362D01*
X0105142Y0099878D01*
X0104879Y0100141D01*
X0104879Y0100833D01*
X0104382Y0102035D01*
X0103462Y0102954D01*
X0102261Y0103452D01*
X0101126Y0103452D01*
X0101126Y0111128D01*
X0100900Y0111354D01*
X0101947Y0111787D01*
X0102436Y0112277D01*
X0104004Y0112277D01*
X0104494Y0111787D01*
X0105695Y0111290D01*
X0106610Y0111290D01*
X0106610Y0108576D01*
X0107595Y0107591D01*
X0115588Y0107591D01*
X0116572Y0108576D01*
X0116572Y0113168D01*
X0115588Y0114153D01*
X0109614Y0114153D01*
X0109614Y0115208D01*
X0109507Y0115465D01*
X0115588Y0115465D01*
X0116572Y0116450D01*
X0116572Y0117039D02*
X0127914Y0117039D01*
X0127914Y0118037D02*
X0116572Y0118037D01*
X0115698Y0114043D02*
X0127914Y0114043D01*
X0127914Y0113045D02*
X0116572Y0113045D01*
X0116572Y0112046D02*
X0127914Y0112046D01*
X0127914Y0111048D02*
X0116572Y0111048D01*
X0116572Y0110049D02*
X0127914Y0110049D01*
X0127914Y0109051D02*
X0116572Y0109051D01*
X0116049Y0108052D02*
X0127914Y0108052D01*
X0127914Y0107054D02*
X0101126Y0107054D01*
X0101126Y0108052D02*
X0107134Y0108052D01*
X0106610Y0109051D02*
X0101126Y0109051D01*
X0101126Y0110049D02*
X0106610Y0110049D01*
X0106610Y0111048D02*
X0101126Y0111048D01*
X0102206Y0112046D02*
X0104235Y0112046D01*
X0107595Y0106279D02*
X0106610Y0105294D01*
X0106610Y0100702D01*
X0107595Y0099717D01*
X0115588Y0099717D01*
X0116572Y0100702D01*
X0116572Y0105294D01*
X0115588Y0106279D01*
X0107595Y0106279D01*
X0107371Y0106055D02*
X0101126Y0106055D01*
X0101126Y0105057D02*
X0106610Y0105057D01*
X0106610Y0104058D02*
X0101126Y0104058D01*
X0103208Y0103060D02*
X0106610Y0103060D01*
X0106610Y0102061D02*
X0104355Y0102061D01*
X0104784Y0101062D02*
X0106610Y0101062D01*
X0107248Y0100064D02*
X0104956Y0100064D01*
X0105142Y0099065D02*
X0127914Y0099065D01*
X0127914Y0098067D02*
X0105142Y0098067D01*
X0105142Y0097068D02*
X0127914Y0097068D01*
X0127914Y0096070D02*
X0105142Y0096070D01*
X0105142Y0095071D02*
X0127914Y0095071D01*
X0127914Y0094073D02*
X0105142Y0094073D01*
X0105430Y0093074D02*
X0127914Y0093074D01*
X0127914Y0092076D02*
X0123549Y0092076D01*
X0125073Y0091077D02*
X0127914Y0091077D01*
X0127914Y0090079D02*
X0125658Y0090079D01*
X0121642Y0092076D02*
X0106428Y0092076D01*
X0107427Y0091077D02*
X0120117Y0091077D01*
X0119532Y0090079D02*
X0108425Y0090079D01*
X0105967Y0086085D02*
X0103816Y0086085D01*
X0104405Y0085086D02*
X0106711Y0085086D01*
X0106711Y0084088D02*
X0104614Y0084088D01*
X0104533Y0083089D02*
X0106556Y0083089D01*
X0106552Y0082091D02*
X0104120Y0082091D01*
X0103626Y0081092D02*
X0106711Y0081092D01*
X0106711Y0080094D02*
X0103626Y0080094D01*
X0103626Y0079095D02*
X0107034Y0079095D01*
X0106711Y0078097D02*
X0104194Y0078097D01*
X0104607Y0077098D02*
X0106711Y0077098D01*
X0106570Y0076100D02*
X0104614Y0076100D01*
X0104331Y0075101D02*
X0106574Y0075101D01*
X0106705Y0074103D02*
X0103637Y0074103D01*
X0101389Y0072106D02*
X0106711Y0072106D01*
X0106711Y0073104D02*
X0093735Y0073104D01*
X0095991Y0074103D02*
X0099053Y0074103D01*
X0098359Y0075101D02*
X0096989Y0075101D01*
X0097988Y0076100D02*
X0098077Y0076100D01*
X0094064Y0078628D02*
X0093735Y0078299D01*
X0093735Y0079305D01*
X0092750Y0080289D01*
X0089223Y0080289D01*
X0089995Y0081062D01*
X0089995Y0087966D01*
X0089010Y0088951D01*
X0087053Y0088951D01*
X0086126Y0089878D01*
X0086126Y0106128D01*
X0084790Y0107464D01*
X0084090Y0108165D01*
X0084495Y0108165D01*
X0085697Y0108662D01*
X0086616Y0109582D01*
X0087114Y0110783D01*
X0087114Y0112083D01*
X0086616Y0113285D01*
X0085697Y0114204D01*
X0084495Y0114702D01*
X0083195Y0114702D01*
X0081994Y0114204D01*
X0081504Y0113714D01*
X0081040Y0113714D01*
X0079876Y0114878D01*
X0078540Y0116214D01*
X0072290Y0116214D01*
X0065602Y0122902D01*
X0085400Y0122902D01*
X0086650Y0121652D01*
X0091665Y0121652D01*
X0094165Y0124152D01*
X0095334Y0125321D01*
X0095744Y0124912D01*
X0096945Y0124415D01*
X0098245Y0124415D01*
X0099447Y0124912D01*
X0100366Y0125832D01*
X0100864Y0127033D01*
X0100864Y0128333D01*
X0100366Y0129535D01*
X0099876Y0130024D01*
X0099876Y0136128D01*
X0098540Y0137464D01*
X0094790Y0141214D01*
X0058686Y0141214D01*
X0058197Y0141704D01*
X0056995Y0142202D01*
X0055695Y0142202D01*
X0054494Y0141704D01*
X0053574Y0140785D01*
X0053077Y0139583D01*
X0053077Y0138283D01*
X0053574Y0137082D01*
X0054494Y0136162D01*
X0055695Y0135665D01*
X0056995Y0135665D01*
X0058197Y0136162D01*
X0058686Y0136652D01*
X0092900Y0136652D01*
X0095314Y0134238D01*
X0095314Y0130690D01*
X0093626Y0132378D01*
X0092290Y0133714D01*
X0081186Y0133714D01*
X0080697Y0134204D01*
X0079495Y0134702D01*
X0078195Y0134702D01*
X0077260Y0134314D01*
X0056289Y0134314D01*
X0053666Y0136937D01*
X0053270Y0137101D01*
X0052595Y0137775D01*
X0044876Y0137775D01*
X0044876Y0144152D01*
X0095400Y0144152D01*
X0102814Y0136738D01*
X0102814Y0134238D01*
X0104064Y0132988D01*
X0105400Y0131652D01*
X0107156Y0131652D01*
X0107595Y0131213D01*
X0113211Y0131213D01*
X0113936Y0130488D01*
X0114523Y0129901D01*
X0107595Y0129901D01*
X0106610Y0128916D01*
X0106610Y0126174D01*
X0104150Y0123714D01*
X0094150Y0123714D01*
X0091650Y0121214D01*
X0090314Y0119878D01*
X0090314Y0115488D01*
X0096564Y0109238D01*
X0096564Y0103628D01*
X0095314Y0102378D01*
X0095314Y0096738D01*
X0097814Y0094238D01*
X0097814Y0089878D01*
X0095400Y0087464D01*
X0094064Y0086128D01*
X0094064Y0078628D01*
X0094064Y0079095D02*
X0093735Y0079095D01*
X0094064Y0080094D02*
X0092946Y0080094D01*
X0094064Y0081092D02*
X0089995Y0081092D01*
X0089995Y0082091D02*
X0094064Y0082091D01*
X0094064Y0083089D02*
X0089995Y0083089D01*
X0089995Y0084088D02*
X0094064Y0084088D01*
X0094064Y0085086D02*
X0089995Y0085086D01*
X0089995Y0086085D02*
X0094064Y0086085D01*
X0095019Y0087083D02*
X0089995Y0087083D01*
X0089879Y0088082D02*
X0096018Y0088082D01*
X0097016Y0089080D02*
X0086924Y0089080D01*
X0086126Y0090079D02*
X0097814Y0090079D01*
X0097814Y0091077D02*
X0086126Y0091077D01*
X0086126Y0092076D02*
X0097814Y0092076D01*
X0097814Y0093074D02*
X0086126Y0093074D01*
X0086126Y0094073D02*
X0097814Y0094073D01*
X0096981Y0095071D02*
X0086126Y0095071D01*
X0086126Y0096070D02*
X0095982Y0096070D01*
X0095314Y0097068D02*
X0086126Y0097068D01*
X0086126Y0098067D02*
X0095314Y0098067D01*
X0095314Y0099065D02*
X0086126Y0099065D01*
X0086126Y0100064D02*
X0095314Y0100064D01*
X0095314Y0101062D02*
X0086126Y0101062D01*
X0086126Y0102061D02*
X0095314Y0102061D01*
X0095996Y0103060D02*
X0086126Y0103060D01*
X0086126Y0104058D02*
X0096564Y0104058D01*
X0096564Y0105057D02*
X0086126Y0105057D01*
X0086126Y0106055D02*
X0096564Y0106055D01*
X0096564Y0107054D02*
X0085201Y0107054D01*
X0084202Y0108052D02*
X0096564Y0108052D01*
X0096564Y0109051D02*
X0086085Y0109051D01*
X0086810Y0110049D02*
X0095753Y0110049D01*
X0094755Y0111048D02*
X0087114Y0111048D01*
X0087114Y0112046D02*
X0093756Y0112046D01*
X0092758Y0113045D02*
X0086715Y0113045D01*
X0085857Y0114043D02*
X0091759Y0114043D01*
X0090761Y0115042D02*
X0079713Y0115042D01*
X0080711Y0114043D02*
X0081833Y0114043D01*
X0078714Y0116040D02*
X0090314Y0116040D01*
X0090314Y0117039D02*
X0071465Y0117039D01*
X0070467Y0118037D02*
X0090314Y0118037D01*
X0090314Y0119036D02*
X0069468Y0119036D01*
X0068470Y0120034D02*
X0090470Y0120034D01*
X0091469Y0121033D02*
X0067471Y0121033D01*
X0066473Y0122031D02*
X0086271Y0122031D01*
X0092044Y0122031D02*
X0092467Y0122031D01*
X0093043Y0123030D02*
X0093466Y0123030D01*
X0094041Y0124028D02*
X0104464Y0124028D01*
X0105463Y0125027D02*
X0099561Y0125027D01*
X0100446Y0126025D02*
X0106461Y0126025D01*
X0106610Y0127024D02*
X0100860Y0127024D01*
X0100864Y0128022D02*
X0106610Y0128022D01*
X0106714Y0129021D02*
X0100579Y0129021D01*
X0099881Y0130019D02*
X0114405Y0130019D01*
X0113406Y0131018D02*
X0099876Y0131018D01*
X0099876Y0132016D02*
X0105036Y0132016D01*
X0104037Y0133015D02*
X0099876Y0133015D01*
X0099876Y0134013D02*
X0103039Y0134013D01*
X0102814Y0135012D02*
X0099876Y0135012D01*
X0099876Y0136010D02*
X0102814Y0136010D01*
X0102543Y0137009D02*
X0098995Y0137009D01*
X0097997Y0138007D02*
X0101545Y0138007D01*
X0100546Y0139006D02*
X0096998Y0139006D01*
X0096000Y0140004D02*
X0099548Y0140004D01*
X0098549Y0141003D02*
X0095001Y0141003D01*
X0096552Y0143000D02*
X0044876Y0143000D01*
X0044876Y0143998D02*
X0095554Y0143998D01*
X0097551Y0142001D02*
X0057478Y0142001D01*
X0055212Y0142001D02*
X0044876Y0142001D01*
X0044876Y0141003D02*
X0053793Y0141003D01*
X0053251Y0140004D02*
X0044876Y0140004D01*
X0044876Y0139006D02*
X0053077Y0139006D01*
X0053191Y0138007D02*
X0044876Y0138007D01*
X0040314Y0138007D02*
X0027564Y0138007D01*
X0027564Y0137009D02*
X0040314Y0137009D01*
X0040314Y0136010D02*
X0027564Y0136010D01*
X0027564Y0135012D02*
X0040314Y0135012D01*
X0040314Y0134013D02*
X0027564Y0134013D01*
X0027564Y0133015D02*
X0039701Y0133015D01*
X0040314Y0133628D02*
X0035138Y0128452D01*
X0034445Y0128452D01*
X0033244Y0127954D01*
X0032324Y0127035D01*
X0031827Y0125833D01*
X0031827Y0124533D01*
X0032324Y0123332D01*
X0032421Y0123235D01*
X0030400Y0121214D01*
X0029064Y0119878D01*
X0029064Y0112988D01*
X0031389Y0110663D01*
X0030196Y0110663D01*
X0029211Y0109679D01*
X0029211Y0103168D01*
X0030196Y0102183D01*
X0037494Y0102183D01*
X0038077Y0102765D01*
X0038077Y0102033D01*
X0038574Y0100832D01*
X0039494Y0099912D01*
X0040577Y0099464D01*
X0040577Y0098283D01*
X0041074Y0097082D01*
X0041994Y0096162D01*
X0043195Y0095665D01*
X0043618Y0095665D01*
X0043618Y0092828D01*
X0044603Y0091843D01*
X0052595Y0091843D01*
X0053580Y0092828D01*
X0053580Y0096652D01*
X0056564Y0096652D01*
X0056564Y0088567D01*
X0055580Y0088567D01*
X0055095Y0088082D01*
X0054610Y0088567D01*
X0048100Y0088567D01*
X0047115Y0087582D01*
X0047115Y0086389D01*
X0044790Y0088714D01*
X0038292Y0088714D01*
X0038068Y0089255D01*
X0036667Y0090656D01*
X0034836Y0091414D01*
X0032854Y0091414D01*
X0031024Y0090656D01*
X0029622Y0089255D01*
X0028864Y0087424D01*
X0028864Y0085442D01*
X0029622Y0083612D01*
X0031024Y0082210D01*
X0032854Y0081452D01*
X0034836Y0081452D01*
X0036667Y0082210D01*
X0038068Y0083612D01*
X0038292Y0084152D01*
X0042900Y0084152D01*
X0044064Y0082988D01*
X0045400Y0081652D01*
X0047115Y0081652D01*
X0047115Y0080284D01*
X0048100Y0079299D01*
X0054610Y0079299D01*
X0055095Y0079784D01*
X0055321Y0079558D01*
X0054595Y0078832D01*
X0054595Y0071534D01*
X0055580Y0070549D01*
X0062091Y0070549D01*
X0063075Y0071534D01*
X0063075Y0078832D01*
X0062350Y0079558D01*
X0063075Y0080284D01*
X0063075Y0087582D01*
X0062091Y0088567D01*
X0061126Y0088567D01*
X0061126Y0096738D01*
X0063328Y0098940D01*
X0063077Y0098333D01*
X0063077Y0097033D01*
X0063574Y0095832D01*
X0064494Y0094912D01*
X0065429Y0094525D01*
X0065964Y0093990D01*
X0065964Y0072110D01*
X0066403Y0071051D01*
X0067213Y0070241D01*
X0067653Y0069801D01*
X0068463Y0068991D01*
X0069522Y0068552D01*
X0076402Y0068552D01*
X0076403Y0068551D01*
X0077213Y0067741D01*
X0078272Y0067302D01*
X0081402Y0067302D01*
X0083376Y0065328D01*
X0082684Y0065041D01*
X0081487Y0063844D01*
X0080839Y0062280D01*
X0080839Y0060587D01*
X0081487Y0059022D01*
X0082684Y0057825D01*
X0084249Y0057177D01*
X0085942Y0057177D01*
X0087506Y0057825D01*
X0088703Y0059022D01*
X0089351Y0060587D01*
X0089351Y0062280D01*
X0088824Y0063552D01*
X0093464Y0063552D01*
X0093464Y0060860D01*
X0093903Y0059801D01*
X0095153Y0058551D01*
X0095963Y0057741D01*
X0097022Y0057302D01*
X0097961Y0057302D01*
X0097961Y0056938D01*
X0098946Y0055953D01*
X0106244Y0055953D01*
X0106773Y0056482D01*
X0107499Y0055756D01*
X0115191Y0055756D01*
X0116039Y0056604D01*
X0116039Y0047989D01*
X0027564Y0047989D01*
X0027564Y0155215D01*
X0030413Y0155215D01*
X0028418Y0153220D01*
X0028418Y0148928D01*
X0031453Y0145893D01*
X0035745Y0145893D01*
X0037613Y0147761D01*
X0041947Y0147761D01*
X0041564Y0147378D01*
X0040314Y0146128D01*
X0040314Y0133628D01*
X0038702Y0132016D02*
X0027564Y0132016D01*
X0027564Y0131018D02*
X0037704Y0131018D01*
X0036705Y0130019D02*
X0027564Y0130019D01*
X0027564Y0129021D02*
X0035707Y0129021D01*
X0033409Y0128022D02*
X0027564Y0128022D01*
X0027564Y0127024D02*
X0032320Y0127024D01*
X0031906Y0126025D02*
X0027564Y0126025D01*
X0027564Y0125027D02*
X0031827Y0125027D01*
X0032036Y0124028D02*
X0027564Y0124028D01*
X0027564Y0123030D02*
X0032216Y0123030D01*
X0031217Y0122031D02*
X0027564Y0122031D01*
X0027564Y0121033D02*
X0030219Y0121033D01*
X0029220Y0120034D02*
X0027564Y0120034D01*
X0027564Y0119036D02*
X0029064Y0119036D01*
X0029064Y0118037D02*
X0027564Y0118037D01*
X0027564Y0117039D02*
X0029064Y0117039D01*
X0029064Y0116040D02*
X0027564Y0116040D01*
X0027564Y0115042D02*
X0029064Y0115042D01*
X0029064Y0114043D02*
X0027564Y0114043D01*
X0027564Y0113045D02*
X0029064Y0113045D01*
X0030006Y0112046D02*
X0027564Y0112046D01*
X0027564Y0111048D02*
X0031005Y0111048D01*
X0029582Y0110049D02*
X0027564Y0110049D01*
X0027564Y0109051D02*
X0029211Y0109051D01*
X0029211Y0108052D02*
X0027564Y0108052D01*
X0027564Y0107054D02*
X0029211Y0107054D01*
X0029211Y0106055D02*
X0027564Y0106055D01*
X0027564Y0105057D02*
X0029211Y0105057D01*
X0029211Y0104058D02*
X0027564Y0104058D01*
X0027564Y0103060D02*
X0029320Y0103060D01*
X0027564Y0102061D02*
X0038077Y0102061D01*
X0038479Y0101062D02*
X0027564Y0101062D01*
X0027564Y0100064D02*
X0039342Y0100064D01*
X0040577Y0099065D02*
X0027564Y0099065D01*
X0027564Y0098067D02*
X0040666Y0098067D01*
X0041087Y0097068D02*
X0027564Y0097068D01*
X0027564Y0096070D02*
X0042216Y0096070D01*
X0043618Y0095071D02*
X0027564Y0095071D01*
X0027564Y0094073D02*
X0043618Y0094073D01*
X0043618Y0093074D02*
X0027564Y0093074D01*
X0027564Y0092076D02*
X0044370Y0092076D01*
X0045422Y0088082D02*
X0047615Y0088082D01*
X0047115Y0087083D02*
X0046421Y0087083D01*
X0042964Y0084088D02*
X0038265Y0084088D01*
X0037546Y0083089D02*
X0043963Y0083089D01*
X0044961Y0082091D02*
X0036378Y0082091D01*
X0031312Y0082091D02*
X0027564Y0082091D01*
X0027564Y0083089D02*
X0030145Y0083089D01*
X0029425Y0084088D02*
X0027564Y0084088D01*
X0027564Y0085086D02*
X0029011Y0085086D01*
X0028864Y0086085D02*
X0027564Y0086085D01*
X0027564Y0087083D02*
X0028864Y0087083D01*
X0029137Y0088082D02*
X0027564Y0088082D01*
X0027564Y0089080D02*
X0029550Y0089080D01*
X0030447Y0090079D02*
X0027564Y0090079D01*
X0027564Y0091077D02*
X0032041Y0091077D01*
X0035649Y0091077D02*
X0056564Y0091077D01*
X0056564Y0090079D02*
X0037244Y0090079D01*
X0038140Y0089080D02*
X0056564Y0089080D01*
X0056564Y0092076D02*
X0052828Y0092076D01*
X0053580Y0093074D02*
X0056564Y0093074D01*
X0056564Y0094073D02*
X0053580Y0094073D01*
X0053580Y0095071D02*
X0056564Y0095071D01*
X0056564Y0096070D02*
X0053580Y0096070D01*
X0061126Y0096070D02*
X0063476Y0096070D01*
X0063077Y0097068D02*
X0061456Y0097068D01*
X0062455Y0098067D02*
X0063077Y0098067D01*
X0064334Y0095071D02*
X0061126Y0095071D01*
X0061126Y0094073D02*
X0065881Y0094073D01*
X0065964Y0093074D02*
X0061126Y0093074D01*
X0061126Y0092076D02*
X0065964Y0092076D01*
X0065964Y0091077D02*
X0061126Y0091077D01*
X0061126Y0090079D02*
X0065964Y0090079D01*
X0065964Y0089080D02*
X0061126Y0089080D01*
X0062576Y0088082D02*
X0065964Y0088082D01*
X0065964Y0087083D02*
X0063075Y0087083D01*
X0063075Y0086085D02*
X0065964Y0086085D01*
X0065964Y0085086D02*
X0063075Y0085086D01*
X0063075Y0084088D02*
X0065964Y0084088D01*
X0065964Y0083089D02*
X0063075Y0083089D01*
X0063075Y0082091D02*
X0065964Y0082091D01*
X0065964Y0081092D02*
X0063075Y0081092D01*
X0062885Y0080094D02*
X0065964Y0080094D01*
X0065964Y0079095D02*
X0062812Y0079095D01*
X0063075Y0078097D02*
X0065964Y0078097D01*
X0065964Y0077098D02*
X0063075Y0077098D01*
X0063075Y0076100D02*
X0065964Y0076100D01*
X0065964Y0075101D02*
X0063075Y0075101D01*
X0063075Y0074103D02*
X0065964Y0074103D01*
X0065964Y0073104D02*
X0063075Y0073104D01*
X0063075Y0072106D02*
X0065966Y0072106D01*
X0066379Y0071107D02*
X0062649Y0071107D01*
X0061566Y0068112D02*
X0076842Y0068112D01*
X0081591Y0067113D02*
X0062787Y0067113D01*
X0062866Y0067035D02*
X0061947Y0067954D01*
X0060745Y0068452D01*
X0059445Y0068452D01*
X0058244Y0067954D01*
X0057754Y0067464D01*
X0052900Y0067464D01*
X0047744Y0062308D01*
X0047369Y0062683D01*
X0047854Y0063168D01*
X0047854Y0069679D01*
X0046869Y0070663D01*
X0039571Y0070663D01*
X0038586Y0069679D01*
X0038586Y0068704D01*
X0038479Y0068704D01*
X0038479Y0070722D01*
X0037494Y0071707D01*
X0030196Y0071707D01*
X0029211Y0070722D01*
X0029211Y0063424D01*
X0030196Y0062439D01*
X0037494Y0062439D01*
X0038479Y0063424D01*
X0038479Y0064142D01*
X0038586Y0064142D01*
X0038586Y0063168D01*
X0039071Y0062683D01*
X0038586Y0062198D01*
X0038586Y0055688D01*
X0039571Y0054703D01*
X0046869Y0054703D01*
X0047854Y0055688D01*
X0047854Y0056652D01*
X0048540Y0056652D01*
X0049876Y0057988D01*
X0054790Y0062902D01*
X0057754Y0062902D01*
X0058244Y0062412D01*
X0059445Y0061915D01*
X0060745Y0061915D01*
X0060839Y0061953D01*
X0060839Y0060587D01*
X0061487Y0059022D01*
X0062684Y0057825D01*
X0064249Y0057177D01*
X0065942Y0057177D01*
X0067506Y0057825D01*
X0068703Y0059022D01*
X0069351Y0060587D01*
X0069351Y0062280D01*
X0068703Y0063844D01*
X0067506Y0065041D01*
X0065942Y0065689D01*
X0064249Y0065689D01*
X0063364Y0065322D01*
X0063364Y0065833D01*
X0062866Y0067035D01*
X0063247Y0066115D02*
X0082589Y0066115D01*
X0082866Y0065116D02*
X0067325Y0065116D01*
X0068429Y0064118D02*
X0081761Y0064118D01*
X0081187Y0063119D02*
X0069003Y0063119D01*
X0069351Y0062121D02*
X0080839Y0062121D01*
X0080839Y0061122D02*
X0069351Y0061122D01*
X0069159Y0060124D02*
X0081031Y0060124D01*
X0081445Y0059125D02*
X0068746Y0059125D01*
X0067807Y0058127D02*
X0082383Y0058127D01*
X0087807Y0058127D02*
X0095577Y0058127D01*
X0094579Y0059125D02*
X0088746Y0059125D01*
X0089159Y0060124D02*
X0093769Y0060124D01*
X0093464Y0061122D02*
X0089351Y0061122D01*
X0089351Y0062121D02*
X0093464Y0062121D01*
X0093464Y0063119D02*
X0089003Y0063119D01*
X0097961Y0057128D02*
X0049016Y0057128D01*
X0050015Y0058127D02*
X0062383Y0058127D01*
X0061445Y0059125D02*
X0051013Y0059125D01*
X0052012Y0060124D02*
X0061031Y0060124D01*
X0060839Y0061122D02*
X0053010Y0061122D01*
X0054009Y0062121D02*
X0058948Y0062121D01*
X0058624Y0068112D02*
X0047854Y0068112D01*
X0047854Y0069110D02*
X0068344Y0069110D01*
X0067653Y0069801D02*
X0067653Y0069801D01*
X0067345Y0070109D02*
X0047424Y0070109D01*
X0047854Y0067113D02*
X0052549Y0067113D01*
X0051551Y0066115D02*
X0047854Y0066115D01*
X0047854Y0065116D02*
X0050552Y0065116D01*
X0049554Y0064118D02*
X0047854Y0064118D01*
X0047805Y0063119D02*
X0048555Y0063119D01*
X0047854Y0056129D02*
X0098769Y0056129D01*
X0106421Y0056129D02*
X0107126Y0056129D01*
X0115565Y0056129D02*
X0116039Y0056129D01*
X0116039Y0055131D02*
X0047297Y0055131D01*
X0039143Y0055131D02*
X0027564Y0055131D01*
X0027564Y0056129D02*
X0038586Y0056129D01*
X0038586Y0057128D02*
X0027564Y0057128D01*
X0027564Y0058127D02*
X0038586Y0058127D01*
X0038586Y0059125D02*
X0027564Y0059125D01*
X0027564Y0060124D02*
X0038586Y0060124D01*
X0038586Y0061122D02*
X0027564Y0061122D01*
X0027564Y0062121D02*
X0038586Y0062121D01*
X0038635Y0063119D02*
X0038174Y0063119D01*
X0038479Y0064118D02*
X0038586Y0064118D01*
X0038586Y0069110D02*
X0038479Y0069110D01*
X0038479Y0070109D02*
X0039016Y0070109D01*
X0038094Y0071107D02*
X0055022Y0071107D01*
X0054595Y0072106D02*
X0027564Y0072106D01*
X0027564Y0073104D02*
X0054595Y0073104D01*
X0054595Y0074103D02*
X0027564Y0074103D01*
X0027564Y0075101D02*
X0054595Y0075101D01*
X0054595Y0076100D02*
X0027564Y0076100D01*
X0027564Y0077098D02*
X0054595Y0077098D01*
X0054595Y0078097D02*
X0027564Y0078097D01*
X0027564Y0079095D02*
X0054858Y0079095D01*
X0047305Y0080094D02*
X0027564Y0080094D01*
X0027564Y0081092D02*
X0047115Y0081092D01*
X0029597Y0071107D02*
X0027564Y0071107D01*
X0027564Y0070109D02*
X0029211Y0070109D01*
X0029211Y0069110D02*
X0027564Y0069110D01*
X0027564Y0068112D02*
X0029211Y0068112D01*
X0029211Y0067113D02*
X0027564Y0067113D01*
X0027564Y0066115D02*
X0029211Y0066115D01*
X0029211Y0065116D02*
X0027564Y0065116D01*
X0027564Y0064118D02*
X0029211Y0064118D01*
X0029516Y0063119D02*
X0027564Y0063119D01*
X0027564Y0054132D02*
X0116039Y0054132D01*
X0116039Y0053134D02*
X0027564Y0053134D01*
X0027564Y0052135D02*
X0116039Y0052135D01*
X0116039Y0051137D02*
X0027564Y0051137D01*
X0027564Y0050138D02*
X0116039Y0050138D01*
X0116039Y0049140D02*
X0027564Y0049140D01*
X0027564Y0048141D02*
X0116039Y0048141D01*
X0114836Y0040164D02*
X0112854Y0040164D01*
X0111024Y0039406D01*
X0109622Y0038005D01*
X0108864Y0036174D01*
X0108864Y0034192D01*
X0109622Y0032362D01*
X0111024Y0030960D01*
X0112854Y0030202D01*
X0114836Y0030202D01*
X0116667Y0030960D01*
X0118068Y0032362D01*
X0118826Y0034192D01*
X0118826Y0036174D01*
X0118068Y0038005D01*
X0116667Y0039406D01*
X0114836Y0040164D01*
X0114862Y0040153D02*
X0122828Y0040153D01*
X0124862Y0040153D02*
X0128220Y0040153D01*
X0128220Y0039155D02*
X0126918Y0039155D01*
X0127916Y0038156D02*
X0128220Y0038156D01*
X0130401Y0039155D02*
X0130773Y0039155D01*
X0130401Y0040153D02*
X0132828Y0040153D01*
X0134862Y0040153D02*
X0140127Y0040153D01*
X0140127Y0039155D02*
X0136918Y0039155D01*
X0137916Y0038156D02*
X0140127Y0038156D01*
X0140127Y0037158D02*
X0138419Y0037158D01*
X0138826Y0036159D02*
X0140127Y0036159D01*
X0140127Y0035161D02*
X0138826Y0035161D01*
X0138814Y0034162D02*
X0140127Y0034162D01*
X0140127Y0033164D02*
X0138400Y0033164D01*
X0137872Y0032165D02*
X0140127Y0032165D01*
X0140127Y0031167D02*
X0136873Y0031167D01*
X0140127Y0030168D02*
X0130401Y0030168D01*
X0130401Y0029170D02*
X0140127Y0029170D01*
X0140127Y0028171D02*
X0130401Y0028171D01*
X0130401Y0027173D02*
X0140127Y0027173D01*
X0140127Y0026174D02*
X0130401Y0026174D01*
X0130401Y0025176D02*
X0140127Y0025176D01*
X0140127Y0024177D02*
X0130401Y0024177D01*
X0130401Y0023179D02*
X0140127Y0023179D01*
X0130817Y0031167D02*
X0130401Y0031167D01*
X0128220Y0031167D02*
X0126873Y0031167D01*
X0127872Y0032165D02*
X0128220Y0032165D01*
X0128220Y0030168D02*
X0027564Y0030168D01*
X0027564Y0029170D02*
X0128220Y0029170D01*
X0128220Y0028171D02*
X0027564Y0028171D01*
X0027564Y0027173D02*
X0128220Y0027173D01*
X0128220Y0026174D02*
X0027564Y0026174D01*
X0027564Y0025176D02*
X0128220Y0025176D01*
X0128220Y0024177D02*
X0027564Y0024177D01*
X0027564Y0023179D02*
X0128220Y0023179D01*
X0120817Y0031167D02*
X0116873Y0031167D01*
X0117872Y0032165D02*
X0119819Y0032165D01*
X0119290Y0033164D02*
X0118400Y0033164D01*
X0118814Y0034162D02*
X0118876Y0034162D01*
X0118864Y0035161D02*
X0118826Y0035161D01*
X0118826Y0036159D02*
X0118864Y0036159D01*
X0119272Y0037158D02*
X0118419Y0037158D01*
X0117916Y0038156D02*
X0119774Y0038156D01*
X0120773Y0039155D02*
X0116918Y0039155D01*
X0112828Y0040153D02*
X0104862Y0040153D01*
X0104836Y0040164D02*
X0102854Y0040164D01*
X0101024Y0039406D01*
X0099622Y0038005D01*
X0098864Y0036174D01*
X0098864Y0034192D01*
X0099622Y0032362D01*
X0101024Y0030960D01*
X0102854Y0030202D01*
X0104836Y0030202D01*
X0106667Y0030960D01*
X0108068Y0032362D01*
X0108826Y0034192D01*
X0108826Y0036174D01*
X0108068Y0038005D01*
X0106667Y0039406D01*
X0104836Y0040164D01*
X0102828Y0040153D02*
X0094862Y0040153D01*
X0094836Y0040164D02*
X0092854Y0040164D01*
X0091024Y0039406D01*
X0089622Y0038005D01*
X0088864Y0036174D01*
X0088864Y0034192D01*
X0089622Y0032362D01*
X0091024Y0030960D01*
X0092854Y0030202D01*
X0094836Y0030202D01*
X0096667Y0030960D01*
X0098068Y0032362D01*
X0098826Y0034192D01*
X0098826Y0036174D01*
X0098068Y0038005D01*
X0096667Y0039406D01*
X0094836Y0040164D01*
X0092828Y0040153D02*
X0084862Y0040153D01*
X0084836Y0040164D02*
X0082854Y0040164D01*
X0081024Y0039406D01*
X0079622Y0038005D01*
X0078864Y0036174D01*
X0078864Y0034192D01*
X0079622Y0032362D01*
X0081024Y0030960D01*
X0082854Y0030202D01*
X0084836Y0030202D01*
X0086667Y0030960D01*
X0088068Y0032362D01*
X0088826Y0034192D01*
X0088826Y0036174D01*
X0088068Y0038005D01*
X0086667Y0039406D01*
X0084836Y0040164D01*
X0082828Y0040153D02*
X0074862Y0040153D01*
X0074836Y0040164D02*
X0072854Y0040164D01*
X0071024Y0039406D01*
X0069622Y0038005D01*
X0068864Y0036174D01*
X0068864Y0034192D01*
X0069622Y0032362D01*
X0071024Y0030960D01*
X0072854Y0030202D01*
X0074836Y0030202D01*
X0076667Y0030960D01*
X0078068Y0032362D01*
X0078826Y0034192D01*
X0078826Y0036174D01*
X0078068Y0038005D01*
X0076667Y0039406D01*
X0074836Y0040164D01*
X0072828Y0040153D02*
X0064862Y0040153D01*
X0064836Y0040164D02*
X0066667Y0039406D01*
X0068068Y0038005D01*
X0068826Y0036174D01*
X0068826Y0034192D01*
X0068068Y0032362D01*
X0066667Y0030960D01*
X0064836Y0030202D01*
X0062854Y0030202D01*
X0061024Y0030960D01*
X0059622Y0032362D01*
X0058864Y0034192D01*
X0058864Y0036174D01*
X0059622Y0038005D01*
X0061024Y0039406D01*
X0062854Y0040164D01*
X0064836Y0040164D01*
X0062828Y0040153D02*
X0054862Y0040153D01*
X0054836Y0040164D02*
X0052854Y0040164D01*
X0051024Y0039406D01*
X0049622Y0038005D01*
X0048864Y0036174D01*
X0048864Y0034192D01*
X0049622Y0032362D01*
X0051024Y0030960D01*
X0052854Y0030202D01*
X0054836Y0030202D01*
X0056667Y0030960D01*
X0058068Y0032362D01*
X0058826Y0034192D01*
X0058826Y0036174D01*
X0058068Y0038005D01*
X0056667Y0039406D01*
X0054836Y0040164D01*
X0056918Y0039155D02*
X0060773Y0039155D01*
X0059774Y0038156D02*
X0057916Y0038156D01*
X0058419Y0037158D02*
X0059272Y0037158D01*
X0058864Y0036159D02*
X0058826Y0036159D01*
X0058826Y0035161D02*
X0058864Y0035161D01*
X0058876Y0034162D02*
X0058814Y0034162D01*
X0058400Y0033164D02*
X0059290Y0033164D01*
X0059819Y0032165D02*
X0057872Y0032165D01*
X0056873Y0031167D02*
X0060817Y0031167D01*
X0066873Y0031167D02*
X0070817Y0031167D01*
X0069819Y0032165D02*
X0067872Y0032165D01*
X0068400Y0033164D02*
X0069290Y0033164D01*
X0068876Y0034162D02*
X0068814Y0034162D01*
X0068826Y0035161D02*
X0068864Y0035161D01*
X0068826Y0036159D02*
X0068864Y0036159D01*
X0069272Y0037158D02*
X0068419Y0037158D01*
X0067916Y0038156D02*
X0069774Y0038156D01*
X0070773Y0039155D02*
X0066918Y0039155D01*
X0076918Y0039155D02*
X0080773Y0039155D01*
X0079774Y0038156D02*
X0077916Y0038156D01*
X0078419Y0037158D02*
X0079272Y0037158D01*
X0078864Y0036159D02*
X0078826Y0036159D01*
X0078826Y0035161D02*
X0078864Y0035161D01*
X0078876Y0034162D02*
X0078814Y0034162D01*
X0078400Y0033164D02*
X0079290Y0033164D01*
X0079819Y0032165D02*
X0077872Y0032165D01*
X0076873Y0031167D02*
X0080817Y0031167D01*
X0086873Y0031167D02*
X0090817Y0031167D01*
X0089819Y0032165D02*
X0087872Y0032165D01*
X0088400Y0033164D02*
X0089290Y0033164D01*
X0088876Y0034162D02*
X0088814Y0034162D01*
X0088826Y0035161D02*
X0088864Y0035161D01*
X0088826Y0036159D02*
X0088864Y0036159D01*
X0089272Y0037158D02*
X0088419Y0037158D01*
X0087916Y0038156D02*
X0089774Y0038156D01*
X0090773Y0039155D02*
X0086918Y0039155D01*
X0096918Y0039155D02*
X0100773Y0039155D01*
X0099774Y0038156D02*
X0097916Y0038156D01*
X0098419Y0037158D02*
X0099272Y0037158D01*
X0098864Y0036159D02*
X0098826Y0036159D01*
X0098826Y0035161D02*
X0098864Y0035161D01*
X0098876Y0034162D02*
X0098814Y0034162D01*
X0098400Y0033164D02*
X0099290Y0033164D01*
X0099819Y0032165D02*
X0097872Y0032165D01*
X0096873Y0031167D02*
X0100817Y0031167D01*
X0106873Y0031167D02*
X0110817Y0031167D01*
X0109819Y0032165D02*
X0107872Y0032165D01*
X0108400Y0033164D02*
X0109290Y0033164D01*
X0108876Y0034162D02*
X0108814Y0034162D01*
X0108826Y0035161D02*
X0108864Y0035161D01*
X0108826Y0036159D02*
X0108864Y0036159D01*
X0109272Y0037158D02*
X0108419Y0037158D01*
X0107916Y0038156D02*
X0109774Y0038156D01*
X0110773Y0039155D02*
X0106918Y0039155D01*
X0128220Y0041152D02*
X0027564Y0041152D01*
X0027564Y0042150D02*
X0128220Y0042150D01*
X0128220Y0043149D02*
X0027564Y0043149D01*
X0027564Y0044147D02*
X0128220Y0044147D01*
X0130401Y0044147D02*
X0140127Y0044147D01*
X0140127Y0043149D02*
X0130401Y0043149D01*
X0130401Y0042150D02*
X0140127Y0042150D01*
X0140127Y0041152D02*
X0130401Y0041152D01*
X0130401Y0045146D02*
X0140127Y0045146D01*
X0140127Y0046144D02*
X0130401Y0046144D01*
X0130401Y0047143D02*
X0140127Y0047143D01*
X0140127Y0048141D02*
X0130401Y0048141D01*
X0130401Y0049140D02*
X0140127Y0049140D01*
X0140127Y0050138D02*
X0130401Y0050138D01*
X0130401Y0051137D02*
X0140127Y0051137D01*
X0140127Y0052135D02*
X0130401Y0052135D01*
X0130401Y0053134D02*
X0140127Y0053134D01*
X0140127Y0054132D02*
X0130401Y0054132D01*
X0130401Y0055131D02*
X0140127Y0055131D01*
X0140127Y0056129D02*
X0130401Y0056129D01*
X0130401Y0057128D02*
X0140127Y0057128D01*
X0140127Y0058127D02*
X0130401Y0058127D01*
X0130401Y0059125D02*
X0140127Y0059125D01*
X0140127Y0060124D02*
X0130401Y0060124D01*
X0130401Y0061122D02*
X0140127Y0061122D01*
X0140127Y0062121D02*
X0130401Y0062121D01*
X0130244Y0063119D02*
X0140127Y0063119D01*
X0140127Y0064118D02*
X0130095Y0064118D01*
X0130095Y0065116D02*
X0140127Y0065116D01*
X0140127Y0066115D02*
X0130095Y0066115D01*
X0130095Y0067113D02*
X0140127Y0067113D01*
X0140127Y0068112D02*
X0130095Y0068112D01*
X0130095Y0069110D02*
X0140127Y0069110D01*
X0140127Y0070109D02*
X0130095Y0070109D01*
X0130095Y0071107D02*
X0140127Y0071107D01*
X0121883Y0073104D02*
X0116242Y0073104D01*
X0117241Y0074103D02*
X0120381Y0074103D01*
X0119523Y0075101D02*
X0118239Y0075101D01*
X0107542Y0071107D02*
X0107050Y0071107D01*
X0104969Y0087083D02*
X0102281Y0087083D01*
X0102376Y0088082D02*
X0103970Y0088082D01*
X0102972Y0089080D02*
X0102376Y0089080D01*
X0115935Y0100064D02*
X0127914Y0100064D01*
X0127914Y0101062D02*
X0116572Y0101062D01*
X0116572Y0102061D02*
X0127914Y0102061D01*
X0127914Y0103060D02*
X0116572Y0103060D01*
X0116572Y0104058D02*
X0127914Y0104058D01*
X0127914Y0105057D02*
X0116572Y0105057D01*
X0115812Y0106055D02*
X0127914Y0106055D01*
X0130095Y0104058D02*
X0130426Y0104058D01*
X0130095Y0103060D02*
X0131991Y0103060D01*
X0131398Y0102061D02*
X0130095Y0102061D01*
X0130095Y0101062D02*
X0130180Y0101062D01*
X0130095Y0094073D02*
X0130411Y0094073D01*
X0130095Y0093074D02*
X0131955Y0093074D01*
X0130165Y0111048D02*
X0130095Y0111048D01*
X0130095Y0112046D02*
X0131362Y0112046D01*
X0127914Y0115042D02*
X0109614Y0115042D01*
X0124347Y0119036D02*
X0127914Y0119036D01*
X0127914Y0120034D02*
X0124729Y0120034D01*
X0124729Y0121033D02*
X0127914Y0121033D01*
X0127914Y0122031D02*
X0124729Y0122031D01*
X0125095Y0126025D02*
X0140127Y0126025D01*
X0140127Y0125027D02*
X0135168Y0125027D01*
X0137044Y0124028D02*
X0140127Y0124028D01*
X0140127Y0123030D02*
X0138043Y0123030D01*
X0138471Y0122031D02*
X0140127Y0122031D01*
X0140127Y0121033D02*
X0138826Y0121033D01*
X0138826Y0120034D02*
X0140127Y0120034D01*
X0140127Y0119036D02*
X0138761Y0119036D01*
X0138348Y0118037D02*
X0140127Y0118037D01*
X0140127Y0117039D02*
X0137745Y0117039D01*
X0136747Y0116040D02*
X0140127Y0116040D01*
X0140127Y0127024D02*
X0125095Y0127024D01*
X0125095Y0128022D02*
X0140127Y0128022D01*
X0140127Y0129021D02*
X0125095Y0129021D01*
X0125095Y0130019D02*
X0140127Y0130019D01*
X0140127Y0131018D02*
X0125095Y0131018D01*
X0125095Y0132016D02*
X0140127Y0132016D01*
X0140127Y0134864D02*
X0135560Y0134864D01*
X0134836Y0135164D01*
X0132854Y0135164D01*
X0132130Y0134864D01*
X0124192Y0134864D01*
X0123752Y0134425D01*
X0123744Y0134433D01*
X0116572Y0134433D01*
X0116572Y0136790D01*
X0115588Y0137775D01*
X0107595Y0137775D01*
X0107376Y0137557D01*
X0107376Y0138628D01*
X0106342Y0139662D01*
X0106822Y0139860D01*
X0107595Y0139087D01*
X0115588Y0139087D01*
X0116572Y0140072D01*
X0116572Y0140087D01*
X0118215Y0140087D01*
X0119081Y0140953D01*
X0123744Y0140953D01*
X0124729Y0141938D01*
X0124729Y0148448D01*
X0123744Y0149433D01*
X0116446Y0149433D01*
X0115461Y0148448D01*
X0115461Y0145649D01*
X0107595Y0145649D01*
X0107173Y0145227D01*
X0106947Y0145454D01*
X0105745Y0145952D01*
X0104445Y0145952D01*
X0103244Y0145454D01*
X0102324Y0144535D01*
X0102074Y0143930D01*
X0097290Y0148714D01*
X0095400Y0148714D01*
X0053580Y0148714D01*
X0053580Y0152538D01*
X0052595Y0153523D01*
X0044603Y0153523D01*
X0043803Y0152723D01*
X0038780Y0152723D01*
X0038780Y0153220D01*
X0036785Y0155215D01*
X0140127Y0155215D01*
X0140127Y0134864D01*
X0140127Y0135012D02*
X0135204Y0135012D01*
X0134836Y0135202D02*
X0136667Y0135960D01*
X0138068Y0137362D01*
X0138826Y0139192D01*
X0138826Y0141174D01*
X0138068Y0143005D01*
X0136667Y0144406D01*
X0134836Y0145164D01*
X0132854Y0145164D01*
X0131024Y0144406D01*
X0129622Y0143005D01*
X0128864Y0141174D01*
X0128864Y0139192D01*
X0129622Y0137362D01*
X0131024Y0135960D01*
X0132854Y0135202D01*
X0134836Y0135202D01*
X0136717Y0136010D02*
X0140127Y0136010D01*
X0140127Y0137009D02*
X0137715Y0137009D01*
X0138335Y0138007D02*
X0140127Y0138007D01*
X0140127Y0139006D02*
X0138749Y0139006D01*
X0138826Y0140004D02*
X0140127Y0140004D01*
X0140127Y0141003D02*
X0138826Y0141003D01*
X0138483Y0142001D02*
X0140127Y0142001D01*
X0140127Y0143000D02*
X0138070Y0143000D01*
X0137074Y0143998D02*
X0140127Y0143998D01*
X0140127Y0144997D02*
X0135240Y0144997D01*
X0134836Y0145202D02*
X0136667Y0145960D01*
X0138068Y0147362D01*
X0138826Y0149192D01*
X0138826Y0151174D01*
X0138068Y0153005D01*
X0136667Y0154406D01*
X0134836Y0155164D01*
X0132854Y0155164D01*
X0131024Y0154406D01*
X0129622Y0153005D01*
X0128864Y0151174D01*
X0128864Y0149192D01*
X0129622Y0147362D01*
X0131024Y0145960D01*
X0132854Y0145202D01*
X0134836Y0145202D01*
X0136702Y0145995D02*
X0140127Y0145995D01*
X0140127Y0146994D02*
X0137700Y0146994D01*
X0138329Y0147993D02*
X0140127Y0147993D01*
X0140127Y0148991D02*
X0138743Y0148991D01*
X0138826Y0149990D02*
X0140127Y0149990D01*
X0140127Y0150988D02*
X0138826Y0150988D01*
X0138490Y0151987D02*
X0140127Y0151987D01*
X0140127Y0152985D02*
X0138076Y0152985D01*
X0137089Y0153984D02*
X0140127Y0153984D01*
X0140127Y0154982D02*
X0135275Y0154982D01*
X0132415Y0154982D02*
X0037018Y0154982D01*
X0038016Y0153984D02*
X0130601Y0153984D01*
X0129614Y0152985D02*
X0053134Y0152985D01*
X0053580Y0151987D02*
X0129201Y0151987D01*
X0128864Y0150988D02*
X0053580Y0150988D01*
X0053580Y0149990D02*
X0128864Y0149990D01*
X0128947Y0148991D02*
X0124186Y0148991D01*
X0124729Y0147993D02*
X0129361Y0147993D01*
X0129990Y0146994D02*
X0124729Y0146994D01*
X0124729Y0145995D02*
X0130988Y0145995D01*
X0132451Y0144997D02*
X0124729Y0144997D01*
X0124729Y0143998D02*
X0130616Y0143998D01*
X0129620Y0143000D02*
X0124729Y0143000D01*
X0124729Y0142001D02*
X0129207Y0142001D01*
X0128864Y0141003D02*
X0123794Y0141003D01*
X0128864Y0140004D02*
X0116505Y0140004D01*
X0116354Y0137009D02*
X0129975Y0137009D01*
X0129355Y0138007D02*
X0107376Y0138007D01*
X0106998Y0139006D02*
X0128941Y0139006D01*
X0130973Y0136010D02*
X0116572Y0136010D01*
X0116572Y0135012D02*
X0132487Y0135012D01*
X0132523Y0125027D02*
X0127908Y0125027D01*
X0129905Y0124028D02*
X0130646Y0124028D01*
X0115461Y0145995D02*
X0100009Y0145995D01*
X0101007Y0144997D02*
X0102787Y0144997D01*
X0102102Y0143998D02*
X0102006Y0143998D01*
X0099010Y0146994D02*
X0115461Y0146994D01*
X0115461Y0147993D02*
X0098012Y0147993D01*
X0093542Y0136010D02*
X0057830Y0136010D01*
X0055591Y0135012D02*
X0094540Y0135012D01*
X0095314Y0134013D02*
X0080887Y0134013D01*
X0092989Y0133015D02*
X0095314Y0133015D01*
X0095314Y0132016D02*
X0093988Y0132016D01*
X0094986Y0131018D02*
X0095314Y0131018D01*
X0095040Y0125027D02*
X0095629Y0125027D01*
X0116004Y0148991D02*
X0053580Y0148991D01*
X0044065Y0152985D02*
X0038780Y0152985D01*
X0036846Y0146994D02*
X0041180Y0146994D01*
X0040314Y0145995D02*
X0035848Y0145995D01*
X0031350Y0145995D02*
X0027564Y0145995D01*
X0027564Y0144997D02*
X0040314Y0144997D01*
X0040314Y0143998D02*
X0027564Y0143998D01*
X0027564Y0143000D02*
X0040314Y0143000D01*
X0040314Y0142001D02*
X0027564Y0142001D01*
X0027564Y0141003D02*
X0040314Y0141003D01*
X0040314Y0140004D02*
X0027564Y0140004D01*
X0027564Y0139006D02*
X0040314Y0139006D01*
X0030352Y0146994D02*
X0027564Y0146994D01*
X0027564Y0147993D02*
X0029353Y0147993D01*
X0028418Y0148991D02*
X0027564Y0148991D01*
X0027564Y0149990D02*
X0028418Y0149990D01*
X0028418Y0150988D02*
X0027564Y0150988D01*
X0027564Y0151987D02*
X0028418Y0151987D01*
X0028418Y0152985D02*
X0027564Y0152985D01*
X0027564Y0153984D02*
X0029182Y0153984D01*
X0030180Y0154982D02*
X0027564Y0154982D01*
X0053491Y0137009D02*
X0053647Y0137009D01*
X0054592Y0136010D02*
X0054860Y0136010D01*
X0067213Y0070241D02*
X0067213Y0070241D01*
X0052828Y0040153D02*
X0044862Y0040153D01*
X0044836Y0040164D02*
X0042854Y0040164D01*
X0041024Y0039406D01*
X0039622Y0038005D01*
X0038864Y0036174D01*
X0038864Y0034192D01*
X0039622Y0032362D01*
X0041024Y0030960D01*
X0042854Y0030202D01*
X0044836Y0030202D01*
X0046667Y0030960D01*
X0048068Y0032362D01*
X0048826Y0034192D01*
X0048826Y0036174D01*
X0048068Y0038005D01*
X0046667Y0039406D01*
X0044836Y0040164D01*
X0046918Y0039155D02*
X0050773Y0039155D01*
X0049774Y0038156D02*
X0047916Y0038156D01*
X0048419Y0037158D02*
X0049272Y0037158D01*
X0048864Y0036159D02*
X0048826Y0036159D01*
X0048826Y0035161D02*
X0048864Y0035161D01*
X0048876Y0034162D02*
X0048814Y0034162D01*
X0048400Y0033164D02*
X0049290Y0033164D01*
X0049819Y0032165D02*
X0047872Y0032165D01*
X0046873Y0031167D02*
X0050817Y0031167D01*
X0042828Y0040153D02*
X0034862Y0040153D01*
X0034836Y0040164D02*
X0032854Y0040164D01*
X0031024Y0039406D01*
X0029622Y0038005D01*
X0028864Y0036174D01*
X0028864Y0034192D01*
X0029622Y0032362D01*
X0031024Y0030960D01*
X0032854Y0030202D01*
X0034836Y0030202D01*
X0036667Y0030960D01*
X0038068Y0032362D01*
X0038826Y0034192D01*
X0038826Y0036174D01*
X0038068Y0038005D01*
X0036667Y0039406D01*
X0034836Y0040164D01*
X0036918Y0039155D02*
X0040773Y0039155D01*
X0039774Y0038156D02*
X0037916Y0038156D01*
X0038419Y0037158D02*
X0039272Y0037158D01*
X0038864Y0036159D02*
X0038826Y0036159D01*
X0038826Y0035161D02*
X0038864Y0035161D01*
X0038876Y0034162D02*
X0038814Y0034162D01*
X0038400Y0033164D02*
X0039290Y0033164D01*
X0039819Y0032165D02*
X0037872Y0032165D01*
X0036873Y0031167D02*
X0040817Y0031167D01*
X0032828Y0040153D02*
X0027564Y0040153D01*
X0027564Y0039155D02*
X0030773Y0039155D01*
X0029774Y0038156D02*
X0027564Y0038156D01*
X0027564Y0037158D02*
X0029272Y0037158D01*
X0028864Y0036159D02*
X0027564Y0036159D01*
X0027564Y0035161D02*
X0028864Y0035161D01*
X0028876Y0034162D02*
X0027564Y0034162D01*
X0027564Y0033164D02*
X0029290Y0033164D01*
X0029819Y0032165D02*
X0027564Y0032165D01*
X0027564Y0031167D02*
X0030817Y0031167D01*
D20*
X0060095Y0065183D03*
X0075095Y0063933D03*
X0095720Y0090183D03*
X0101345Y0083933D03*
X0101345Y0076433D03*
X0116345Y0090808D03*
X0122595Y0088933D03*
X0118845Y0069558D03*
X0101611Y0100183D03*
X0100095Y0114558D03*
X0096345Y0117683D03*
X0097595Y0127683D03*
X0089470Y0127683D03*
X0078845Y0131433D03*
X0073220Y0119558D03*
X0062595Y0117683D03*
X0062595Y0112683D03*
X0073845Y0105183D03*
X0077595Y0101433D03*
X0071345Y0098933D03*
X0066345Y0097683D03*
X0083845Y0111433D03*
X0106345Y0114558D03*
X0105095Y0142683D03*
X0101970Y0153308D03*
X0056345Y0138933D03*
X0055720Y0153308D03*
X0035095Y0125183D03*
X0035095Y0117683D03*
X0035095Y0111433D03*
X0041345Y0102683D03*
X0043845Y0098933D03*
D21*
X0056345Y0098933D01*
X0061345Y0103933D01*
X0070095Y0103933D01*
X0071345Y0102683D01*
X0073845Y0101433D01*
X0077595Y0101433D01*
X0078845Y0105183D02*
X0080095Y0105183D01*
X0081345Y0103933D01*
X0081345Y0097683D01*
X0075095Y0091433D01*
X0075095Y0083923D01*
X0075095Y0076443D02*
X0082014Y0076443D01*
X0082605Y0075852D01*
X0082585Y0075833D01*
X0086345Y0071433D02*
X0087595Y0070183D01*
X0100085Y0070183D01*
X0102595Y0067673D01*
X0101345Y0076433D02*
X0101345Y0083933D01*
X0100095Y0088933D02*
X0096345Y0085183D01*
X0096345Y0077683D01*
X0094514Y0075852D01*
X0090085Y0075852D01*
X0086345Y0071433D02*
X0086345Y0084514D01*
X0086345Y0086433D01*
X0083845Y0088933D01*
X0083845Y0105183D01*
X0081345Y0107683D01*
X0080095Y0107683D01*
X0076345Y0111433D01*
X0068845Y0111433D01*
X0062595Y0117683D01*
X0058845Y0118933D02*
X0061345Y0121433D01*
X0063845Y0121433D01*
X0071345Y0113933D01*
X0077595Y0113933D01*
X0080095Y0111433D01*
X0083845Y0111433D01*
X0078845Y0105183D02*
X0075095Y0108933D01*
X0060095Y0108933D01*
X0056345Y0112683D01*
X0056345Y0122683D01*
X0058845Y0125183D01*
X0086345Y0125183D01*
X0087595Y0123933D01*
X0090720Y0123933D01*
X0093220Y0126433D01*
X0093220Y0129558D01*
X0091345Y0131433D01*
X0078845Y0131433D01*
X0089470Y0127683D02*
X0057595Y0127683D01*
X0052595Y0122683D01*
X0042595Y0122683D01*
X0037595Y0117683D01*
X0035095Y0117683D01*
X0033845Y0121433D02*
X0031345Y0118933D01*
X0031345Y0113933D01*
X0033845Y0111433D01*
X0035095Y0111433D01*
X0035095Y0107673D01*
X0033845Y0106423D01*
X0041345Y0105183D02*
X0041345Y0102683D01*
X0041345Y0103933D01*
X0041345Y0105183D02*
X0042595Y0106433D01*
X0072595Y0106433D01*
X0073845Y0105183D01*
X0068845Y0101433D02*
X0071345Y0098933D01*
X0068845Y0101433D02*
X0062595Y0101433D01*
X0058845Y0097683D01*
X0058845Y0083943D01*
X0058835Y0083933D01*
X0058835Y0075183D01*
X0051355Y0083933D02*
X0046345Y0083933D01*
X0043845Y0086433D01*
X0033845Y0086433D01*
X0033845Y0067073D02*
X0034495Y0066423D01*
X0043220Y0066423D01*
X0043220Y0058943D02*
X0043230Y0058933D01*
X0047595Y0058933D01*
X0053845Y0065183D01*
X0060095Y0065183D01*
X0097595Y0097683D02*
X0100095Y0095183D01*
X0100095Y0088933D01*
X0102861Y0092417D02*
X0102861Y0098933D01*
X0101611Y0100183D01*
X0098845Y0102683D02*
X0097595Y0101433D01*
X0097595Y0097683D01*
X0098845Y0102683D02*
X0098845Y0110183D01*
X0092595Y0116433D01*
X0092595Y0118933D01*
X0095095Y0121433D01*
X0105095Y0121433D01*
X0110282Y0126620D01*
X0111591Y0126620D01*
X0113028Y0120183D02*
X0115095Y0120183D01*
X0116345Y0121433D01*
X0117595Y0121433D01*
X0118835Y0122673D01*
X0120095Y0122673D01*
X0120085Y0122683D01*
X0120085Y0130193D02*
X0120095Y0130193D01*
X0120085Y0130193D02*
X0118845Y0131433D01*
X0116217Y0131433D01*
X0113156Y0134494D01*
X0111591Y0134494D01*
X0111030Y0133933D01*
X0106345Y0133933D01*
X0105095Y0135183D01*
X0105095Y0137683D01*
X0096345Y0146433D01*
X0043845Y0146433D01*
X0042595Y0145183D01*
X0042595Y0132683D01*
X0035095Y0125183D01*
X0033845Y0121433D02*
X0037595Y0121433D01*
X0042782Y0126620D01*
X0048599Y0126620D01*
X0058845Y0118933D02*
X0058845Y0115183D01*
X0061345Y0112683D01*
X0062595Y0112683D01*
X0056345Y0138933D02*
X0093845Y0138933D01*
X0097595Y0135183D01*
X0097595Y0127683D01*
X0098845Y0118933D02*
X0111404Y0118933D01*
X0111591Y0118746D01*
X0113028Y0120183D01*
X0111404Y0118933D02*
X0111345Y0118992D01*
X0106345Y0114558D02*
X0100095Y0114558D01*
X0097595Y0117683D02*
X0098845Y0118933D01*
X0097595Y0117683D02*
X0096345Y0117683D01*
X0102861Y0092417D02*
X0108220Y0087058D01*
X0120095Y0087058D01*
X0121970Y0088933D01*
X0122595Y0088933D01*
X0123845Y0083933D02*
X0113845Y0083933D01*
X0112585Y0082673D01*
X0111345Y0082673D01*
X0108835Y0082683D01*
X0108855Y0075183D02*
X0115095Y0075183D01*
X0117595Y0077683D01*
X0123845Y0077683D01*
X0123845Y0083933D02*
X0127595Y0087683D01*
X0133845Y0087683D01*
X0111345Y0075193D02*
X0108855Y0075183D01*
X0111591Y0142368D02*
X0105410Y0142368D01*
X0105095Y0142683D01*
X0111591Y0142368D02*
X0117270Y0142368D01*
X0120095Y0145193D01*
D22*
X0078845Y0131433D02*
X0055095Y0131433D01*
X0052034Y0134494D01*
X0048599Y0134494D01*
X0066345Y0097683D02*
X0068845Y0095183D01*
X0068845Y0072683D01*
X0070095Y0071433D01*
X0077595Y0071433D01*
X0078845Y0070183D01*
X0082595Y0070183D01*
X0086345Y0066433D01*
X0095095Y0066433D01*
X0096345Y0065183D01*
X0096345Y0061433D01*
X0097595Y0060183D01*
X0102585Y0060183D01*
X0102595Y0060193D01*
X0111148Y0060193D01*
X0113855Y0060193D01*
X0118845Y0065183D01*
X0131345Y0065183D01*
X0132595Y0063933D01*
X0132595Y0058933D01*
X0133845Y0057683D01*
X0136345Y0061433D02*
X0136345Y0061683D01*
X0111345Y0059996D02*
X0111148Y0060193D01*
D23*
X0048599Y0150242D02*
X0034431Y0150242D01*
X0033599Y0151074D01*
M02*
