G75*
%MOIN*%
%OFA0B0*%
%FSLAX25Y25*%
%IPPOS*%
%LPD*%
%AMOC8*
5,1,8,0,0,1.08239X$1,22.5*
%
%ADD10R,1.12500X0.07500*%
%ADD11R,0.05918X0.07099*%
%ADD12R,0.03000X0.05800*%
%ADD13R,0.05800X0.03000*%
%ADD14C,0.05950*%
%ADD15R,0.09600X0.05600*%
%ADD16R,0.09461X0.14973*%
%ADD17C,0.07400*%
%ADD18OC8,0.07800*%
%ADD19R,0.05918X0.06706*%
%ADD20R,0.06706X0.05918*%
D10*
X0083845Y0026433D03*
D11*
X0079908Y0071433D03*
X0087782Y0071433D03*
X0077782Y0082683D03*
X0069908Y0082683D03*
X0071532Y0071433D03*
X0063658Y0071433D03*
X0062408Y0137683D03*
X0070282Y0137683D03*
X0070282Y0147683D03*
X0062408Y0147683D03*
D12*
X0062822Y0125833D03*
X0065971Y0125833D03*
X0069121Y0125833D03*
X0072270Y0125833D03*
X0075420Y0125833D03*
X0078570Y0125833D03*
X0081719Y0125833D03*
X0084869Y0125833D03*
X0084869Y0092033D03*
X0081719Y0092033D03*
X0078570Y0092033D03*
X0075420Y0092033D03*
X0072270Y0092033D03*
X0069121Y0092033D03*
X0065971Y0092033D03*
X0062822Y0092033D03*
D13*
X0056945Y0097909D03*
X0056945Y0101059D03*
X0056945Y0104209D03*
X0056945Y0107358D03*
X0056945Y0110508D03*
X0056945Y0113657D03*
X0056945Y0116807D03*
X0056945Y0119957D03*
X0090745Y0119957D03*
X0090745Y0116807D03*
X0090745Y0113657D03*
X0090745Y0110508D03*
X0090745Y0107358D03*
X0090745Y0104209D03*
X0090745Y0101059D03*
X0090745Y0097909D03*
D14*
X0085095Y0061433D03*
X0065095Y0061433D03*
D15*
X0117295Y0133583D03*
X0117295Y0142683D03*
X0117295Y0151783D03*
D16*
X0092894Y0142683D03*
D17*
X0033845Y0035183D03*
X0043845Y0035183D03*
X0053845Y0035183D03*
X0063845Y0035183D03*
X0073845Y0035183D03*
X0083845Y0035183D03*
X0093845Y0035183D03*
X0103845Y0035183D03*
X0113845Y0035183D03*
X0123845Y0035183D03*
X0133845Y0035183D03*
X0133845Y0057683D03*
X0123845Y0057683D03*
X0123845Y0077683D03*
X0133845Y0077683D03*
X0133845Y0087683D03*
X0133845Y0097683D03*
X0133845Y0107683D03*
X0133845Y0120183D03*
X0133845Y0130183D03*
X0133845Y0140183D03*
X0133845Y0150183D03*
X0033845Y0086433D03*
X0033845Y0076433D03*
D18*
X0033599Y0151074D03*
D19*
X0040105Y0133933D03*
X0040105Y0126433D03*
X0040105Y0118933D03*
X0040105Y0111433D03*
X0047585Y0111433D03*
X0047585Y0118933D03*
X0047585Y0126433D03*
X0047585Y0133933D03*
X0112605Y0121433D03*
X0120085Y0121433D03*
X0120085Y0112683D03*
X0120085Y0104558D03*
X0112605Y0104558D03*
X0112605Y0112683D03*
X0112605Y0096433D03*
X0120085Y0096433D03*
D20*
X0103845Y0070173D03*
X0103845Y0062693D03*
X0103845Y0050173D03*
X0103845Y0042693D03*
X0093845Y0042693D03*
X0093845Y0050173D03*
X0083845Y0050173D03*
X0083845Y0042693D03*
X0073845Y0042693D03*
X0073845Y0050173D03*
X0063845Y0050173D03*
X0063845Y0042693D03*
X0053845Y0042693D03*
X0053845Y0050173D03*
X0043845Y0050173D03*
X0043845Y0042693D03*
X0033845Y0042693D03*
X0033845Y0050173D03*
X0113845Y0050173D03*
X0113845Y0042693D03*
M02*
