%
M48
M72
T01C0.01575
T02C0.03150
T03C0.04000
%
T01
X36000Y56177
X36492Y63067
X48795Y57161
X55193Y52732
X55193Y48303
X55685Y57161
X60114Y69957
X52240Y84720
X48303Y88657
X56177Y87673
X39445Y96039
X25665Y99976
X22713Y77831
X32063Y77339
X69957Y55193
X73894Y49287
X79307Y49287
X74878Y62575
X94071Y59622
X94071Y54701
X83736Y88165
X90626Y115232
X73894Y115232
T02
X83894Y111295
X63894Y111295
T03
X37831Y27634
X47831Y27634
X57831Y27634
X67831Y27634
X77831Y27634
X25665Y116217
M30
