G75*
%MOIN*%
%OFA0B0*%
%FSLAX25Y25*%
%IPPOS*%
%LPD*%
%AMOC8*
5,1,8,0,0,1.08239X$1,22.5*
%
%ADD10C,0.05150*%
%ADD11R,0.05906X0.05118*%
%ADD12R,0.05118X0.06299*%
%ADD13OC8,0.07000*%
%ADD14R,0.03200X0.06600*%
%ADD15C,0.06600*%
%ADD16C,0.01000*%
%ADD17C,0.03175*%
%ADD18C,0.00984*%
%ADD19C,0.01200*%
%ADD20C,0.01600*%
D10*
X0063894Y0111295D03*
X0083894Y0111295D03*
D11*
X0089150Y0032358D03*
X0089150Y0024878D03*
D12*
X0055193Y0113264D03*
X0047319Y0113264D03*
D13*
X0025665Y0116217D03*
D14*
X0033539Y0103421D03*
X0041413Y0103421D03*
X0049287Y0103421D03*
X0057161Y0103421D03*
X0065035Y0103421D03*
X0072909Y0103421D03*
X0080783Y0103421D03*
X0088657Y0103421D03*
X0088657Y0040429D03*
X0080783Y0040429D03*
X0072909Y0040429D03*
X0065035Y0040429D03*
X0057161Y0040429D03*
X0049287Y0040429D03*
X0041413Y0040429D03*
X0033539Y0040429D03*
D15*
X0037831Y0027634D03*
X0047831Y0027634D03*
X0057831Y0027634D03*
X0067831Y0027634D03*
X0077831Y0027634D03*
D16*
X0021244Y0022228D02*
X0021244Y0113589D01*
X0023601Y0111232D01*
X0027419Y0111232D01*
X0030885Y0107766D01*
X0030455Y0107336D01*
X0030455Y0099506D01*
X0031325Y0098637D01*
X0035754Y0098637D01*
X0036624Y0099506D01*
X0036624Y0107336D01*
X0035824Y0108136D01*
X0035824Y0109289D01*
X0030650Y0114463D01*
X0030650Y0118281D01*
X0029277Y0119654D01*
X0095047Y0119654D01*
X0095047Y0066043D01*
X0089801Y0066043D01*
X0088634Y0064876D01*
X0088634Y0036516D01*
X0083868Y0036516D01*
X0083868Y0044344D01*
X0082998Y0045213D01*
X0078569Y0045213D01*
X0077699Y0044344D01*
X0077699Y0037484D01*
X0075994Y0037484D01*
X0075994Y0044344D01*
X0075124Y0045213D01*
X0074868Y0045213D01*
X0073866Y0046216D01*
X0074505Y0046216D01*
X0075634Y0046683D01*
X0076498Y0047547D01*
X0076965Y0048676D01*
X0076965Y0049898D01*
X0076498Y0051027D01*
X0075870Y0051655D01*
X0075870Y0052075D01*
X0073028Y0054916D01*
X0073028Y0055804D01*
X0072561Y0056933D01*
X0071697Y0057797D01*
X0070568Y0058265D01*
X0069346Y0058265D01*
X0068217Y0057797D01*
X0067353Y0056933D01*
X0066885Y0055804D01*
X0066885Y0054582D01*
X0067353Y0053453D01*
X0068217Y0052589D01*
X0069346Y0052121D01*
X0070233Y0052121D01*
X0071308Y0051046D01*
X0071290Y0051027D01*
X0070822Y0049898D01*
X0070822Y0049260D01*
X0066842Y0053240D01*
X0066830Y0053240D01*
X0061106Y0058964D01*
X0061106Y0067043D01*
X0061854Y0067353D01*
X0062718Y0068217D01*
X0063186Y0069346D01*
X0063186Y0070568D01*
X0062718Y0071697D01*
X0061854Y0072561D01*
X0060725Y0073028D01*
X0060511Y0073028D01*
X0067320Y0079837D01*
X0067320Y0098706D01*
X0068120Y0099506D01*
X0068120Y0107336D01*
X0067250Y0108205D01*
X0066544Y0108205D01*
X0067335Y0108996D01*
X0067953Y0110488D01*
X0067953Y0112103D01*
X0067335Y0113595D01*
X0066193Y0114736D01*
X0064701Y0115354D01*
X0063086Y0115354D01*
X0061594Y0114736D01*
X0060453Y0113595D01*
X0059835Y0112103D01*
X0059835Y0111570D01*
X0059236Y0112168D01*
X0059236Y0117028D01*
X0058367Y0117898D01*
X0052019Y0117898D01*
X0051150Y0117028D01*
X0051150Y0109499D01*
X0052019Y0108630D01*
X0056879Y0108630D01*
X0057304Y0108205D01*
X0054947Y0108205D01*
X0054077Y0107336D01*
X0054077Y0099506D01*
X0054947Y0098637D01*
X0059376Y0098637D01*
X0060246Y0099506D01*
X0060246Y0102028D01*
X0061137Y0101137D01*
X0061951Y0101137D01*
X0061951Y0099506D01*
X0062751Y0098706D01*
X0062751Y0081730D01*
X0051294Y0070272D01*
X0051272Y0070250D01*
X0051272Y0071103D01*
X0062098Y0081930D01*
X0062098Y0090464D01*
X0060936Y0091626D01*
X0057983Y0094579D01*
X0053387Y0094579D01*
X0052224Y0093416D01*
X0050056Y0091248D01*
X0050043Y0091261D01*
X0048914Y0091729D01*
X0047692Y0091729D01*
X0046563Y0091261D01*
X0045699Y0090397D01*
X0045231Y0089268D01*
X0045231Y0088046D01*
X0045699Y0086918D01*
X0046563Y0086053D01*
X0047692Y0085586D01*
X0048914Y0085586D01*
X0049348Y0085766D01*
X0049169Y0085331D01*
X0049169Y0084109D01*
X0049636Y0082981D01*
X0049655Y0082962D01*
X0035681Y0068988D01*
X0033702Y0068988D01*
X0032571Y0067857D01*
X0032571Y0074267D01*
X0032674Y0074267D01*
X0033803Y0074735D01*
X0034667Y0075599D01*
X0035135Y0076728D01*
X0035135Y0077950D01*
X0034667Y0079079D01*
X0033803Y0079943D01*
X0032674Y0080410D01*
X0032024Y0080410D01*
X0041421Y0089807D01*
X0041421Y0093672D01*
X0042049Y0094299D01*
X0042517Y0095428D01*
X0042517Y0096650D01*
X0042049Y0097779D01*
X0041185Y0098643D01*
X0040056Y0099111D01*
X0038834Y0099111D01*
X0037705Y0098643D01*
X0036841Y0097779D01*
X0036373Y0096650D01*
X0036373Y0095428D01*
X0036841Y0094299D01*
X0037469Y0093672D01*
X0037469Y0091445D01*
X0028634Y0082610D01*
X0028634Y0099116D01*
X0028737Y0099365D01*
X0028737Y0100587D01*
X0028269Y0101716D01*
X0027405Y0102580D01*
X0026276Y0103048D01*
X0025054Y0103048D01*
X0023925Y0102580D01*
X0023061Y0101716D01*
X0022594Y0100587D01*
X0022594Y0099365D01*
X0023061Y0098236D01*
X0023925Y0097372D01*
X0024665Y0097066D01*
X0024665Y0053387D01*
X0025828Y0052224D01*
X0025839Y0052224D01*
X0034197Y0043866D01*
X0036647Y0043866D01*
X0036654Y0043858D01*
X0038329Y0043858D01*
X0038329Y0036514D01*
X0039199Y0035645D01*
X0043391Y0035645D01*
X0043523Y0035513D01*
X0043358Y0035349D01*
X0043358Y0034994D01*
X0042729Y0033735D01*
X0042374Y0033380D01*
X0042374Y0033025D01*
X0042215Y0032708D01*
X0042374Y0032232D01*
X0042374Y0022228D01*
X0021244Y0022228D01*
X0021244Y0022755D02*
X0042374Y0022755D01*
X0042374Y0023754D02*
X0021244Y0023754D01*
X0021244Y0024752D02*
X0042374Y0024752D01*
X0042374Y0025751D02*
X0021244Y0025751D01*
X0021244Y0026749D02*
X0042374Y0026749D01*
X0042374Y0027748D02*
X0021244Y0027748D01*
X0021244Y0028746D02*
X0042374Y0028746D01*
X0042374Y0029745D02*
X0021244Y0029745D01*
X0021244Y0030743D02*
X0042374Y0030743D01*
X0042374Y0031742D02*
X0021244Y0031742D01*
X0021244Y0032740D02*
X0042232Y0032740D01*
X0042731Y0033739D02*
X0021244Y0033739D01*
X0021244Y0034738D02*
X0043230Y0034738D01*
X0045350Y0036492D02*
X0045350Y0044858D01*
X0044366Y0045843D01*
X0037476Y0045843D01*
X0038329Y0043724D02*
X0021244Y0043724D01*
X0021244Y0042726D02*
X0038329Y0042726D01*
X0038329Y0041727D02*
X0021244Y0041727D01*
X0021244Y0040729D02*
X0038329Y0040729D01*
X0038329Y0039730D02*
X0021244Y0039730D01*
X0021244Y0038732D02*
X0038329Y0038732D01*
X0038329Y0037733D02*
X0021244Y0037733D01*
X0021244Y0036735D02*
X0038329Y0036735D01*
X0039107Y0035736D02*
X0021244Y0035736D01*
X0021244Y0044723D02*
X0033341Y0044723D01*
X0032342Y0045721D02*
X0021244Y0045721D01*
X0021244Y0046720D02*
X0031344Y0046720D01*
X0030345Y0047718D02*
X0021244Y0047718D01*
X0021244Y0048717D02*
X0029347Y0048717D01*
X0028348Y0049715D02*
X0021244Y0049715D01*
X0021244Y0050714D02*
X0027350Y0050714D01*
X0026351Y0051712D02*
X0021244Y0051712D01*
X0021244Y0052711D02*
X0025341Y0052711D01*
X0024665Y0053709D02*
X0021244Y0053709D01*
X0021244Y0054708D02*
X0024665Y0054708D01*
X0024665Y0055706D02*
X0021244Y0055706D01*
X0021244Y0056705D02*
X0024665Y0056705D01*
X0024665Y0057703D02*
X0021244Y0057703D01*
X0021244Y0058702D02*
X0024665Y0058702D01*
X0024665Y0059700D02*
X0021244Y0059700D01*
X0021244Y0060699D02*
X0024665Y0060699D01*
X0024665Y0061697D02*
X0021244Y0061697D01*
X0021244Y0062696D02*
X0024665Y0062696D01*
X0024665Y0063694D02*
X0021244Y0063694D01*
X0021244Y0064693D02*
X0024665Y0064693D01*
X0024665Y0065691D02*
X0021244Y0065691D01*
X0021244Y0066690D02*
X0024665Y0066690D01*
X0024665Y0067688D02*
X0021244Y0067688D01*
X0021244Y0068687D02*
X0024665Y0068687D01*
X0024665Y0069685D02*
X0021244Y0069685D01*
X0021244Y0070684D02*
X0024665Y0070684D01*
X0024665Y0071682D02*
X0021244Y0071682D01*
X0021244Y0072681D02*
X0024665Y0072681D01*
X0024665Y0073679D02*
X0021244Y0073679D01*
X0021244Y0074678D02*
X0024665Y0074678D01*
X0024665Y0075676D02*
X0021244Y0075676D01*
X0021244Y0076675D02*
X0024665Y0076675D01*
X0024665Y0077673D02*
X0021244Y0077673D01*
X0021244Y0078672D02*
X0024665Y0078672D01*
X0024665Y0079671D02*
X0021244Y0079671D01*
X0021244Y0080669D02*
X0024665Y0080669D01*
X0024665Y0081668D02*
X0021244Y0081668D01*
X0021244Y0082666D02*
X0024665Y0082666D01*
X0024665Y0083665D02*
X0021244Y0083665D01*
X0021244Y0084663D02*
X0024665Y0084663D01*
X0024665Y0085662D02*
X0021244Y0085662D01*
X0021244Y0086660D02*
X0024665Y0086660D01*
X0024665Y0087659D02*
X0021244Y0087659D01*
X0021244Y0088657D02*
X0024665Y0088657D01*
X0024665Y0089656D02*
X0021244Y0089656D01*
X0021244Y0090654D02*
X0024665Y0090654D01*
X0024665Y0091653D02*
X0021244Y0091653D01*
X0021244Y0092651D02*
X0024665Y0092651D01*
X0024665Y0093650D02*
X0021244Y0093650D01*
X0021244Y0094648D02*
X0024665Y0094648D01*
X0024665Y0095647D02*
X0021244Y0095647D01*
X0021244Y0096645D02*
X0024665Y0096645D01*
X0023654Y0097644D02*
X0021244Y0097644D01*
X0021244Y0098642D02*
X0022893Y0098642D01*
X0022594Y0099641D02*
X0021244Y0099641D01*
X0021244Y0100639D02*
X0022615Y0100639D01*
X0023029Y0101638D02*
X0021244Y0101638D01*
X0021244Y0102636D02*
X0024060Y0102636D01*
X0025665Y0099976D02*
X0026650Y0098992D01*
X0026650Y0054209D01*
X0028618Y0055193D02*
X0028618Y0079799D01*
X0028634Y0082666D02*
X0028690Y0082666D01*
X0028634Y0083665D02*
X0029688Y0083665D01*
X0030687Y0084663D02*
X0028634Y0084663D01*
X0028634Y0085662D02*
X0031685Y0085662D01*
X0032684Y0086660D02*
X0028634Y0086660D01*
X0028634Y0087659D02*
X0033683Y0087659D01*
X0034681Y0088657D02*
X0028634Y0088657D01*
X0028634Y0089656D02*
X0035680Y0089656D01*
X0036678Y0090654D02*
X0028634Y0090654D01*
X0028634Y0091653D02*
X0037469Y0091653D01*
X0037469Y0092651D02*
X0028634Y0092651D01*
X0028634Y0093650D02*
X0037469Y0093650D01*
X0036696Y0094648D02*
X0028634Y0094648D01*
X0028634Y0095647D02*
X0036373Y0095647D01*
X0036373Y0096645D02*
X0028634Y0096645D01*
X0028634Y0097644D02*
X0036785Y0097644D01*
X0037704Y0098642D02*
X0035759Y0098642D01*
X0036624Y0099641D02*
X0046203Y0099641D01*
X0046203Y0099506D02*
X0047073Y0098637D01*
X0051502Y0098637D01*
X0052372Y0099506D01*
X0052372Y0107336D01*
X0051502Y0108205D01*
X0047073Y0108205D01*
X0046203Y0107336D01*
X0046203Y0099506D01*
X0046203Y0100639D02*
X0036624Y0100639D01*
X0036624Y0101638D02*
X0046203Y0101638D01*
X0046203Y0102636D02*
X0036624Y0102636D01*
X0036624Y0103635D02*
X0046203Y0103635D01*
X0046203Y0104633D02*
X0036624Y0104633D01*
X0036624Y0105632D02*
X0046203Y0105632D01*
X0046203Y0106630D02*
X0036624Y0106630D01*
X0036331Y0107629D02*
X0046496Y0107629D01*
X0051150Y0109626D02*
X0035486Y0109626D01*
X0035824Y0108627D02*
X0056882Y0108627D01*
X0054370Y0107629D02*
X0052079Y0107629D01*
X0052372Y0106630D02*
X0054077Y0106630D01*
X0054077Y0105632D02*
X0052372Y0105632D01*
X0052372Y0104633D02*
X0054077Y0104633D01*
X0054077Y0103635D02*
X0052372Y0103635D01*
X0052372Y0102636D02*
X0054077Y0102636D01*
X0054077Y0101638D02*
X0052372Y0101638D01*
X0052372Y0100639D02*
X0054077Y0100639D01*
X0054077Y0099641D02*
X0052372Y0099641D01*
X0051507Y0098642D02*
X0054941Y0098642D01*
X0059381Y0098642D02*
X0062751Y0098642D01*
X0062751Y0097644D02*
X0042105Y0097644D01*
X0042517Y0096645D02*
X0062751Y0096645D01*
X0062751Y0095647D02*
X0042517Y0095647D01*
X0042193Y0094648D02*
X0062751Y0094648D01*
X0062751Y0093650D02*
X0058912Y0093650D01*
X0059911Y0092651D02*
X0062751Y0092651D01*
X0062751Y0091653D02*
X0060909Y0091653D01*
X0061908Y0090654D02*
X0062751Y0090654D01*
X0062751Y0089656D02*
X0062098Y0089656D01*
X0062098Y0088657D02*
X0062751Y0088657D01*
X0062751Y0087659D02*
X0062098Y0087659D01*
X0062098Y0086660D02*
X0062751Y0086660D01*
X0062751Y0085662D02*
X0062098Y0085662D01*
X0062098Y0084663D02*
X0062751Y0084663D01*
X0062751Y0083665D02*
X0062098Y0083665D01*
X0062098Y0082666D02*
X0062751Y0082666D01*
X0062689Y0081668D02*
X0061836Y0081668D01*
X0061691Y0080669D02*
X0060837Y0080669D01*
X0060692Y0079671D02*
X0059839Y0079671D01*
X0059694Y0078672D02*
X0058840Y0078672D01*
X0058695Y0077673D02*
X0057842Y0077673D01*
X0057697Y0076675D02*
X0056843Y0076675D01*
X0056698Y0075676D02*
X0055845Y0075676D01*
X0055700Y0074678D02*
X0054846Y0074678D01*
X0054701Y0073679D02*
X0053848Y0073679D01*
X0053703Y0072681D02*
X0052849Y0072681D01*
X0052704Y0071682D02*
X0051851Y0071682D01*
X0051705Y0070684D02*
X0051272Y0070684D01*
X0051294Y0070272D02*
X0051294Y0070272D01*
X0049287Y0071925D02*
X0049287Y0058146D01*
X0047319Y0048303D02*
X0044366Y0048303D01*
X0047319Y0048303D02*
X0049287Y0046335D01*
X0049287Y0040429D01*
X0036000Y0056177D02*
X0032555Y0060114D01*
X0032555Y0065035D01*
X0034524Y0067004D01*
X0036492Y0067004D01*
X0036379Y0069685D02*
X0032571Y0069685D01*
X0032571Y0068687D02*
X0033400Y0068687D01*
X0032571Y0070684D02*
X0037377Y0070684D01*
X0038376Y0071682D02*
X0032571Y0071682D01*
X0032571Y0072681D02*
X0039374Y0072681D01*
X0040373Y0073679D02*
X0032571Y0073679D01*
X0033666Y0074678D02*
X0041371Y0074678D01*
X0042370Y0075676D02*
X0034699Y0075676D01*
X0035113Y0076675D02*
X0043368Y0076675D01*
X0044367Y0077673D02*
X0035135Y0077673D01*
X0034835Y0078672D02*
X0045365Y0078672D01*
X0046364Y0079671D02*
X0034075Y0079671D01*
X0033281Y0081668D02*
X0048361Y0081668D01*
X0049359Y0082666D02*
X0034280Y0082666D01*
X0035278Y0083665D02*
X0049353Y0083665D01*
X0049169Y0084663D02*
X0036277Y0084663D01*
X0037275Y0085662D02*
X0047509Y0085662D01*
X0049097Y0085662D02*
X0049305Y0085662D01*
X0050272Y0088657D02*
X0048303Y0088657D01*
X0050272Y0088657D02*
X0054209Y0092594D01*
X0057161Y0092594D01*
X0060114Y0089642D01*
X0060114Y0082752D01*
X0049287Y0071925D01*
X0047362Y0080669D02*
X0032283Y0080669D01*
X0032063Y0077339D02*
X0030587Y0075862D01*
X0030587Y0056177D01*
X0038274Y0086660D02*
X0045957Y0086660D01*
X0045392Y0087659D02*
X0039273Y0087659D01*
X0040271Y0088657D02*
X0045231Y0088657D01*
X0045392Y0089656D02*
X0041270Y0089656D01*
X0041421Y0090654D02*
X0045956Y0090654D01*
X0047508Y0091653D02*
X0041421Y0091653D01*
X0041421Y0092651D02*
X0051459Y0092651D01*
X0050461Y0091653D02*
X0049099Y0091653D01*
X0052458Y0093650D02*
X0041421Y0093650D01*
X0041186Y0098642D02*
X0047067Y0098642D01*
X0051150Y0110624D02*
X0034488Y0110624D01*
X0033489Y0111623D02*
X0051150Y0111623D01*
X0051150Y0112621D02*
X0032491Y0112621D01*
X0031492Y0113620D02*
X0051150Y0113620D01*
X0051150Y0114618D02*
X0030650Y0114618D01*
X0030650Y0115617D02*
X0051150Y0115617D01*
X0051150Y0116615D02*
X0030650Y0116615D01*
X0030650Y0117614D02*
X0051735Y0117614D01*
X0058650Y0117614D02*
X0095047Y0117614D01*
X0095047Y0118612D02*
X0030318Y0118612D01*
X0029320Y0119611D02*
X0095047Y0119611D01*
X0095047Y0116615D02*
X0059236Y0116615D01*
X0059236Y0115617D02*
X0095047Y0115617D01*
X0095047Y0114618D02*
X0086311Y0114618D01*
X0086193Y0114736D02*
X0084701Y0115354D01*
X0083086Y0115354D01*
X0081594Y0114736D01*
X0080453Y0113595D01*
X0079835Y0112103D01*
X0079835Y0110488D01*
X0080453Y0108996D01*
X0081243Y0108205D01*
X0078569Y0108205D01*
X0077699Y0107336D01*
X0077699Y0099506D01*
X0078569Y0098637D01*
X0082998Y0098637D01*
X0083868Y0099506D01*
X0083868Y0107236D01*
X0084701Y0107236D01*
X0086020Y0107782D01*
X0085573Y0107336D01*
X0085573Y0099506D01*
X0086443Y0098637D01*
X0090872Y0098637D01*
X0091742Y0099506D01*
X0091742Y0107336D01*
X0090872Y0108205D01*
X0086544Y0108205D01*
X0087335Y0108996D01*
X0087953Y0110488D01*
X0087953Y0112103D01*
X0087335Y0113595D01*
X0086193Y0114736D01*
X0087309Y0113620D02*
X0095047Y0113620D01*
X0095047Y0112621D02*
X0087738Y0112621D01*
X0087953Y0111623D02*
X0095047Y0111623D01*
X0095047Y0110624D02*
X0087953Y0110624D01*
X0087596Y0109626D02*
X0095047Y0109626D01*
X0095047Y0108627D02*
X0086966Y0108627D01*
X0085866Y0107629D02*
X0085649Y0107629D01*
X0085573Y0106630D02*
X0083868Y0106630D01*
X0083868Y0105632D02*
X0085573Y0105632D01*
X0085573Y0104633D02*
X0083868Y0104633D01*
X0083868Y0103635D02*
X0085573Y0103635D01*
X0085573Y0102636D02*
X0083868Y0102636D01*
X0083868Y0101638D02*
X0085573Y0101638D01*
X0085573Y0100639D02*
X0083868Y0100639D01*
X0083868Y0099641D02*
X0085573Y0099641D01*
X0086437Y0098642D02*
X0083003Y0098642D01*
X0078563Y0098642D02*
X0075129Y0098642D01*
X0075124Y0098637D02*
X0075994Y0099506D01*
X0075994Y0107336D01*
X0075124Y0108205D01*
X0070695Y0108205D01*
X0069825Y0107336D01*
X0069825Y0099506D01*
X0070695Y0098637D01*
X0075124Y0098637D01*
X0075994Y0099641D02*
X0077699Y0099641D01*
X0077699Y0100639D02*
X0075994Y0100639D01*
X0075994Y0101638D02*
X0077699Y0101638D01*
X0077699Y0102636D02*
X0075994Y0102636D01*
X0075994Y0103635D02*
X0077699Y0103635D01*
X0077699Y0104633D02*
X0075994Y0104633D01*
X0075994Y0105632D02*
X0077699Y0105632D01*
X0077699Y0106630D02*
X0075994Y0106630D01*
X0075701Y0107629D02*
X0077992Y0107629D01*
X0080192Y0109626D02*
X0067596Y0109626D01*
X0067953Y0110624D02*
X0079835Y0110624D01*
X0079835Y0111623D02*
X0067953Y0111623D01*
X0067738Y0112621D02*
X0080050Y0112621D01*
X0080478Y0113620D02*
X0067309Y0113620D01*
X0066311Y0114618D02*
X0081476Y0114618D01*
X0080821Y0108627D02*
X0066966Y0108627D01*
X0067827Y0107629D02*
X0070118Y0107629D01*
X0069825Y0106630D02*
X0068120Y0106630D01*
X0068120Y0105632D02*
X0069825Y0105632D01*
X0069825Y0104633D02*
X0068120Y0104633D01*
X0068120Y0103635D02*
X0069825Y0103635D01*
X0069825Y0102636D02*
X0068120Y0102636D01*
X0068120Y0101638D02*
X0069825Y0101638D01*
X0069825Y0100639D02*
X0068120Y0100639D01*
X0068120Y0099641D02*
X0069825Y0099641D01*
X0070689Y0098642D02*
X0067320Y0098642D01*
X0067320Y0097644D02*
X0095047Y0097644D01*
X0095047Y0098642D02*
X0090877Y0098642D01*
X0091742Y0099641D02*
X0095047Y0099641D01*
X0095047Y0100639D02*
X0091742Y0100639D01*
X0091742Y0101638D02*
X0095047Y0101638D01*
X0095047Y0102636D02*
X0091742Y0102636D01*
X0091742Y0103635D02*
X0095047Y0103635D01*
X0095047Y0104633D02*
X0091742Y0104633D01*
X0091742Y0105632D02*
X0095047Y0105632D01*
X0095047Y0106630D02*
X0091742Y0106630D01*
X0091449Y0107629D02*
X0095047Y0107629D01*
X0095047Y0096645D02*
X0067320Y0096645D01*
X0067320Y0095647D02*
X0095047Y0095647D01*
X0095047Y0094648D02*
X0067320Y0094648D01*
X0067320Y0093650D02*
X0095047Y0093650D01*
X0095047Y0092651D02*
X0067320Y0092651D01*
X0067320Y0091653D02*
X0095047Y0091653D01*
X0095047Y0090654D02*
X0067320Y0090654D01*
X0067320Y0089656D02*
X0095047Y0089656D01*
X0095047Y0088657D02*
X0067320Y0088657D01*
X0067320Y0087659D02*
X0095047Y0087659D01*
X0095047Y0086660D02*
X0067320Y0086660D01*
X0067320Y0085662D02*
X0095047Y0085662D01*
X0095047Y0084663D02*
X0067320Y0084663D01*
X0067320Y0083665D02*
X0095047Y0083665D01*
X0095047Y0082666D02*
X0067320Y0082666D01*
X0067320Y0081668D02*
X0095047Y0081668D01*
X0095047Y0080669D02*
X0067320Y0080669D01*
X0067153Y0079671D02*
X0095047Y0079671D01*
X0095047Y0078672D02*
X0066154Y0078672D01*
X0065156Y0077673D02*
X0095047Y0077673D01*
X0095047Y0076675D02*
X0064157Y0076675D01*
X0063159Y0075676D02*
X0095047Y0075676D01*
X0095047Y0074678D02*
X0062160Y0074678D01*
X0061162Y0073679D02*
X0095047Y0073679D01*
X0095047Y0072681D02*
X0061564Y0072681D01*
X0062724Y0071682D02*
X0095047Y0071682D01*
X0095047Y0070684D02*
X0063138Y0070684D01*
X0063186Y0069685D02*
X0095047Y0069685D01*
X0095047Y0068687D02*
X0062913Y0068687D01*
X0062190Y0067688D02*
X0095047Y0067688D01*
X0095047Y0066690D02*
X0061106Y0066690D01*
X0061106Y0065691D02*
X0089449Y0065691D01*
X0088634Y0064693D02*
X0061106Y0064693D01*
X0061106Y0063694D02*
X0088634Y0063694D01*
X0088634Y0062696D02*
X0061106Y0062696D01*
X0061106Y0061697D02*
X0088634Y0061697D01*
X0088634Y0060699D02*
X0061106Y0060699D01*
X0061106Y0059700D02*
X0088634Y0059700D01*
X0088634Y0058702D02*
X0061369Y0058702D01*
X0062367Y0057703D02*
X0068123Y0057703D01*
X0067258Y0056705D02*
X0063366Y0056705D01*
X0064364Y0055706D02*
X0066885Y0055706D01*
X0066885Y0054708D02*
X0065363Y0054708D01*
X0066361Y0053709D02*
X0067247Y0053709D01*
X0067371Y0052711D02*
X0068095Y0052711D01*
X0068370Y0051712D02*
X0070642Y0051712D01*
X0071160Y0050714D02*
X0069368Y0050714D01*
X0070367Y0049715D02*
X0070822Y0049715D01*
X0074235Y0053709D02*
X0088634Y0053709D01*
X0088634Y0052711D02*
X0075234Y0052711D01*
X0075870Y0051712D02*
X0088634Y0051712D01*
X0088634Y0050714D02*
X0076628Y0050714D01*
X0076965Y0049715D02*
X0088634Y0049715D01*
X0088634Y0048717D02*
X0076965Y0048717D01*
X0076568Y0047718D02*
X0088634Y0047718D01*
X0088634Y0046720D02*
X0075670Y0046720D01*
X0074361Y0045721D02*
X0088634Y0045721D01*
X0088634Y0044723D02*
X0083489Y0044723D01*
X0083868Y0043724D02*
X0088634Y0043724D01*
X0088634Y0042726D02*
X0083868Y0042726D01*
X0083868Y0041727D02*
X0088634Y0041727D01*
X0088634Y0040729D02*
X0083868Y0040729D01*
X0083868Y0039730D02*
X0088634Y0039730D01*
X0088634Y0038732D02*
X0083868Y0038732D01*
X0083868Y0037733D02*
X0088634Y0037733D01*
X0088634Y0036735D02*
X0083868Y0036735D01*
X0077699Y0037733D02*
X0075994Y0037733D01*
X0075994Y0038732D02*
X0077699Y0038732D01*
X0077699Y0039730D02*
X0075994Y0039730D01*
X0075994Y0040729D02*
X0077699Y0040729D01*
X0077699Y0041727D02*
X0075994Y0041727D01*
X0075994Y0042726D02*
X0077699Y0042726D01*
X0077699Y0043724D02*
X0075994Y0043724D01*
X0075615Y0044723D02*
X0078078Y0044723D01*
X0072909Y0044366D02*
X0072909Y0040429D01*
X0072909Y0044366D02*
X0066020Y0051256D01*
X0066020Y0047319D02*
X0068972Y0044366D01*
X0068972Y0037476D01*
X0073237Y0054708D02*
X0088634Y0054708D01*
X0088634Y0055706D02*
X0073028Y0055706D01*
X0072655Y0056705D02*
X0088634Y0056705D01*
X0088634Y0057703D02*
X0071790Y0057703D01*
X0061951Y0099641D02*
X0060246Y0099641D01*
X0060246Y0100639D02*
X0061951Y0100639D01*
X0060636Y0101638D02*
X0060246Y0101638D01*
X0059835Y0111623D02*
X0059781Y0111623D01*
X0060050Y0112621D02*
X0059236Y0112621D01*
X0059236Y0113620D02*
X0060478Y0113620D01*
X0061476Y0114618D02*
X0059236Y0114618D01*
X0031319Y0098642D02*
X0028634Y0098642D01*
X0028737Y0099641D02*
X0030455Y0099641D01*
X0030455Y0100639D02*
X0028716Y0100639D01*
X0028302Y0101638D02*
X0030455Y0101638D01*
X0030455Y0102636D02*
X0027270Y0102636D01*
X0030455Y0103635D02*
X0021244Y0103635D01*
X0021244Y0104633D02*
X0030455Y0104633D01*
X0030455Y0105632D02*
X0021244Y0105632D01*
X0021244Y0106630D02*
X0030455Y0106630D01*
X0030748Y0107629D02*
X0021244Y0107629D01*
X0021244Y0108627D02*
X0030024Y0108627D01*
X0029026Y0109626D02*
X0021244Y0109626D01*
X0021244Y0110624D02*
X0028027Y0110624D01*
X0023210Y0111623D02*
X0021244Y0111623D01*
X0021244Y0112621D02*
X0022212Y0112621D01*
D17*
X0025665Y0099976D03*
X0039445Y0096039D03*
X0048303Y0088657D03*
X0052240Y0084720D03*
X0056177Y0087673D03*
X0060114Y0069957D03*
X0055685Y0057161D03*
X0055193Y0052732D03*
X0055193Y0048303D03*
X0048795Y0057161D03*
X0036000Y0056177D03*
X0036492Y0063067D03*
X0032063Y0077339D03*
X0022713Y0077831D03*
X0069957Y0055193D03*
X0073894Y0049287D03*
X0079307Y0049287D03*
X0074878Y0062575D03*
X0094071Y0059622D03*
X0094071Y0054701D03*
X0083736Y0088165D03*
X0090626Y0115232D03*
X0073894Y0115232D03*
D18*
X0056177Y0087673D02*
X0056177Y0082752D01*
X0036492Y0063067D01*
X0036492Y0067004D02*
X0053224Y0083736D01*
X0052240Y0084720D01*
X0039445Y0090626D02*
X0028618Y0079799D01*
X0039445Y0090626D02*
X0039445Y0096039D01*
X0060114Y0069957D02*
X0059130Y0068972D01*
X0059130Y0058146D01*
X0066020Y0051256D01*
X0066020Y0047319D02*
X0056177Y0057161D01*
X0055685Y0057161D01*
X0049287Y0057654D02*
X0048795Y0057161D01*
X0049287Y0057654D02*
X0049287Y0058146D01*
X0049287Y0050272D02*
X0036492Y0050272D01*
X0030587Y0056177D01*
X0028618Y0055193D02*
X0035508Y0048303D01*
X0044366Y0048303D01*
X0049287Y0050272D02*
X0051748Y0047811D01*
X0051748Y0045350D01*
X0053717Y0043382D01*
X0057161Y0043382D01*
X0057161Y0040429D01*
X0056877Y0032426D02*
X0055116Y0031696D01*
X0053768Y0030348D01*
X0053039Y0028587D01*
X0053039Y0026681D01*
X0053768Y0024919D01*
X0055116Y0023571D01*
X0056877Y0022842D01*
X0058784Y0022842D01*
X0060545Y0023571D01*
X0061893Y0024919D01*
X0062623Y0026681D01*
X0062623Y0028587D01*
X0061893Y0030348D01*
X0060545Y0031696D01*
X0058784Y0032426D01*
X0056877Y0032426D01*
X0054973Y0031553D02*
X0044366Y0031553D01*
X0044366Y0030570D02*
X0053990Y0030570D01*
X0053453Y0029587D02*
X0044366Y0029587D01*
X0044366Y0028605D02*
X0053046Y0028605D01*
X0053039Y0027622D02*
X0044366Y0027622D01*
X0044366Y0026639D02*
X0053056Y0026639D01*
X0053463Y0025656D02*
X0044366Y0025656D01*
X0044366Y0024674D02*
X0054014Y0024674D01*
X0054997Y0023691D02*
X0044366Y0023691D01*
X0044366Y0022708D02*
X0084705Y0022708D01*
X0084705Y0022220D02*
X0044366Y0022220D01*
X0044366Y0032555D01*
X0045071Y0033965D01*
X0045513Y0033524D01*
X0064873Y0033524D01*
X0065873Y0034524D01*
X0069119Y0034524D01*
X0070119Y0033524D01*
X0079637Y0033524D01*
X0080637Y0034524D01*
X0090626Y0034524D01*
X0090626Y0035637D01*
X0090876Y0035637D01*
X0091750Y0036511D01*
X0091750Y0044347D01*
X0090876Y0045221D01*
X0090626Y0045221D01*
X0090626Y0064051D01*
X0094563Y0064051D01*
X0095055Y0063559D01*
X0095055Y0022220D01*
X0093594Y0022220D01*
X0093594Y0028055D01*
X0092720Y0028929D01*
X0085579Y0028929D01*
X0084705Y0028055D01*
X0084705Y0027650D01*
X0083574Y0027650D01*
X0082768Y0028456D01*
X0082613Y0028610D01*
X0081893Y0030348D01*
X0080545Y0031696D01*
X0078784Y0032426D01*
X0076877Y0032426D01*
X0075116Y0031696D01*
X0073768Y0030348D01*
X0073039Y0028587D01*
X0073039Y0026681D01*
X0073768Y0024919D01*
X0075116Y0023571D01*
X0076877Y0022842D01*
X0078784Y0022842D01*
X0080545Y0023571D01*
X0081293Y0024319D01*
X0081930Y0023681D01*
X0084705Y0023681D01*
X0084705Y0022220D01*
X0081920Y0023691D02*
X0080665Y0023691D01*
X0082752Y0025665D02*
X0080783Y0027634D01*
X0077831Y0027634D01*
X0074014Y0024674D02*
X0071648Y0024674D01*
X0071893Y0024919D02*
X0072623Y0026681D01*
X0072623Y0028587D01*
X0071893Y0030348D01*
X0070545Y0031696D01*
X0068784Y0032426D01*
X0066877Y0032426D01*
X0065116Y0031696D01*
X0063768Y0030348D01*
X0063039Y0028587D01*
X0063039Y0026681D01*
X0063768Y0024919D01*
X0065116Y0023571D01*
X0066877Y0022842D01*
X0068784Y0022842D01*
X0070545Y0023571D01*
X0071893Y0024919D01*
X0072199Y0025656D02*
X0073463Y0025656D01*
X0073056Y0026639D02*
X0072606Y0026639D01*
X0072623Y0027622D02*
X0073039Y0027622D01*
X0073046Y0028605D02*
X0072616Y0028605D01*
X0072208Y0029587D02*
X0073453Y0029587D01*
X0073990Y0030570D02*
X0071671Y0030570D01*
X0070689Y0031553D02*
X0074973Y0031553D01*
X0078815Y0035508D02*
X0070941Y0035508D01*
X0068972Y0037476D01*
X0069141Y0034501D02*
X0065851Y0034501D01*
X0064051Y0035508D02*
X0065035Y0036492D01*
X0065035Y0040429D01*
X0064051Y0035508D02*
X0046335Y0035508D01*
X0045350Y0036492D01*
X0044848Y0033519D02*
X0095055Y0033519D01*
X0095055Y0034501D02*
X0080615Y0034501D01*
X0078815Y0035508D02*
X0080783Y0037476D01*
X0080783Y0040429D01*
X0080689Y0031553D02*
X0095055Y0031553D01*
X0095055Y0030570D02*
X0081671Y0030570D01*
X0082208Y0029587D02*
X0095055Y0029587D01*
X0095055Y0028605D02*
X0093045Y0028605D01*
X0093594Y0027622D02*
X0095055Y0027622D01*
X0095055Y0026639D02*
X0093594Y0026639D01*
X0093594Y0025656D02*
X0095055Y0025656D01*
X0095055Y0024674D02*
X0093594Y0024674D01*
X0093594Y0023691D02*
X0095055Y0023691D01*
X0095055Y0022708D02*
X0093594Y0022708D01*
X0089150Y0024878D02*
X0088362Y0025665D01*
X0082752Y0025665D01*
X0082768Y0028456D02*
X0082768Y0028456D01*
X0082619Y0028605D02*
X0085254Y0028605D01*
X0090626Y0035484D02*
X0095055Y0035484D01*
X0095055Y0036467D02*
X0091705Y0036467D01*
X0091750Y0037450D02*
X0095055Y0037450D01*
X0095055Y0038432D02*
X0091750Y0038432D01*
X0091750Y0039415D02*
X0095055Y0039415D01*
X0095055Y0040398D02*
X0091750Y0040398D01*
X0091750Y0041381D02*
X0095055Y0041381D01*
X0095055Y0042363D02*
X0091750Y0042363D01*
X0091750Y0043346D02*
X0095055Y0043346D01*
X0095055Y0044329D02*
X0091750Y0044329D01*
X0090626Y0045312D02*
X0095055Y0045312D01*
X0095055Y0046294D02*
X0090626Y0046294D01*
X0090626Y0047277D02*
X0095055Y0047277D01*
X0095055Y0048260D02*
X0090626Y0048260D01*
X0090626Y0049243D02*
X0095055Y0049243D01*
X0095055Y0050226D02*
X0090626Y0050226D01*
X0090626Y0051208D02*
X0095055Y0051208D01*
X0095055Y0052191D02*
X0090626Y0052191D01*
X0090626Y0053174D02*
X0095055Y0053174D01*
X0095055Y0054157D02*
X0090626Y0054157D01*
X0090626Y0055139D02*
X0095055Y0055139D01*
X0095055Y0056122D02*
X0090626Y0056122D01*
X0090626Y0057105D02*
X0095055Y0057105D01*
X0095055Y0058088D02*
X0090626Y0058088D01*
X0090626Y0059070D02*
X0095055Y0059070D01*
X0095055Y0060053D02*
X0090626Y0060053D01*
X0090626Y0061036D02*
X0095055Y0061036D01*
X0095055Y0062019D02*
X0090626Y0062019D01*
X0090626Y0063001D02*
X0095055Y0063001D01*
X0094630Y0063984D02*
X0090626Y0063984D01*
X0073894Y0051256D02*
X0073894Y0049287D01*
X0073894Y0051256D02*
X0069957Y0055193D01*
X0064973Y0031553D02*
X0060689Y0031553D01*
X0061671Y0030570D02*
X0063990Y0030570D01*
X0063453Y0029587D02*
X0062208Y0029587D01*
X0062616Y0028605D02*
X0063046Y0028605D01*
X0063039Y0027622D02*
X0062623Y0027622D01*
X0062606Y0026639D02*
X0063056Y0026639D01*
X0063463Y0025656D02*
X0062199Y0025656D01*
X0061648Y0024674D02*
X0064014Y0024674D01*
X0064997Y0023691D02*
X0060665Y0023691D01*
X0070665Y0023691D02*
X0074997Y0023691D01*
X0095055Y0032536D02*
X0044366Y0032536D01*
X0037476Y0045843D02*
X0035016Y0045843D01*
X0026650Y0054209D01*
D19*
X0062083Y0103421D02*
X0061098Y0104406D01*
X0061098Y0107358D01*
X0055193Y0113264D01*
D20*
X0062083Y0103421D02*
X0065035Y0103421D01*
X0065035Y0080783D01*
X0052240Y0067988D01*
X0052240Y0053224D01*
X0052732Y0052732D01*
X0055193Y0052732D01*
X0052240Y0053224D02*
X0052240Y0051256D01*
X0055193Y0048303D01*
X0033539Y0103421D02*
X0033539Y0108343D01*
X0025665Y0116217D01*
M02*
