G75*
%MOIN*%
%OFA0B0*%
%FSLAX25Y25*%
%IPPOS*%
%LPD*%
%AMOC8*
5,1,8,0,0,1.08239X$1,22.5*
%
%ADD10R,0.06299X0.05118*%
%ADD11R,0.05118X0.06299*%
%ADD12R,0.05000X0.02200*%
%ADD13R,0.02200X0.05000*%
%ADD14C,0.05150*%
%ADD15R,0.08800X0.04800*%
%ADD16R,0.08661X0.14173*%
%ADD17OC8,0.07000*%
%ADD18R,0.03937X0.05512*%
%ADD19R,0.05906X0.05118*%
%ADD20R,0.05118X0.05906*%
%ADD21C,0.06600*%
%ADD22C,0.00984*%
%ADD23C,0.01000*%
%ADD24C,0.03175*%
%ADD25C,0.01200*%
%ADD26C,0.01600*%
%ADD27C,0.01969*%
D10*
X0092102Y0089642D03*
X0092102Y0097516D03*
D11*
X0081768Y0097024D03*
X0073894Y0097024D03*
X0083736Y0080783D03*
X0091610Y0080783D03*
D12*
X0073077Y0081374D03*
X0073077Y0078224D03*
X0073077Y0075075D03*
X0073077Y0071925D03*
X0073077Y0068776D03*
X0073077Y0084524D03*
X0073077Y0087673D03*
X0073077Y0090823D03*
X0039277Y0090823D03*
X0039277Y0087673D03*
X0039277Y0084524D03*
X0039277Y0081374D03*
X0039277Y0078224D03*
X0039277Y0075075D03*
X0039277Y0071925D03*
X0039277Y0068776D03*
D13*
X0045154Y0062899D03*
X0048303Y0062899D03*
X0051453Y0062899D03*
X0054602Y0062899D03*
X0057752Y0062899D03*
X0060902Y0062899D03*
X0064051Y0062899D03*
X0067201Y0062899D03*
X0067201Y0096699D03*
X0064051Y0096699D03*
X0060902Y0096699D03*
X0057752Y0096699D03*
X0054602Y0096699D03*
X0051453Y0096699D03*
X0048303Y0096699D03*
X0045154Y0096699D03*
D14*
X0063894Y0111295D03*
X0083894Y0111295D03*
D15*
X0087078Y0056419D03*
X0087078Y0047319D03*
X0087078Y0038219D03*
D16*
X0062677Y0047319D03*
D17*
X0025665Y0116217D03*
D18*
X0044366Y0054602D03*
X0040626Y0045941D03*
X0048106Y0045941D03*
D19*
X0027634Y0037280D03*
X0027634Y0029799D03*
X0036492Y0105587D03*
X0036492Y0113067D03*
X0045350Y0113067D03*
X0045350Y0105587D03*
D20*
X0031374Y0094563D03*
X0023894Y0094563D03*
X0023894Y0085705D03*
X0031374Y0085705D03*
X0031374Y0071925D03*
X0023894Y0071925D03*
X0023894Y0063067D03*
X0031374Y0063067D03*
X0031374Y0054209D03*
X0023894Y0054209D03*
X0023894Y0045350D03*
X0031374Y0045350D03*
X0040626Y0037476D03*
X0048106Y0037476D03*
X0081965Y0067988D03*
X0089445Y0067988D03*
D21*
X0077831Y0027634D03*
X0067831Y0027634D03*
X0057831Y0027634D03*
X0047831Y0027634D03*
X0037831Y0027634D03*
D22*
X0041413Y0032555D02*
X0046335Y0027634D01*
X0047831Y0027634D01*
X0041413Y0032555D02*
X0030390Y0032555D01*
X0027634Y0029799D01*
X0027634Y0037280D02*
X0030783Y0037476D01*
X0034524Y0037476D01*
X0036000Y0038953D01*
X0036000Y0048303D01*
X0041906Y0054209D01*
X0044760Y0054209D01*
X0044366Y0054602D01*
X0044760Y0054209D02*
X0047319Y0054209D01*
X0048795Y0055685D01*
X0048795Y0057161D01*
X0051256Y0054209D02*
X0054209Y0057161D01*
X0055685Y0057161D01*
X0058146Y0059622D02*
X0061098Y0056669D01*
X0068480Y0056669D01*
X0069957Y0055193D01*
X0071433Y0058638D02*
X0073894Y0056177D01*
X0073894Y0054209D01*
X0070449Y0050764D01*
X0070449Y0047319D01*
X0072909Y0044858D01*
X0072909Y0032555D01*
X0067988Y0027634D01*
X0067831Y0027634D01*
X0062752Y0022713D02*
X0086689Y0022713D01*
X0094563Y0030587D01*
X0094563Y0049287D01*
X0092594Y0051256D01*
X0082752Y0051256D01*
X0080783Y0053224D01*
X0080783Y0060114D01*
X0082752Y0062083D01*
X0087673Y0062083D01*
X0088657Y0063067D01*
X0088657Y0067201D01*
X0089445Y0067988D01*
X0088511Y0060114D02*
X0095055Y0060114D01*
X0095055Y0053224D01*
X0093432Y0053224D01*
X0093416Y0053240D01*
X0083574Y0053240D01*
X0082768Y0054046D01*
X0082768Y0059146D01*
X0083720Y0060098D01*
X0088495Y0060098D01*
X0088511Y0060114D01*
X0083675Y0060053D02*
X0095055Y0060053D01*
X0095055Y0059070D02*
X0082768Y0059070D01*
X0082768Y0058088D02*
X0095055Y0058088D01*
X0095055Y0057105D02*
X0082768Y0057105D01*
X0082768Y0056122D02*
X0095055Y0056122D01*
X0095055Y0055139D02*
X0082768Y0055139D01*
X0082768Y0054157D02*
X0095055Y0054157D01*
X0081965Y0067988D02*
X0078815Y0067988D01*
X0076846Y0066020D01*
X0069957Y0066020D01*
X0067988Y0067988D01*
X0066020Y0067988D01*
X0064051Y0066020D01*
X0064051Y0062899D01*
X0061098Y0062702D02*
X0061098Y0060114D01*
X0062575Y0058638D01*
X0071433Y0058638D01*
X0073894Y0049287D02*
X0073894Y0047319D01*
X0076846Y0044366D01*
X0076846Y0028618D01*
X0077831Y0027634D01*
X0062752Y0022713D02*
X0057831Y0027634D01*
X0048106Y0045941D02*
X0048106Y0049091D01*
X0051256Y0052240D01*
X0051256Y0054209D01*
X0058146Y0059622D02*
X0058146Y0062506D01*
X0057752Y0062899D01*
X0060902Y0062899D02*
X0061098Y0062702D01*
X0058146Y0068972D02*
X0045350Y0068972D01*
X0042398Y0066020D01*
X0039937Y0060606D02*
X0039445Y0060114D01*
X0039445Y0054701D01*
X0033539Y0048795D01*
X0033539Y0047516D01*
X0031374Y0045350D01*
X0023894Y0054209D01*
X0031374Y0054209D02*
X0033343Y0056177D01*
X0036000Y0056177D01*
X0040626Y0045941D02*
X0040626Y0037476D01*
X0023894Y0063067D02*
X0031374Y0071925D01*
X0031374Y0085705D02*
X0023894Y0094563D01*
X0031374Y0094563D02*
X0034524Y0094563D01*
X0037476Y0091610D01*
X0038490Y0091610D01*
X0039277Y0090823D01*
X0039277Y0087673D02*
X0043382Y0087673D01*
X0050272Y0080783D01*
X0060114Y0080783D01*
X0060114Y0077831D01*
X0072683Y0077831D01*
X0073077Y0078224D01*
X0071699Y0078815D01*
X0073077Y0084524D02*
X0060902Y0084524D01*
X0060114Y0083736D01*
X0060114Y0080783D01*
X0056177Y0089642D02*
X0053224Y0092594D01*
X0052240Y0092594D01*
X0051453Y0093382D01*
X0051453Y0096699D01*
X0054602Y0096699D02*
X0054602Y0107949D01*
X0049287Y0113264D01*
X0045547Y0113264D01*
X0045350Y0113067D01*
X0045350Y0105587D02*
X0036492Y0105587D01*
X0036492Y0098992D01*
X0039445Y0096039D01*
X0045154Y0092791D02*
X0045154Y0089839D01*
X0046335Y0088657D01*
X0048303Y0088657D01*
X0050764Y0090626D02*
X0048303Y0093087D01*
X0048303Y0096699D01*
X0050764Y0090626D02*
X0052240Y0090626D01*
X0052732Y0090134D01*
X0059130Y0069957D02*
X0058146Y0068972D01*
X0059130Y0069957D02*
X0060114Y0069957D01*
X0073077Y0087673D02*
X0077831Y0087673D01*
X0081768Y0091610D01*
X0085705Y0091610D01*
X0091610Y0097516D01*
X0092102Y0097516D01*
X0092102Y0103087D01*
X0083894Y0111295D01*
X0073894Y0101295D02*
X0073894Y0097024D01*
X0073077Y0096207D01*
X0073077Y0090823D01*
X0073894Y0101295D02*
X0063894Y0111295D01*
D23*
X0021244Y0049772D02*
X0021244Y0022228D01*
X0060441Y0022228D01*
X0059516Y0023154D01*
X0058782Y0022850D01*
X0056879Y0022850D01*
X0055121Y0023578D01*
X0053775Y0024924D01*
X0053046Y0026682D01*
X0053046Y0028586D01*
X0053775Y0030344D01*
X0055121Y0031690D01*
X0056879Y0032418D01*
X0058782Y0032418D01*
X0060541Y0031690D01*
X0061887Y0030344D01*
X0062615Y0028586D01*
X0062615Y0026682D01*
X0062311Y0025949D01*
X0063571Y0024689D01*
X0064010Y0024689D01*
X0063775Y0024924D01*
X0063046Y0026682D01*
X0063046Y0028586D01*
X0063775Y0030344D01*
X0065121Y0031690D01*
X0066879Y0032418D01*
X0068782Y0032418D01*
X0069627Y0032068D01*
X0070933Y0033374D01*
X0070933Y0044040D01*
X0070860Y0044113D01*
X0070860Y0039015D01*
X0069639Y0037794D01*
X0057477Y0037794D01*
X0057477Y0037514D01*
X0056139Y0036176D01*
X0054171Y0034208D01*
X0052150Y0034208D01*
X0052150Y0033909D01*
X0051280Y0033039D01*
X0044932Y0033039D01*
X0044366Y0033606D01*
X0043800Y0033039D01*
X0043724Y0033039D01*
X0045097Y0031666D01*
X0045121Y0031690D01*
X0046879Y0032418D01*
X0048782Y0032418D01*
X0050541Y0031690D01*
X0051887Y0030344D01*
X0052615Y0028586D01*
X0052615Y0026682D01*
X0051887Y0024924D01*
X0050541Y0023578D01*
X0048782Y0022850D01*
X0046879Y0022850D01*
X0045121Y0023578D01*
X0043775Y0024924D01*
X0043046Y0026682D01*
X0043046Y0028127D01*
X0040595Y0030579D01*
X0032071Y0030579D01*
X0032071Y0026625D01*
X0031201Y0025756D01*
X0024066Y0025756D01*
X0023197Y0026625D01*
X0023197Y0032973D01*
X0023763Y0033539D01*
X0023197Y0034106D01*
X0023197Y0040453D01*
X0024066Y0041323D01*
X0027791Y0041323D01*
X0027331Y0041783D01*
X0027331Y0047075D01*
X0025054Y0049772D01*
X0021244Y0049772D01*
X0021244Y0049715D02*
X0025101Y0049715D01*
X0025945Y0048717D02*
X0021244Y0048717D01*
X0021244Y0047718D02*
X0026788Y0047718D01*
X0027331Y0046720D02*
X0021244Y0046720D01*
X0021244Y0045721D02*
X0027331Y0045721D01*
X0027331Y0044723D02*
X0021244Y0044723D01*
X0021244Y0043724D02*
X0027331Y0043724D01*
X0027331Y0042726D02*
X0021244Y0042726D01*
X0021244Y0041727D02*
X0027386Y0041727D01*
X0023472Y0040729D02*
X0021244Y0040729D01*
X0021244Y0039730D02*
X0023197Y0039730D01*
X0023197Y0038732D02*
X0021244Y0038732D01*
X0021244Y0037733D02*
X0023197Y0037733D01*
X0023197Y0036735D02*
X0021244Y0036735D01*
X0021244Y0035736D02*
X0023197Y0035736D01*
X0023197Y0034738D02*
X0021244Y0034738D01*
X0021244Y0033739D02*
X0023564Y0033739D01*
X0023197Y0032740D02*
X0021244Y0032740D01*
X0021244Y0031742D02*
X0023197Y0031742D01*
X0023197Y0030743D02*
X0021244Y0030743D01*
X0021244Y0029745D02*
X0023197Y0029745D01*
X0023197Y0028746D02*
X0021244Y0028746D01*
X0021244Y0027748D02*
X0023197Y0027748D01*
X0023197Y0026749D02*
X0021244Y0026749D01*
X0021244Y0025751D02*
X0043432Y0025751D01*
X0043046Y0026749D02*
X0032071Y0026749D01*
X0032071Y0027748D02*
X0043046Y0027748D01*
X0042427Y0028746D02*
X0032071Y0028746D01*
X0032071Y0029745D02*
X0041429Y0029745D01*
X0044023Y0032740D02*
X0070300Y0032740D01*
X0070933Y0033739D02*
X0051980Y0033739D01*
X0050415Y0031742D02*
X0055247Y0031742D01*
X0054174Y0030743D02*
X0051487Y0030743D01*
X0052135Y0029745D02*
X0053527Y0029745D01*
X0053113Y0028746D02*
X0052548Y0028746D01*
X0052615Y0027748D02*
X0053046Y0027748D01*
X0053046Y0026749D02*
X0052615Y0026749D01*
X0052229Y0025751D02*
X0053432Y0025751D01*
X0053946Y0024752D02*
X0051715Y0024752D01*
X0050717Y0023754D02*
X0054945Y0023754D01*
X0059914Y0022755D02*
X0021244Y0022755D01*
X0021244Y0023754D02*
X0044945Y0023754D01*
X0043946Y0024752D02*
X0021244Y0024752D01*
X0045022Y0031742D02*
X0045247Y0031742D01*
X0054700Y0034738D02*
X0070933Y0034738D01*
X0070933Y0035736D02*
X0055699Y0035736D01*
X0056697Y0036735D02*
X0070933Y0036735D01*
X0070933Y0037733D02*
X0057477Y0037733D01*
X0060415Y0031742D02*
X0065247Y0031742D01*
X0064174Y0030743D02*
X0061487Y0030743D01*
X0062135Y0029745D02*
X0063527Y0029745D01*
X0063113Y0028746D02*
X0062548Y0028746D01*
X0062615Y0027748D02*
X0063046Y0027748D01*
X0063046Y0026749D02*
X0062615Y0026749D01*
X0062509Y0025751D02*
X0063432Y0025751D01*
X0063507Y0024752D02*
X0063946Y0024752D01*
X0070577Y0038732D02*
X0070933Y0038732D01*
X0070933Y0039730D02*
X0070860Y0039730D01*
X0070860Y0040729D02*
X0070933Y0040729D01*
X0070933Y0041727D02*
X0070860Y0041727D01*
X0070860Y0042726D02*
X0070933Y0042726D01*
X0070933Y0043724D02*
X0070860Y0043724D01*
X0076479Y0047529D02*
X0076498Y0047547D01*
X0076965Y0048676D01*
X0076965Y0049898D01*
X0076498Y0051027D01*
X0075634Y0051891D01*
X0074741Y0052261D01*
X0075870Y0053390D01*
X0075870Y0056996D01*
X0074712Y0058154D01*
X0072252Y0060614D01*
X0069785Y0060614D01*
X0069785Y0064043D01*
X0077665Y0064043D01*
X0077982Y0064360D01*
X0078791Y0063551D01*
X0081425Y0063551D01*
X0079965Y0062091D01*
X0078807Y0060933D01*
X0078807Y0052406D01*
X0081194Y0050019D01*
X0081194Y0044304D01*
X0082063Y0043435D01*
X0092093Y0043435D01*
X0092587Y0043929D01*
X0092587Y0031405D01*
X0085870Y0024689D01*
X0081652Y0024689D01*
X0081887Y0024924D01*
X0082615Y0026682D01*
X0082615Y0028586D01*
X0081887Y0030344D01*
X0080541Y0031690D01*
X0078823Y0032401D01*
X0078823Y0045185D01*
X0076479Y0047529D01*
X0076568Y0047718D02*
X0081194Y0047718D01*
X0081194Y0046720D02*
X0077288Y0046720D01*
X0078286Y0045721D02*
X0081194Y0045721D01*
X0081194Y0044723D02*
X0078823Y0044723D01*
X0078823Y0043724D02*
X0081774Y0043724D01*
X0078823Y0042726D02*
X0092587Y0042726D01*
X0092587Y0043724D02*
X0092382Y0043724D01*
X0092587Y0041727D02*
X0078823Y0041727D01*
X0078823Y0040729D02*
X0092587Y0040729D01*
X0092587Y0039730D02*
X0078823Y0039730D01*
X0078823Y0038732D02*
X0092587Y0038732D01*
X0092587Y0037733D02*
X0078823Y0037733D01*
X0078823Y0036735D02*
X0092587Y0036735D01*
X0092587Y0035736D02*
X0078823Y0035736D01*
X0078823Y0034738D02*
X0092587Y0034738D01*
X0092587Y0033739D02*
X0078823Y0033739D01*
X0078823Y0032740D02*
X0092587Y0032740D01*
X0092587Y0031742D02*
X0080415Y0031742D01*
X0081487Y0030743D02*
X0091925Y0030743D01*
X0090926Y0029745D02*
X0082135Y0029745D01*
X0082548Y0028746D02*
X0089928Y0028746D01*
X0088929Y0027748D02*
X0082615Y0027748D01*
X0082615Y0026749D02*
X0087931Y0026749D01*
X0086932Y0025751D02*
X0082229Y0025751D01*
X0081715Y0024752D02*
X0085934Y0024752D01*
X0081194Y0048717D02*
X0076965Y0048717D01*
X0076965Y0049715D02*
X0081194Y0049715D01*
X0080499Y0050714D02*
X0076628Y0050714D01*
X0075813Y0051712D02*
X0079501Y0051712D01*
X0078807Y0052711D02*
X0075191Y0052711D01*
X0075870Y0053709D02*
X0078807Y0053709D01*
X0078807Y0054708D02*
X0075870Y0054708D01*
X0075870Y0055706D02*
X0078807Y0055706D01*
X0078807Y0056705D02*
X0075870Y0056705D01*
X0075163Y0057703D02*
X0078807Y0057703D01*
X0078807Y0058702D02*
X0074164Y0058702D01*
X0073166Y0059700D02*
X0078807Y0059700D01*
X0078807Y0060699D02*
X0069785Y0060699D01*
X0069785Y0061697D02*
X0079572Y0061697D01*
X0080570Y0062696D02*
X0069785Y0062696D01*
X0069785Y0063694D02*
X0078648Y0063694D01*
X0077061Y0069030D02*
X0077061Y0073640D01*
X0076192Y0074509D01*
X0069962Y0074509D01*
X0069093Y0073640D01*
X0069093Y0069678D01*
X0068807Y0069965D01*
X0065201Y0069965D01*
X0064043Y0068807D01*
X0062120Y0066883D01*
X0046056Y0066883D01*
X0046169Y0066996D01*
X0058964Y0066996D01*
X0059044Y0067075D01*
X0059503Y0066885D01*
X0060725Y0066885D01*
X0061854Y0067353D01*
X0062718Y0068217D01*
X0063186Y0069346D01*
X0063186Y0070568D01*
X0062718Y0071697D01*
X0061854Y0072561D01*
X0060725Y0073028D01*
X0059503Y0073028D01*
X0058374Y0072561D01*
X0057510Y0071697D01*
X0057200Y0070949D01*
X0044532Y0070949D01*
X0043261Y0069678D01*
X0043261Y0076790D01*
X0042392Y0077659D01*
X0036162Y0077659D01*
X0035293Y0076790D01*
X0035293Y0075617D01*
X0034856Y0076054D01*
X0035135Y0076728D01*
X0035135Y0077950D01*
X0034667Y0079079D01*
X0033803Y0079943D01*
X0032674Y0080410D01*
X0031452Y0080410D01*
X0030323Y0079943D01*
X0029459Y0079079D01*
X0028991Y0077950D01*
X0028991Y0076728D01*
X0029143Y0076362D01*
X0028200Y0076362D01*
X0027331Y0075493D01*
X0027331Y0070200D01*
X0025054Y0067504D01*
X0021244Y0067504D01*
X0021244Y0090126D01*
X0025054Y0090126D01*
X0027331Y0087430D01*
X0027331Y0082137D01*
X0028200Y0081268D01*
X0034548Y0081268D01*
X0035293Y0082013D01*
X0035293Y0079659D01*
X0036162Y0078790D01*
X0042392Y0078790D01*
X0043261Y0079659D01*
X0043261Y0084999D01*
X0048295Y0079965D01*
X0049453Y0078807D01*
X0058138Y0078807D01*
X0058138Y0077012D01*
X0059296Y0075854D01*
X0069748Y0075854D01*
X0069962Y0075640D01*
X0076038Y0075640D01*
X0078199Y0073480D01*
X0078893Y0072785D01*
X0079762Y0072425D01*
X0078791Y0072425D01*
X0077921Y0071556D01*
X0077921Y0069890D01*
X0077061Y0069030D01*
X0077061Y0069685D02*
X0077717Y0069685D01*
X0077921Y0070684D02*
X0077061Y0070684D01*
X0077061Y0071682D02*
X0078048Y0071682D01*
X0077061Y0072681D02*
X0079145Y0072681D01*
X0077999Y0073679D02*
X0077022Y0073679D01*
X0077000Y0074678D02*
X0043261Y0074678D01*
X0043261Y0075676D02*
X0069926Y0075676D01*
X0069132Y0073679D02*
X0043261Y0073679D01*
X0043261Y0072681D02*
X0058665Y0072681D01*
X0057504Y0071682D02*
X0043261Y0071682D01*
X0043261Y0070684D02*
X0044267Y0070684D01*
X0043268Y0069685D02*
X0043261Y0069685D01*
X0042398Y0066020D02*
X0042398Y0063067D01*
X0039937Y0060606D01*
X0036492Y0063067D02*
X0031374Y0063067D01*
X0026053Y0068687D02*
X0021244Y0068687D01*
X0021244Y0069685D02*
X0026896Y0069685D01*
X0027331Y0070684D02*
X0021244Y0070684D01*
X0021244Y0071682D02*
X0027331Y0071682D01*
X0027331Y0072681D02*
X0021244Y0072681D01*
X0021244Y0073679D02*
X0027331Y0073679D01*
X0027331Y0074678D02*
X0021244Y0074678D01*
X0021244Y0075676D02*
X0027514Y0075676D01*
X0029013Y0076675D02*
X0021244Y0076675D01*
X0021244Y0077673D02*
X0028991Y0077673D01*
X0029291Y0078672D02*
X0021244Y0078672D01*
X0021244Y0079671D02*
X0030051Y0079671D01*
X0031374Y0077043D02*
X0031374Y0071925D01*
X0031374Y0077043D02*
X0032063Y0077339D01*
X0034835Y0078672D02*
X0058138Y0078672D01*
X0058138Y0077673D02*
X0035135Y0077673D01*
X0035113Y0076675D02*
X0035293Y0076675D01*
X0035293Y0075676D02*
X0035234Y0075676D01*
X0035293Y0079671D02*
X0034075Y0079671D01*
X0035293Y0080669D02*
X0021244Y0080669D01*
X0021244Y0081668D02*
X0027800Y0081668D01*
X0027331Y0082666D02*
X0021244Y0082666D01*
X0021244Y0083665D02*
X0027331Y0083665D01*
X0027331Y0084663D02*
X0021244Y0084663D01*
X0021244Y0085662D02*
X0027331Y0085662D01*
X0027331Y0086660D02*
X0021244Y0086660D01*
X0021244Y0087659D02*
X0027137Y0087659D01*
X0026294Y0088657D02*
X0021244Y0088657D01*
X0021244Y0089656D02*
X0025451Y0089656D01*
X0023894Y0094563D02*
X0025665Y0096335D01*
X0025665Y0099976D01*
X0028586Y0099000D02*
X0028737Y0099365D01*
X0028737Y0100587D01*
X0028269Y0101716D01*
X0027405Y0102580D01*
X0026276Y0103048D01*
X0025054Y0103048D01*
X0023925Y0102580D01*
X0023061Y0101716D01*
X0022594Y0100587D01*
X0022594Y0099365D01*
X0022745Y0099000D01*
X0021244Y0099000D01*
X0021244Y0113589D01*
X0023601Y0111232D01*
X0027730Y0111232D01*
X0030650Y0114152D01*
X0030650Y0118281D01*
X0029277Y0119654D01*
X0095047Y0119654D01*
X0095047Y0101559D01*
X0094079Y0101559D01*
X0094079Y0103905D01*
X0087819Y0110165D01*
X0087953Y0110488D01*
X0087953Y0112103D01*
X0087335Y0113595D01*
X0086193Y0114736D01*
X0084701Y0115354D01*
X0083086Y0115354D01*
X0081594Y0114736D01*
X0080453Y0113595D01*
X0079835Y0112103D01*
X0079835Y0110488D01*
X0080453Y0108996D01*
X0081594Y0107854D01*
X0083086Y0107236D01*
X0084701Y0107236D01*
X0085024Y0107370D01*
X0090126Y0102268D01*
X0090126Y0101559D01*
X0088338Y0101559D01*
X0087469Y0100690D01*
X0087469Y0096169D01*
X0084886Y0093587D01*
X0080949Y0093587D01*
X0079791Y0092429D01*
X0077061Y0089699D01*
X0077061Y0092390D01*
X0077068Y0092390D01*
X0077937Y0093259D01*
X0077937Y0100788D01*
X0077068Y0101657D01*
X0075870Y0101657D01*
X0075870Y0102114D01*
X0074712Y0103272D01*
X0067819Y0110165D01*
X0067953Y0110488D01*
X0067953Y0112103D01*
X0067335Y0113595D01*
X0066193Y0114736D01*
X0064701Y0115354D01*
X0063086Y0115354D01*
X0061594Y0114736D01*
X0060453Y0113595D01*
X0059835Y0112103D01*
X0059835Y0110488D01*
X0060453Y0108996D01*
X0061594Y0107854D01*
X0063086Y0107236D01*
X0064701Y0107236D01*
X0065024Y0107370D01*
X0070736Y0101657D01*
X0070720Y0101657D01*
X0069850Y0100788D01*
X0069850Y0093295D01*
X0069093Y0092538D01*
X0069093Y0086500D01*
X0060083Y0086500D01*
X0059296Y0085713D01*
X0058138Y0084555D01*
X0058138Y0082760D01*
X0054623Y0082760D01*
X0054844Y0082981D01*
X0055312Y0084109D01*
X0055312Y0084707D01*
X0055566Y0084602D01*
X0056788Y0084602D01*
X0057917Y0085069D01*
X0058781Y0085933D01*
X0059249Y0087062D01*
X0059249Y0088284D01*
X0058781Y0089413D01*
X0058161Y0090033D01*
X0058161Y0090464D01*
X0056999Y0091626D01*
X0056988Y0091626D01*
X0055899Y0092715D01*
X0068916Y0092715D01*
X0069785Y0093584D01*
X0069785Y0099814D01*
X0068916Y0100683D01*
X0056579Y0100683D01*
X0056579Y0108767D01*
X0051264Y0114082D01*
X0050106Y0115240D01*
X0049787Y0115240D01*
X0049787Y0116241D01*
X0048918Y0117110D01*
X0041783Y0117110D01*
X0040913Y0116241D01*
X0040913Y0109893D01*
X0041480Y0109327D01*
X0040921Y0108768D01*
X0040060Y0109630D01*
X0032925Y0109630D01*
X0032055Y0108760D01*
X0032055Y0102413D01*
X0032925Y0101543D01*
X0034516Y0101543D01*
X0034516Y0099000D01*
X0028586Y0099000D01*
X0028737Y0099641D02*
X0034516Y0099641D01*
X0034516Y0100639D02*
X0028716Y0100639D01*
X0028302Y0101638D02*
X0032830Y0101638D01*
X0032055Y0102636D02*
X0027270Y0102636D01*
X0024060Y0102636D02*
X0021244Y0102636D01*
X0021244Y0101638D02*
X0023029Y0101638D01*
X0022615Y0100639D02*
X0021244Y0100639D01*
X0021244Y0099641D02*
X0022594Y0099641D01*
X0021244Y0103635D02*
X0032055Y0103635D01*
X0032055Y0104633D02*
X0021244Y0104633D01*
X0021244Y0105632D02*
X0032055Y0105632D01*
X0032055Y0106630D02*
X0021244Y0106630D01*
X0021244Y0107629D02*
X0032055Y0107629D01*
X0032055Y0108627D02*
X0021244Y0108627D01*
X0021244Y0109626D02*
X0032921Y0109626D01*
X0030118Y0113620D02*
X0040913Y0113620D01*
X0040913Y0114618D02*
X0030650Y0114618D01*
X0030650Y0115617D02*
X0040913Y0115617D01*
X0041288Y0116615D02*
X0030650Y0116615D01*
X0030650Y0117614D02*
X0095047Y0117614D01*
X0095047Y0118612D02*
X0030318Y0118612D01*
X0029320Y0119611D02*
X0095047Y0119611D01*
X0095047Y0116615D02*
X0049413Y0116615D01*
X0049787Y0115617D02*
X0095047Y0115617D01*
X0095047Y0114618D02*
X0086311Y0114618D01*
X0087309Y0113620D02*
X0095047Y0113620D01*
X0095047Y0112621D02*
X0087738Y0112621D01*
X0087953Y0111623D02*
X0095047Y0111623D01*
X0095047Y0110624D02*
X0087953Y0110624D01*
X0088358Y0109626D02*
X0095047Y0109626D01*
X0095047Y0108627D02*
X0089357Y0108627D01*
X0090355Y0107629D02*
X0095047Y0107629D01*
X0095047Y0106630D02*
X0091354Y0106630D01*
X0092352Y0105632D02*
X0095047Y0105632D01*
X0095047Y0104633D02*
X0093351Y0104633D01*
X0094079Y0103635D02*
X0095047Y0103635D01*
X0095047Y0102636D02*
X0094079Y0102636D01*
X0094079Y0101638D02*
X0095047Y0101638D01*
X0090126Y0101638D02*
X0077087Y0101638D01*
X0077937Y0100639D02*
X0087469Y0100639D01*
X0087469Y0099641D02*
X0077937Y0099641D01*
X0077937Y0098642D02*
X0087469Y0098642D01*
X0087469Y0097644D02*
X0077937Y0097644D01*
X0077937Y0096645D02*
X0087469Y0096645D01*
X0086946Y0095647D02*
X0077937Y0095647D01*
X0077937Y0094648D02*
X0085948Y0094648D01*
X0084949Y0093650D02*
X0077937Y0093650D01*
X0077329Y0092651D02*
X0080014Y0092651D01*
X0079015Y0091653D02*
X0077061Y0091653D01*
X0077061Y0090654D02*
X0078017Y0090654D01*
X0080611Y0087659D02*
X0095047Y0087659D01*
X0095047Y0088657D02*
X0081610Y0088657D01*
X0082586Y0089634D02*
X0086523Y0089634D01*
X0090362Y0093472D01*
X0095047Y0093472D01*
X0095047Y0085154D01*
X0094784Y0085417D01*
X0088436Y0085417D01*
X0087567Y0084548D01*
X0087567Y0077346D01*
X0081314Y0077346D01*
X0078245Y0080416D01*
X0077337Y0080791D01*
X0076209Y0080791D01*
X0076192Y0080809D01*
X0072064Y0080809D01*
X0071725Y0080954D01*
X0071362Y0080809D01*
X0069962Y0080809D01*
X0069093Y0079939D01*
X0069093Y0079807D01*
X0062091Y0079807D01*
X0062091Y0082547D01*
X0069354Y0082547D01*
X0069962Y0081939D01*
X0076192Y0081939D01*
X0077061Y0082809D01*
X0077061Y0085697D01*
X0078649Y0085697D01*
X0082586Y0089634D01*
X0079613Y0086660D02*
X0095047Y0086660D01*
X0095047Y0085662D02*
X0077061Y0085662D01*
X0077061Y0084663D02*
X0087682Y0084663D01*
X0087567Y0083665D02*
X0077061Y0083665D01*
X0076919Y0082666D02*
X0087567Y0082666D01*
X0087567Y0081668D02*
X0062091Y0081668D01*
X0062091Y0080669D02*
X0069823Y0080669D01*
X0069093Y0086660D02*
X0059082Y0086660D01*
X0059245Y0085662D02*
X0058509Y0085662D01*
X0058246Y0084663D02*
X0056937Y0084663D01*
X0055418Y0084663D02*
X0055312Y0084663D01*
X0055128Y0083665D02*
X0058138Y0083665D01*
X0059249Y0087659D02*
X0069093Y0087659D01*
X0069093Y0088657D02*
X0059094Y0088657D01*
X0058539Y0089656D02*
X0069093Y0089656D01*
X0069093Y0090654D02*
X0057971Y0090654D01*
X0056961Y0091653D02*
X0069093Y0091653D01*
X0069206Y0092651D02*
X0055963Y0092651D01*
X0056177Y0089642D02*
X0056177Y0087673D01*
X0052732Y0085213D02*
X0052240Y0084720D01*
X0052732Y0085213D02*
X0052732Y0090134D01*
X0051453Y0096699D02*
X0051256Y0097487D01*
X0045154Y0096699D02*
X0045154Y0092791D01*
X0043597Y0084663D02*
X0043261Y0084663D01*
X0043261Y0083665D02*
X0044596Y0083665D01*
X0045594Y0082666D02*
X0043261Y0082666D01*
X0043261Y0081668D02*
X0046593Y0081668D01*
X0047591Y0080669D02*
X0043261Y0080669D01*
X0043261Y0079671D02*
X0048590Y0079671D01*
X0043261Y0076675D02*
X0058475Y0076675D01*
X0061564Y0072681D02*
X0069093Y0072681D01*
X0069093Y0071682D02*
X0062724Y0071682D01*
X0063138Y0070684D02*
X0069093Y0070684D01*
X0069086Y0069685D02*
X0069093Y0069685D01*
X0064922Y0069685D02*
X0063186Y0069685D01*
X0062913Y0068687D02*
X0063923Y0068687D01*
X0062925Y0067688D02*
X0062190Y0067688D01*
X0077633Y0080669D02*
X0087567Y0080669D01*
X0087567Y0079671D02*
X0078990Y0079671D01*
X0079988Y0078672D02*
X0087567Y0078672D01*
X0087567Y0077673D02*
X0080987Y0077673D01*
X0086545Y0089656D02*
X0095047Y0089656D01*
X0095047Y0090654D02*
X0087544Y0090654D01*
X0088542Y0091653D02*
X0095047Y0091653D01*
X0095047Y0092651D02*
X0089541Y0092651D01*
X0089758Y0102636D02*
X0075348Y0102636D01*
X0074712Y0103272D02*
X0074712Y0103272D01*
X0074349Y0103635D02*
X0088759Y0103635D01*
X0087761Y0104633D02*
X0073351Y0104633D01*
X0072352Y0105632D02*
X0086762Y0105632D01*
X0085764Y0106630D02*
X0071354Y0106630D01*
X0070355Y0107629D02*
X0082138Y0107629D01*
X0080821Y0108627D02*
X0069357Y0108627D01*
X0068358Y0109626D02*
X0080192Y0109626D01*
X0079835Y0110624D02*
X0067953Y0110624D01*
X0067953Y0111623D02*
X0079835Y0111623D01*
X0080050Y0112621D02*
X0067738Y0112621D01*
X0067309Y0113620D02*
X0080478Y0113620D01*
X0081476Y0114618D02*
X0066311Y0114618D01*
X0061476Y0114618D02*
X0050728Y0114618D01*
X0051726Y0113620D02*
X0060478Y0113620D01*
X0060050Y0112621D02*
X0052725Y0112621D01*
X0053723Y0111623D02*
X0059835Y0111623D01*
X0059835Y0110624D02*
X0054722Y0110624D01*
X0055720Y0109626D02*
X0060192Y0109626D01*
X0060821Y0108627D02*
X0056579Y0108627D01*
X0056579Y0107629D02*
X0062138Y0107629D01*
X0065764Y0106630D02*
X0056579Y0106630D01*
X0056579Y0105632D02*
X0066762Y0105632D01*
X0067761Y0104633D02*
X0056579Y0104633D01*
X0056579Y0103635D02*
X0068759Y0103635D01*
X0069758Y0102636D02*
X0056579Y0102636D01*
X0056579Y0101638D02*
X0070700Y0101638D01*
X0069850Y0100639D02*
X0068960Y0100639D01*
X0069785Y0099641D02*
X0069850Y0099641D01*
X0069850Y0098642D02*
X0069785Y0098642D01*
X0069785Y0097644D02*
X0069850Y0097644D01*
X0069850Y0096645D02*
X0069785Y0096645D01*
X0069785Y0095647D02*
X0069850Y0095647D01*
X0069850Y0094648D02*
X0069785Y0094648D01*
X0069785Y0093650D02*
X0069850Y0093650D01*
X0041181Y0109626D02*
X0040064Y0109626D01*
X0040913Y0110624D02*
X0021244Y0110624D01*
X0021244Y0111623D02*
X0023210Y0111623D01*
X0022212Y0112621D02*
X0021244Y0112621D01*
X0028120Y0111623D02*
X0040913Y0111623D01*
X0040913Y0112621D02*
X0029119Y0112621D01*
X0034948Y0081668D02*
X0035293Y0081668D01*
X0025209Y0067688D02*
X0021244Y0067688D01*
D24*
X0022713Y0077831D03*
X0032063Y0077339D03*
X0036492Y0063067D03*
X0036000Y0056177D03*
X0048795Y0057161D03*
X0055193Y0052732D03*
X0055193Y0048303D03*
X0055685Y0057161D03*
X0060114Y0069957D03*
X0052240Y0084720D03*
X0048303Y0088657D03*
X0056177Y0087673D03*
X0039445Y0096039D03*
X0025665Y0099976D03*
X0069957Y0055193D03*
X0073894Y0049287D03*
X0079307Y0049287D03*
X0074878Y0062575D03*
X0094071Y0059622D03*
X0094071Y0054701D03*
X0083736Y0088165D03*
X0090626Y0115232D03*
X0073894Y0115232D03*
D25*
X0066785Y0054593D02*
X0060238Y0054593D01*
X0059953Y0054878D01*
X0057887Y0054878D01*
X0057482Y0054473D01*
X0056316Y0053990D01*
X0055054Y0053990D01*
X0054290Y0054306D01*
X0053332Y0053349D01*
X0053332Y0051380D01*
X0052713Y0050760D01*
X0052713Y0039878D01*
X0068776Y0039878D01*
X0068776Y0046056D01*
X0068372Y0046459D01*
X0068372Y0051624D01*
X0068776Y0052027D01*
X0068776Y0052249D01*
X0068160Y0052504D01*
X0067268Y0053396D01*
X0066785Y0054562D01*
X0066785Y0054593D01*
X0066804Y0054517D02*
X0057526Y0054517D01*
X0053332Y0053318D02*
X0067346Y0053318D01*
X0068776Y0052120D02*
X0053332Y0052120D01*
X0052873Y0050921D02*
X0068372Y0050921D01*
X0068372Y0049723D02*
X0052713Y0049723D01*
X0052713Y0048524D02*
X0068372Y0048524D01*
X0068372Y0047326D02*
X0052713Y0047326D01*
X0052713Y0046127D02*
X0068704Y0046127D01*
X0068776Y0044929D02*
X0052713Y0044929D01*
X0052713Y0043730D02*
X0068776Y0043730D01*
X0068776Y0042532D02*
X0052713Y0042532D01*
X0052713Y0041333D02*
X0068776Y0041333D01*
X0068776Y0040135D02*
X0052713Y0040135D01*
D26*
X0055193Y0038461D02*
X0055193Y0048303D01*
X0055193Y0038461D02*
X0053224Y0036492D01*
X0049091Y0036492D01*
X0048106Y0037476D01*
D27*
X0080291Y0074878D02*
X0091610Y0074878D01*
X0093579Y0074878D01*
X0094563Y0073894D01*
X0094563Y0060114D01*
X0094071Y0059622D01*
X0091610Y0074878D02*
X0091610Y0080783D01*
X0080291Y0074878D02*
X0076846Y0078323D01*
X0073176Y0078323D01*
X0073077Y0078224D01*
M02*
