%
M48
M72
T01C0.01575
T02C0.02400
T03C0.03200
T04C0.03937
T05C0.04000
T06C0.04331
T07C0.07874
T08C0.11024
%
T01
X80772Y76526
X96520Y76526
X96520Y69636
X104394Y57825
X127031Y121801
X129000Y126722
X134906Y139518
X136874Y145423
X141795Y145423
X144256Y138630
X144562Y133426
X155575Y137549
X162465Y138533
X167386Y140502
X170339Y144439
X166402Y147392
X162465Y143947
X157543Y147392
X151751Y147505
X148685Y158711
X159008Y167581
X163647Y169832
X168568Y173769
X177228Y178888
X181165Y172982
X173291Y164616
X177228Y162156
X168370Y158711
X181165Y153297
X181165Y148376
X182150Y138533
X192484Y121801
X192484Y117372
X192484Y112943
X182150Y100148
X191500Y96703
X212661Y107037
X212661Y111959
X212661Y116880
X212661Y121801
X235299Y124754
X251047Y124754
X228409Y100148
X224965Y145915
X233331Y156250
X214630Y175935
X214630Y181841
X203803Y164124
X203803Y159203
X198882Y153789
X185102Y183809
X185102Y189715
X169354Y199557
X169354Y204478
X158528Y217274
X151638Y195620
X157543Y180856
X145732Y170030
X135890Y171014
X132937Y178888
X126047Y186762
X126047Y192667
X109315Y189715
X108220Y184793
X96520Y174078
X93523Y177947
X112268Y159203
X116205Y155266
X116697Y137057
X80772Y121801
X60102Y135089
X72787Y150344
X77819Y150344
X107346Y217274
X136874Y248770
X166402Y273376
X171323Y270423
X176244Y267470
X196913Y262549
X198882Y268455
X198882Y273376
X211677Y221211
X201835Y216289
T02
X167543Y105226
X147543Y105226
T03
X134079Y113927
X124079Y105679
X129079Y98179
X119079Y98179
X114079Y86368
X119000Y77510
X114079Y65699
X134079Y65699
X139000Y77510
X147543Y79478
X147543Y90305
X134079Y86368
X114079Y113927
X101598Y113927
X101598Y106053
X101598Y98179
X101598Y90305
X81598Y90305
X74039Y90305
X74039Y98179
X81598Y98179
X81598Y106053
X74039Y106053
X74039Y113927
X81598Y113927
X74039Y127707
X54039Y127707
X54039Y113927
X54039Y106053
X54039Y98179
X54039Y90305
X54000Y149892
X64000Y159705
X69000Y167205
X74000Y159705
X86677Y167904
X78961Y175935
X78961Y187746
X86677Y187904
X82740Y207274
X72898Y207274
X92583Y207274
X102425Y207274
X112268Y207274
X121126Y207274
X129000Y207274
X129000Y227274
X121126Y227274
X117189Y233396
X112268Y227274
X102425Y227274
X92583Y227274
X82740Y227274
X82740Y234833
X72898Y234833
X72898Y227274
X72898Y254833
X82740Y254833
X112189Y240896
X122189Y240896
X139827Y238770
X147701Y238770
X155575Y238770
X163449Y238770
X175024Y239833
X175024Y249833
X163449Y258770
X155575Y258770
X147701Y258770
X139827Y258770
X205024Y249833
X213646Y254833
X223488Y254833
X233331Y254833
X226500Y264892
X226500Y272392
X243173Y254833
X246500Y264892
X246500Y272392
X243173Y234833
X243173Y227274
X233331Y227274
X233331Y234833
X223488Y234833
X223488Y227274
X213646Y227274
X213646Y234833
X205024Y239833
X213646Y207274
X223488Y207274
X233331Y207274
X243173Y207274
X243173Y199715
X243173Y179715
X264669Y131644
X264669Y122785
X264669Y112943
X264669Y103100
X274669Y94852
X269669Y87352
X279669Y87352
X274669Y75699
X262858Y75699
X262858Y55699
X274669Y55699
X284669Y103100
X284669Y112943
X284669Y122785
X284669Y131644
X251126Y109006
X241126Y109006
X167543Y90305
X167543Y79478
X58961Y175935
X54000Y169892
X58961Y187746
T04
X59000Y207392
X115378Y256486
X115378Y276486
X95378Y266486
X256500Y207392
T05
X256500Y217392
X256500Y227392
X256500Y237392
X256500Y247392
X256500Y257392
X256500Y267392
X276500Y267392
X276500Y257392
X276500Y247392
X276500Y237392
X276500Y227392
X276500Y217392
X296500Y217392
X296500Y227392
X296500Y237392
X296500Y247392
X296500Y257392
X296500Y267392
X245161Y288140
X235161Y288140
X225161Y288140
X215161Y288140
X205161Y288140
X195161Y288140
X185161Y288140
X175161Y288140
X165161Y288140
X155161Y288140
X145161Y288140
X135161Y288140
X125161Y288140
X115161Y288140
X105161Y288140
X95161Y288140
X85161Y288140
X75161Y288140
X65161Y288140
X55161Y288140
X59000Y267392
X59000Y257392
X59000Y247392
X59000Y237392
X59000Y227392
X59000Y217392
X39000Y217392
X39000Y227392
X39000Y237392
X39000Y247392
X39000Y257392
X39000Y267392
X19000Y267392
X19000Y257392
X19000Y247392
X19000Y237392
X19000Y227392
X19000Y217392
X19000Y207392
X19000Y197392
X19000Y187392
X19000Y177392
X19000Y167392
X19000Y157392
X19000Y142392
X19000Y132392
X19000Y122392
X19000Y112392
X19000Y102392
X19000Y92392
X19000Y82392
X19000Y72392
X19000Y62392
X19000Y52392
X39000Y52392
X39000Y62392
X39000Y72392
X39000Y82392
X39000Y92392
X39000Y122392
X39000Y132392
X39000Y142392
X39000Y157392
X39000Y167392
X39000Y177392
X39000Y187392
X39000Y197392
X94000Y147392
X104000Y147392
X104000Y137392
X94000Y137392
X94000Y127392
X104000Y127392
X119000Y52392
X129000Y52392
X139000Y52392
X154000Y52392
X164000Y52392
X174000Y52392
X189000Y52392
X199000Y52392
X209000Y52392
X224000Y52392
X234000Y52392
X244000Y52392
X250063Y71447
X250063Y81447
X250063Y91447
X296500Y92392
X296500Y82392
X296500Y72392
X296500Y62392
X296500Y52392
X244000Y32392
X234000Y32392
X224000Y32392
X209000Y32392
X199000Y32392
X189000Y32392
X174000Y32392
X164000Y32392
X154000Y32392
X139000Y32392
X129000Y32392
X119000Y32392
X296500Y112392
X296500Y122392
X296500Y132392
X296500Y157392
X296500Y167392
X296500Y177392
X296500Y187392
X296500Y197392
X296500Y207392
T06
X294591Y142470
X264591Y142470
X256205Y131644
X226205Y131644
X82031Y142392
X52031Y142392
T07
X105378Y266486
T08
X23685Y32234
X23685Y288140
X291402Y288140
X291402Y32234
M30
