G75*
%MOIN*%
%OFA0B0*%
%FSLAX25Y25*%
%IPPOS*%
%LPD*%
%AMOC8*
5,1,8,0,0,1.08239X$1,22.5*
%
%ADD10C,0.00700*%
%ADD11C,0.00600*%
%ADD12C,0.01000*%
%ADD13C,0.00500*%
%ADD14C,0.00800*%
D10*
X0257303Y0160537D02*
X0257303Y0162689D01*
X0258020Y0163406D01*
X0258737Y0163406D01*
X0259455Y0162689D01*
X0259455Y0160537D01*
X0261606Y0160537D02*
X0261606Y0162689D01*
X0260889Y0163406D01*
X0260172Y0163406D01*
X0259455Y0162689D01*
X0258020Y0165141D02*
X0257303Y0165858D01*
X0257303Y0167293D01*
X0258020Y0168010D01*
X0261606Y0168010D01*
X0261606Y0169745D02*
X0257303Y0169745D01*
X0258737Y0169745D02*
X0261606Y0172614D01*
X0261606Y0174349D02*
X0261606Y0177218D01*
X0260889Y0177218D01*
X0258020Y0174349D01*
X0257303Y0174349D01*
X0257303Y0172614D02*
X0259455Y0170462D01*
X0264803Y0169745D02*
X0264803Y0171897D01*
X0265520Y0172614D01*
X0266237Y0171897D01*
X0266237Y0170462D01*
X0266955Y0169745D01*
X0267672Y0170462D01*
X0267672Y0172614D01*
X0267672Y0174349D02*
X0267672Y0175066D01*
X0264803Y0175066D01*
X0264803Y0174349D02*
X0264803Y0175783D01*
X0265520Y0177418D02*
X0264803Y0178135D01*
X0264803Y0180287D01*
X0264085Y0180287D02*
X0267672Y0180287D01*
X0267672Y0178135D01*
X0266955Y0177418D01*
X0265520Y0177418D01*
X0263368Y0178853D02*
X0263368Y0179570D01*
X0264085Y0180287D01*
X0264803Y0182022D02*
X0267672Y0182022D01*
X0267672Y0184174D01*
X0266955Y0184891D01*
X0264803Y0184891D01*
X0261606Y0183557D02*
X0259455Y0183557D01*
X0260172Y0184991D01*
X0260172Y0185708D01*
X0259455Y0186426D01*
X0258020Y0186426D01*
X0257303Y0185708D01*
X0257303Y0184274D01*
X0258020Y0183557D01*
X0259455Y0181822D02*
X0259455Y0178953D01*
X0261606Y0181105D01*
X0257303Y0181105D01*
X0261606Y0183557D02*
X0261606Y0186426D01*
X0259455Y0188161D02*
X0258020Y0188161D01*
X0257303Y0188878D01*
X0257303Y0190312D01*
X0258020Y0191030D01*
X0258737Y0191030D01*
X0259455Y0190312D01*
X0259455Y0188161D01*
X0260889Y0189595D01*
X0261606Y0191030D01*
X0264803Y0191230D02*
X0264803Y0193382D01*
X0265520Y0194099D01*
X0266955Y0194099D01*
X0267672Y0193382D01*
X0267672Y0191230D01*
X0269106Y0191230D02*
X0264803Y0191230D01*
X0265520Y0195834D02*
X0264803Y0196551D01*
X0264803Y0198703D01*
X0264085Y0198703D02*
X0263368Y0197986D01*
X0263368Y0197268D01*
X0264085Y0198703D02*
X0267672Y0198703D01*
X0267672Y0195834D02*
X0265520Y0195834D01*
X0269106Y0175066D02*
X0269824Y0175066D01*
X0266955Y0168010D02*
X0266237Y0168010D01*
X0266237Y0165141D01*
X0265520Y0165141D02*
X0266955Y0165141D01*
X0267672Y0165858D01*
X0267672Y0167293D01*
X0266955Y0168010D01*
X0264803Y0167293D02*
X0264803Y0165858D01*
X0265520Y0165141D01*
X0265520Y0163406D02*
X0268389Y0163406D01*
X0269106Y0162689D01*
X0269106Y0160537D01*
X0264803Y0160537D01*
X0264803Y0162689D01*
X0265520Y0163406D01*
X0261606Y0165141D02*
X0258020Y0165141D01*
X0257303Y0160537D02*
X0261606Y0160537D01*
D11*
X0008741Y0045107D02*
X0008174Y0045674D01*
X0008174Y0046808D01*
X0008741Y0047375D01*
X0009875Y0047375D01*
X0009875Y0046241D01*
X0008741Y0045107D02*
X0011010Y0045107D01*
X0011577Y0045674D01*
X0011577Y0046808D01*
X0011010Y0047375D01*
X0010443Y0048790D02*
X0008174Y0048790D01*
X0008174Y0051059D02*
X0009875Y0051059D01*
X0010443Y0050491D01*
X0010443Y0048790D01*
X0014000Y0049892D02*
X0016500Y0047392D01*
X0021500Y0047392D01*
X0024000Y0049892D01*
X0027859Y0048790D02*
X0030128Y0048790D01*
X0030128Y0050491D01*
X0029561Y0051059D01*
X0027859Y0051059D01*
X0028426Y0052473D02*
X0027859Y0053040D01*
X0027859Y0054742D01*
X0031262Y0054742D01*
X0030128Y0054742D02*
X0030128Y0053040D01*
X0029561Y0052473D01*
X0028426Y0052473D01*
X0034000Y0054892D02*
X0036500Y0057392D01*
X0034000Y0059892D01*
X0031262Y0059917D02*
X0031262Y0057648D01*
X0029561Y0057648D01*
X0030128Y0058783D01*
X0030128Y0059350D01*
X0029561Y0059917D01*
X0028426Y0059917D01*
X0027859Y0059350D01*
X0027859Y0058215D01*
X0028426Y0057648D01*
X0028993Y0061331D02*
X0027859Y0062466D01*
X0028993Y0063600D01*
X0031262Y0063600D01*
X0031262Y0061331D02*
X0028993Y0061331D01*
X0034000Y0064892D02*
X0036500Y0067392D01*
X0034000Y0069892D01*
X0031262Y0068462D02*
X0030695Y0069029D01*
X0029561Y0069029D01*
X0028993Y0068462D01*
X0028993Y0066760D01*
X0027859Y0066760D02*
X0031262Y0066760D01*
X0031262Y0068462D01*
X0030128Y0070444D02*
X0027859Y0072712D01*
X0027859Y0074127D02*
X0027859Y0076395D01*
X0027859Y0075261D02*
X0031262Y0075261D01*
X0030128Y0074127D01*
X0030128Y0072712D02*
X0027859Y0070444D01*
X0027859Y0069029D02*
X0028993Y0067895D01*
X0024000Y0069892D02*
X0021500Y0067392D01*
X0024000Y0064892D01*
X0024000Y0059892D02*
X0021500Y0057392D01*
X0024000Y0054892D01*
X0016500Y0057392D02*
X0014000Y0054892D01*
X0011577Y0054742D02*
X0008174Y0054742D01*
X0008174Y0053040D01*
X0008741Y0052473D01*
X0009875Y0052473D01*
X0010443Y0053040D01*
X0010443Y0054742D01*
X0009875Y0057648D02*
X0010443Y0058783D01*
X0010443Y0059350D01*
X0009875Y0059917D01*
X0008741Y0059917D01*
X0008174Y0059350D01*
X0008174Y0058215D01*
X0008741Y0057648D01*
X0009875Y0057648D02*
X0011577Y0057648D01*
X0011577Y0059917D01*
X0011577Y0061331D02*
X0009308Y0061331D01*
X0008174Y0062466D01*
X0009308Y0063600D01*
X0011577Y0063600D01*
X0011577Y0065776D02*
X0011577Y0067478D01*
X0011010Y0068045D01*
X0009875Y0068045D01*
X0009308Y0067478D01*
X0009308Y0065776D01*
X0008174Y0065776D02*
X0011577Y0065776D01*
X0009308Y0066910D02*
X0008174Y0068045D01*
X0008174Y0069459D02*
X0010443Y0071728D01*
X0011010Y0073142D02*
X0011577Y0073710D01*
X0011577Y0074844D01*
X0011010Y0075411D01*
X0010443Y0075411D01*
X0008174Y0073142D01*
X0008174Y0075411D01*
X0008237Y0078944D02*
X0011640Y0078944D01*
X0011640Y0077810D02*
X0011640Y0080078D01*
X0010506Y0081493D02*
X0008237Y0083762D01*
X0008237Y0085176D02*
X0010506Y0087445D01*
X0011073Y0087445D01*
X0011640Y0086878D01*
X0011640Y0085743D01*
X0011073Y0085176D01*
X0010506Y0083762D02*
X0008237Y0081493D01*
X0008237Y0085176D02*
X0008237Y0087445D01*
X0014000Y0089892D02*
X0016500Y0087392D01*
X0014000Y0084892D01*
X0014000Y0079892D02*
X0016500Y0077392D01*
X0014000Y0074892D01*
X0014000Y0069892D02*
X0016500Y0067392D01*
X0014000Y0064892D01*
X0014000Y0059892D02*
X0016500Y0057392D01*
X0010443Y0069459D02*
X0008174Y0071728D01*
X0021500Y0077392D02*
X0024000Y0074892D01*
X0021500Y0077392D02*
X0024000Y0079892D01*
X0027922Y0078944D02*
X0031325Y0078944D01*
X0031325Y0077810D02*
X0031325Y0080078D01*
X0030191Y0081493D02*
X0027922Y0083762D01*
X0027922Y0085176D02*
X0027922Y0087445D01*
X0027922Y0086310D02*
X0031325Y0086310D01*
X0030191Y0085176D01*
X0030191Y0083762D02*
X0027922Y0081493D01*
X0024000Y0084892D02*
X0021500Y0087392D01*
X0024000Y0089892D01*
X0024000Y0094892D02*
X0021500Y0097392D01*
X0016500Y0097392D01*
X0014000Y0094892D01*
X0016500Y0097392D02*
X0021500Y0097392D01*
X0024000Y0099892D01*
X0024000Y0104892D02*
X0021500Y0107392D01*
X0024000Y0109892D01*
X0024000Y0114892D02*
X0021500Y0117392D01*
X0024000Y0119892D01*
X0024000Y0124892D02*
X0021500Y0127392D01*
X0024000Y0129892D01*
X0027709Y0130980D02*
X0031112Y0130980D01*
X0031112Y0132682D01*
X0030545Y0133249D01*
X0029410Y0133249D01*
X0028843Y0132682D01*
X0028843Y0130980D01*
X0029410Y0129566D02*
X0028843Y0128999D01*
X0028843Y0127864D01*
X0029410Y0127297D01*
X0030545Y0127864D02*
X0030545Y0128999D01*
X0029978Y0129566D01*
X0029410Y0129566D01*
X0030545Y0127864D02*
X0031112Y0127297D01*
X0031679Y0127297D01*
X0032246Y0127864D01*
X0032246Y0128999D01*
X0031679Y0129566D01*
X0034000Y0129892D02*
X0036500Y0127392D01*
X0034000Y0124892D01*
X0034000Y0119892D02*
X0036500Y0117392D01*
X0041500Y0117392D01*
X0044000Y0119892D01*
X0046560Y0119656D02*
X0049963Y0119656D01*
X0046560Y0121925D01*
X0049963Y0121925D01*
X0048261Y0123339D02*
X0047127Y0123339D01*
X0046560Y0123906D01*
X0046560Y0125608D01*
X0048828Y0125608D02*
X0048828Y0123906D01*
X0048261Y0123339D01*
X0044000Y0124892D02*
X0041500Y0127392D01*
X0044000Y0129892D01*
X0044000Y0134892D02*
X0041500Y0137392D01*
X0044000Y0139892D01*
X0046707Y0142503D02*
X0048976Y0142503D01*
X0047841Y0141369D02*
X0047841Y0143638D01*
X0044000Y0144892D02*
X0041500Y0147392D01*
X0036500Y0147392D01*
X0034000Y0144892D01*
X0034000Y0139892D02*
X0036500Y0137392D01*
X0034000Y0134892D01*
X0032246Y0134663D02*
X0028843Y0134663D01*
X0029978Y0134663D02*
X0031112Y0136365D01*
X0031112Y0137733D02*
X0028843Y0137733D01*
X0029978Y0137733D02*
X0031112Y0138867D01*
X0031112Y0139434D01*
X0028843Y0136365D02*
X0029978Y0134663D01*
X0024000Y0134892D02*
X0021500Y0137392D01*
X0024000Y0139892D01*
X0024000Y0144892D02*
X0021500Y0147392D01*
X0016500Y0147392D01*
X0014000Y0144892D01*
X0010506Y0144068D02*
X0010506Y0145769D01*
X0009371Y0145202D02*
X0009371Y0144068D01*
X0009938Y0143501D01*
X0010506Y0144068D01*
X0009371Y0145202D02*
X0008804Y0145769D01*
X0008237Y0145202D01*
X0008237Y0143501D01*
X0008237Y0142086D02*
X0009371Y0140952D01*
X0009371Y0141519D02*
X0009371Y0139818D01*
X0008237Y0139818D02*
X0011640Y0139818D01*
X0011640Y0141519D01*
X0011073Y0142086D01*
X0009938Y0142086D01*
X0009371Y0141519D01*
X0008741Y0137419D02*
X0008174Y0136852D01*
X0008174Y0135717D01*
X0008741Y0135150D01*
X0011010Y0137419D01*
X0008741Y0137419D01*
X0008741Y0135150D02*
X0011010Y0135150D01*
X0011577Y0135717D01*
X0011577Y0136852D01*
X0011010Y0137419D01*
X0010443Y0133736D02*
X0008174Y0131467D01*
X0010443Y0131467D02*
X0008174Y0133736D01*
X0011577Y0130053D02*
X0011577Y0127784D01*
X0011577Y0128918D02*
X0008174Y0128918D01*
X0008741Y0126592D02*
X0008174Y0126025D01*
X0008174Y0124891D01*
X0008741Y0124324D01*
X0011010Y0126592D01*
X0008741Y0126592D01*
X0008741Y0124324D02*
X0011010Y0124324D01*
X0011577Y0124891D01*
X0011577Y0126025D01*
X0011010Y0126592D01*
X0014000Y0124892D02*
X0016500Y0127392D01*
X0014000Y0129892D01*
X0014000Y0134892D02*
X0016500Y0137392D01*
X0014000Y0139892D01*
X0010506Y0147184D02*
X0010506Y0148318D01*
X0011073Y0147751D02*
X0008804Y0147751D01*
X0008237Y0148318D01*
X0008174Y0153121D02*
X0008174Y0154822D01*
X0008741Y0155389D01*
X0011010Y0155389D01*
X0011577Y0154822D01*
X0011577Y0153121D01*
X0008174Y0153121D01*
X0008174Y0156804D02*
X0010443Y0156804D01*
X0010443Y0158505D01*
X0009875Y0159072D01*
X0008174Y0159072D01*
X0008741Y0161249D02*
X0008174Y0161816D01*
X0008174Y0162950D01*
X0008741Y0163517D01*
X0009875Y0163517D01*
X0009875Y0162383D01*
X0008741Y0161249D02*
X0011010Y0161249D01*
X0011577Y0161816D01*
X0011577Y0162950D01*
X0011010Y0163517D01*
X0010443Y0164932D02*
X0010443Y0166633D01*
X0009875Y0167200D01*
X0008174Y0167200D01*
X0008741Y0168615D02*
X0009875Y0168615D01*
X0010443Y0169182D01*
X0010443Y0170883D01*
X0011577Y0170883D02*
X0008174Y0170883D01*
X0008174Y0169182D01*
X0008741Y0168615D01*
X0008174Y0164932D02*
X0010443Y0164932D01*
X0014000Y0164892D02*
X0016500Y0162392D01*
X0014000Y0159892D01*
X0014000Y0154892D02*
X0016500Y0152392D01*
X0021500Y0152392D01*
X0024000Y0154892D01*
X0024000Y0159892D02*
X0021500Y0162392D01*
X0024000Y0164892D01*
X0025891Y0165683D02*
X0025891Y0166817D01*
X0025891Y0166250D02*
X0028159Y0166250D01*
X0028159Y0165683D01*
X0029293Y0166250D02*
X0029861Y0166250D01*
X0028159Y0168138D02*
X0028159Y0168705D01*
X0027592Y0169273D01*
X0028159Y0169840D01*
X0027592Y0170407D01*
X0025891Y0170407D01*
X0025891Y0169273D02*
X0027592Y0169273D01*
X0028159Y0168138D02*
X0025891Y0168138D01*
X0024000Y0169892D02*
X0021500Y0172392D01*
X0024000Y0174892D01*
X0025891Y0175505D02*
X0025891Y0177773D01*
X0025891Y0176639D02*
X0029293Y0176639D01*
X0028159Y0175505D01*
X0028726Y0174090D02*
X0027592Y0172956D01*
X0025891Y0172956D01*
X0027592Y0172956D02*
X0028726Y0171821D01*
X0029293Y0171821D01*
X0029293Y0174090D02*
X0028726Y0174090D01*
X0034000Y0174892D02*
X0036500Y0172392D01*
X0034000Y0169892D01*
X0034000Y0164892D02*
X0036500Y0162392D01*
X0034000Y0159892D01*
X0029293Y0160065D02*
X0025891Y0160065D01*
X0025891Y0162614D02*
X0028159Y0162614D01*
X0027025Y0162614D02*
X0028159Y0163748D01*
X0028159Y0164315D01*
X0029293Y0161199D02*
X0029293Y0158930D01*
X0034000Y0154892D02*
X0036500Y0152392D01*
X0041500Y0152392D01*
X0044000Y0154892D01*
X0046560Y0154672D02*
X0046560Y0155806D01*
X0047127Y0156374D01*
X0049963Y0156374D01*
X0048828Y0157788D02*
X0045426Y0157788D01*
X0046560Y0157788D02*
X0046560Y0159490D01*
X0047127Y0160057D01*
X0048261Y0160057D01*
X0048828Y0159490D01*
X0048828Y0157788D01*
X0049963Y0154105D02*
X0047127Y0154105D01*
X0046560Y0154672D01*
X0044000Y0159892D02*
X0041500Y0162392D01*
X0044000Y0164892D01*
X0046560Y0165162D02*
X0046560Y0164028D01*
X0047127Y0163461D01*
X0048261Y0164028D02*
X0048261Y0165162D01*
X0047694Y0165729D01*
X0047127Y0165729D01*
X0046560Y0165162D01*
X0048261Y0164028D02*
X0048828Y0163461D01*
X0049396Y0163461D01*
X0049963Y0164028D01*
X0049963Y0165162D01*
X0049396Y0165729D01*
X0048261Y0167144D02*
X0047127Y0167144D01*
X0046560Y0167711D01*
X0046560Y0168845D01*
X0047694Y0169412D02*
X0047694Y0167144D01*
X0048261Y0167144D02*
X0048828Y0167711D01*
X0048828Y0168845D01*
X0048261Y0169412D01*
X0047694Y0169412D01*
X0046560Y0170827D02*
X0046560Y0171961D01*
X0046560Y0171394D02*
X0049963Y0171394D01*
X0049963Y0170827D01*
X0049963Y0174774D02*
X0046560Y0174774D01*
X0046560Y0176476D01*
X0047127Y0177043D01*
X0049396Y0177043D01*
X0049963Y0176476D01*
X0049963Y0174774D01*
X0048828Y0178457D02*
X0046560Y0178457D01*
X0048828Y0178457D02*
X0048828Y0180159D01*
X0048261Y0180726D01*
X0046560Y0180726D01*
X0044000Y0179892D02*
X0041500Y0182392D01*
X0044000Y0184892D01*
X0044000Y0189892D02*
X0041500Y0192392D01*
X0044000Y0194892D01*
X0046560Y0194459D02*
X0048828Y0194459D01*
X0048828Y0196161D01*
X0048261Y0196728D01*
X0046560Y0196728D01*
X0047127Y0198142D02*
X0048261Y0198142D01*
X0048828Y0198710D01*
X0048828Y0200411D01*
X0049963Y0200411D02*
X0046560Y0200411D01*
X0046560Y0198710D01*
X0047127Y0198142D01*
X0044000Y0199892D02*
X0041500Y0202392D01*
X0036500Y0202392D01*
X0034000Y0199892D01*
X0029293Y0200365D02*
X0025891Y0202633D01*
X0025891Y0204048D02*
X0025891Y0206317D01*
X0025891Y0205182D02*
X0029293Y0205182D01*
X0028159Y0204048D01*
X0029293Y0202633D02*
X0025891Y0200365D01*
X0025891Y0198950D02*
X0027592Y0198950D01*
X0028159Y0198383D01*
X0027592Y0197816D01*
X0025891Y0197816D01*
X0025891Y0196682D02*
X0028159Y0196682D01*
X0028159Y0197249D01*
X0027592Y0197816D01*
X0025891Y0195361D02*
X0025891Y0194226D01*
X0025891Y0194793D02*
X0028159Y0194793D01*
X0028159Y0194226D01*
X0029293Y0194793D02*
X0029861Y0194793D01*
X0028159Y0192858D02*
X0028159Y0192291D01*
X0027025Y0191157D01*
X0025891Y0191157D02*
X0028159Y0191157D01*
X0029293Y0189742D02*
X0029293Y0187474D01*
X0029293Y0188608D02*
X0025891Y0188608D01*
X0024000Y0189892D02*
X0021500Y0192392D01*
X0024000Y0194892D01*
X0024000Y0199892D02*
X0021500Y0202392D01*
X0024000Y0204892D01*
X0024000Y0209892D02*
X0021500Y0212392D01*
X0016500Y0212392D01*
X0014000Y0209892D01*
X0016500Y0212392D02*
X0021500Y0212392D01*
X0024000Y0214892D01*
X0024000Y0219892D02*
X0021500Y0222392D01*
X0024000Y0224892D01*
X0028843Y0224541D02*
X0030545Y0222839D01*
X0029978Y0222272D02*
X0032246Y0224541D01*
X0032246Y0225955D02*
X0028843Y0225955D01*
X0028843Y0227657D01*
X0029410Y0228224D01*
X0030545Y0228224D01*
X0031112Y0227657D01*
X0031112Y0225955D01*
X0034000Y0224892D02*
X0036500Y0222392D01*
X0034000Y0219892D01*
X0032246Y0220096D02*
X0028843Y0220096D01*
X0028843Y0218395D01*
X0029410Y0217827D01*
X0030545Y0217827D01*
X0031112Y0218395D01*
X0031112Y0220096D01*
X0032246Y0222272D02*
X0028843Y0222272D01*
X0028843Y0216413D02*
X0030545Y0216413D01*
X0031112Y0215846D01*
X0031112Y0214144D01*
X0028843Y0214144D01*
X0029410Y0212730D02*
X0030545Y0212730D01*
X0030545Y0211595D01*
X0031679Y0210461D02*
X0029410Y0210461D01*
X0028843Y0211028D01*
X0028843Y0212163D01*
X0029410Y0212730D01*
X0031679Y0212730D02*
X0032246Y0212163D01*
X0032246Y0211028D01*
X0031679Y0210461D01*
X0034000Y0214892D02*
X0036500Y0212392D01*
X0041500Y0212392D01*
X0044000Y0214892D01*
X0044000Y0219892D02*
X0041500Y0222392D01*
X0044000Y0224892D01*
X0048528Y0225121D02*
X0050230Y0225121D01*
X0051364Y0226255D01*
X0051931Y0226255D01*
X0051364Y0227670D02*
X0051931Y0228237D01*
X0051931Y0229371D01*
X0051364Y0229939D01*
X0050797Y0229939D01*
X0050230Y0229371D01*
X0049663Y0229939D01*
X0049095Y0229939D01*
X0048528Y0229371D01*
X0048528Y0228237D01*
X0049095Y0227670D01*
X0050230Y0228804D02*
X0050230Y0229371D01*
X0050230Y0233829D02*
X0050797Y0234964D01*
X0050797Y0235531D01*
X0050230Y0236098D01*
X0049095Y0236098D01*
X0048528Y0235531D01*
X0048528Y0234397D01*
X0049095Y0233829D01*
X0050230Y0233829D02*
X0051931Y0233829D01*
X0051931Y0236098D01*
X0051931Y0237513D02*
X0049663Y0237513D01*
X0048528Y0238647D01*
X0049663Y0239781D01*
X0051931Y0239781D01*
X0054000Y0239892D02*
X0056500Y0242392D01*
X0061500Y0242392D01*
X0064000Y0239892D01*
X0061500Y0242392D02*
X0056500Y0242392D01*
X0054000Y0244892D01*
X0051931Y0244643D02*
X0051931Y0243509D01*
X0051364Y0242942D01*
X0049095Y0242942D01*
X0048528Y0243509D01*
X0048528Y0244643D01*
X0049095Y0245210D01*
X0050230Y0245210D01*
X0050230Y0244076D01*
X0051364Y0245210D02*
X0051931Y0244643D01*
X0050797Y0246625D02*
X0050797Y0248326D01*
X0050230Y0248893D01*
X0048528Y0248893D01*
X0049095Y0250308D02*
X0050230Y0250308D01*
X0050797Y0250875D01*
X0050797Y0252576D01*
X0051931Y0252576D02*
X0048528Y0252576D01*
X0048528Y0250875D01*
X0049095Y0250308D01*
X0048528Y0254499D02*
X0051931Y0256767D01*
X0051364Y0258182D02*
X0051931Y0258749D01*
X0051931Y0259883D01*
X0051364Y0260450D01*
X0050797Y0260450D01*
X0050230Y0259883D01*
X0049663Y0260450D01*
X0049095Y0260450D01*
X0048528Y0259883D01*
X0048528Y0258749D01*
X0049095Y0258182D01*
X0048528Y0256767D02*
X0051931Y0254499D01*
X0054000Y0254892D02*
X0056500Y0252392D01*
X0054000Y0249892D01*
X0050797Y0246625D02*
X0048528Y0246625D01*
X0044000Y0244892D02*
X0041500Y0242392D01*
X0036500Y0242392D01*
X0034000Y0244892D01*
X0032246Y0244643D02*
X0032246Y0243509D01*
X0031679Y0242942D01*
X0029410Y0242942D01*
X0028843Y0243509D01*
X0028843Y0244643D01*
X0029410Y0245210D01*
X0030545Y0245210D01*
X0030545Y0244076D01*
X0031679Y0245210D02*
X0032246Y0244643D01*
X0031112Y0246625D02*
X0031112Y0248326D01*
X0030545Y0248893D01*
X0028843Y0248893D01*
X0029410Y0250308D02*
X0030545Y0250308D01*
X0031112Y0250875D01*
X0031112Y0252576D01*
X0032246Y0252576D02*
X0028843Y0252576D01*
X0028843Y0250875D01*
X0029410Y0250308D01*
X0034000Y0249892D02*
X0036500Y0252392D01*
X0034000Y0254892D01*
X0032246Y0255483D02*
X0032246Y0257752D01*
X0031679Y0257752D01*
X0029410Y0255483D01*
X0028843Y0255483D01*
X0028843Y0257752D01*
X0028843Y0259166D02*
X0028843Y0261435D01*
X0028843Y0260300D02*
X0032246Y0260300D01*
X0031112Y0259166D01*
X0034000Y0259892D02*
X0036500Y0262392D01*
X0034000Y0264892D01*
X0032246Y0264341D02*
X0030545Y0264341D01*
X0031112Y0265475D01*
X0031112Y0266043D01*
X0030545Y0266610D01*
X0029410Y0266610D01*
X0028843Y0266043D01*
X0028843Y0264908D01*
X0029410Y0264341D01*
X0032246Y0264341D02*
X0032246Y0266610D01*
X0032246Y0268024D02*
X0029978Y0268024D01*
X0028843Y0269159D01*
X0029978Y0270293D01*
X0032246Y0270293D01*
X0034000Y0269892D02*
X0036500Y0272392D01*
X0041500Y0272392D01*
X0044000Y0269892D01*
X0048528Y0268174D02*
X0049663Y0269309D01*
X0051931Y0269309D01*
X0054000Y0269892D02*
X0056500Y0272392D01*
X0061500Y0272392D01*
X0064000Y0269892D01*
X0064000Y0264892D02*
X0061500Y0262392D01*
X0064000Y0259892D01*
X0064000Y0254892D02*
X0061500Y0252392D01*
X0064000Y0249892D01*
X0064000Y0244892D02*
X0061500Y0242392D01*
X0064000Y0234892D02*
X0061500Y0232392D01*
X0064000Y0229892D01*
X0064000Y0224892D02*
X0061500Y0222392D01*
X0064000Y0219892D01*
X0064000Y0214892D02*
X0061500Y0212392D01*
X0056500Y0212392D01*
X0054000Y0214892D01*
X0050797Y0214144D02*
X0050797Y0215846D01*
X0050230Y0216413D01*
X0048528Y0216413D01*
X0049095Y0217827D02*
X0050230Y0217827D01*
X0050797Y0218395D01*
X0050797Y0220096D01*
X0051931Y0220096D02*
X0048528Y0220096D01*
X0048528Y0218395D01*
X0049095Y0217827D01*
X0048528Y0214144D02*
X0050797Y0214144D01*
X0051364Y0212730D02*
X0051931Y0212163D01*
X0051931Y0211028D01*
X0051364Y0210461D01*
X0049095Y0210461D01*
X0048528Y0211028D01*
X0048528Y0212163D01*
X0049095Y0212730D01*
X0050230Y0212730D01*
X0050230Y0211595D01*
X0050230Y0207301D02*
X0050230Y0205032D01*
X0050797Y0205032D02*
X0048528Y0205032D01*
X0048528Y0207301D02*
X0050797Y0207301D01*
X0051931Y0206167D01*
X0050797Y0205032D01*
X0049396Y0193045D02*
X0049963Y0192478D01*
X0049963Y0191343D01*
X0049396Y0190776D01*
X0047127Y0190776D01*
X0046560Y0191343D01*
X0046560Y0192478D01*
X0047127Y0193045D01*
X0048261Y0193045D01*
X0048261Y0191910D01*
X0036500Y0192392D02*
X0034000Y0189892D01*
X0036500Y0192392D02*
X0034000Y0194892D01*
X0034000Y0184892D02*
X0036500Y0182392D01*
X0034000Y0179892D01*
X0024000Y0179892D02*
X0021500Y0182392D01*
X0024000Y0184892D01*
X0021500Y0182392D02*
X0016500Y0182392D01*
X0014000Y0184892D01*
X0011577Y0185334D02*
X0011577Y0183633D01*
X0008174Y0183633D01*
X0008174Y0185334D01*
X0008741Y0185901D01*
X0011010Y0185901D01*
X0011577Y0185334D01*
X0010443Y0187316D02*
X0008174Y0187316D01*
X0008174Y0189584D02*
X0009875Y0189584D01*
X0010443Y0189017D01*
X0010443Y0187316D01*
X0014000Y0189892D02*
X0016500Y0192392D01*
X0014000Y0194892D01*
X0011577Y0193462D02*
X0011577Y0192328D01*
X0011010Y0191760D01*
X0008741Y0191760D01*
X0008174Y0192328D01*
X0008174Y0193462D01*
X0008741Y0194029D01*
X0009875Y0194029D01*
X0009875Y0192895D01*
X0011010Y0194029D02*
X0011577Y0193462D01*
X0010443Y0195444D02*
X0010443Y0197145D01*
X0009875Y0197712D01*
X0008174Y0197712D01*
X0008741Y0199127D02*
X0009875Y0199127D01*
X0010443Y0199694D01*
X0010443Y0201395D01*
X0011577Y0201395D02*
X0008174Y0201395D01*
X0008174Y0199694D01*
X0008741Y0199127D01*
X0008741Y0203318D02*
X0008174Y0203885D01*
X0008174Y0205019D01*
X0008741Y0205586D01*
X0011577Y0205586D01*
X0010443Y0207001D02*
X0010443Y0208702D01*
X0009875Y0209269D01*
X0008741Y0209269D01*
X0008174Y0208702D01*
X0008174Y0207001D01*
X0007040Y0207001D02*
X0010443Y0207001D01*
X0011577Y0203318D02*
X0008741Y0203318D01*
X0014000Y0204892D02*
X0016500Y0202392D01*
X0014000Y0199892D01*
X0010443Y0195444D02*
X0008174Y0195444D01*
X0016500Y0182392D02*
X0021500Y0182392D01*
X0016500Y0182392D02*
X0014000Y0179892D01*
X0010443Y0179175D02*
X0010443Y0177473D01*
X0007040Y0177473D01*
X0008174Y0177473D02*
X0008174Y0179175D01*
X0008741Y0179742D01*
X0009875Y0179742D01*
X0010443Y0179175D01*
X0011577Y0176059D02*
X0008741Y0176059D01*
X0008174Y0175491D01*
X0008174Y0174357D01*
X0008741Y0173790D01*
X0011577Y0173790D01*
X0014000Y0174892D02*
X0016500Y0172392D01*
X0014000Y0169892D01*
X0041500Y0172392D02*
X0044000Y0169892D01*
X0041500Y0172392D02*
X0044000Y0174892D01*
X0048261Y0133482D02*
X0048261Y0131213D01*
X0016500Y0117392D02*
X0014000Y0114892D01*
X0011577Y0114781D02*
X0009308Y0114781D01*
X0008174Y0113647D01*
X0009308Y0112513D01*
X0011577Y0112513D01*
X0011577Y0111098D02*
X0011577Y0108829D01*
X0009875Y0108829D01*
X0010443Y0109964D01*
X0010443Y0110531D01*
X0009875Y0111098D01*
X0008741Y0111098D01*
X0008174Y0110531D01*
X0008174Y0109397D01*
X0008741Y0108829D01*
X0008174Y0106907D02*
X0008174Y0105206D01*
X0008741Y0104639D01*
X0009875Y0104639D01*
X0010443Y0105206D01*
X0010443Y0106907D01*
X0011577Y0106907D02*
X0008174Y0106907D01*
X0008174Y0103224D02*
X0009875Y0103224D01*
X0010443Y0102657D01*
X0010443Y0100955D01*
X0008174Y0100955D01*
X0008741Y0099541D02*
X0009875Y0099541D01*
X0009875Y0098407D01*
X0008741Y0099541D02*
X0008174Y0098974D01*
X0008174Y0097839D01*
X0008741Y0097272D01*
X0011010Y0097272D01*
X0011577Y0097839D01*
X0011577Y0098974D01*
X0011010Y0099541D01*
X0014000Y0099892D02*
X0016500Y0097392D01*
X0014000Y0104892D02*
X0016500Y0107392D01*
X0014000Y0109892D01*
X0011577Y0116957D02*
X0008174Y0116957D01*
X0009308Y0116957D02*
X0009308Y0118659D01*
X0009875Y0119226D01*
X0011010Y0119226D01*
X0011577Y0118659D01*
X0011577Y0116957D01*
X0009308Y0118092D02*
X0008174Y0119226D01*
X0008174Y0120640D02*
X0010443Y0122909D01*
X0010443Y0120640D02*
X0008174Y0122909D01*
X0014000Y0119892D02*
X0016500Y0117392D01*
X0036500Y0097392D02*
X0034000Y0094892D01*
X0036500Y0097392D02*
X0041500Y0097392D01*
X0044000Y0094892D01*
X0044000Y0089892D02*
X0041500Y0087392D01*
X0044000Y0084892D01*
X0044000Y0079892D02*
X0041500Y0077392D01*
X0044000Y0074892D01*
X0044000Y0069892D02*
X0041500Y0067392D01*
X0044000Y0064892D01*
X0044000Y0059892D02*
X0041500Y0057392D01*
X0044000Y0054892D01*
X0044000Y0049892D02*
X0041500Y0047392D01*
X0036500Y0047392D01*
X0034000Y0049892D01*
X0031262Y0046808D02*
X0031262Y0045674D01*
X0030695Y0045107D01*
X0028426Y0045107D01*
X0027859Y0045674D01*
X0027859Y0046808D01*
X0028426Y0047375D01*
X0029561Y0047375D01*
X0029561Y0046241D01*
X0030695Y0047375D02*
X0031262Y0046808D01*
X0034000Y0074892D02*
X0036500Y0077392D01*
X0034000Y0079892D01*
X0034000Y0084892D02*
X0036500Y0087392D01*
X0034000Y0089892D01*
X0089000Y0124892D02*
X0091500Y0122392D01*
X0106500Y0122392D01*
X0109000Y0124892D01*
X0109000Y0129892D01*
X0106500Y0132392D01*
X0109000Y0134892D01*
X0109000Y0139892D01*
X0106500Y0142392D01*
X0109000Y0144892D01*
X0109000Y0149892D01*
X0106500Y0152392D01*
X0091500Y0152392D01*
X0089000Y0149892D01*
X0089000Y0144892D01*
X0091500Y0142392D01*
X0089000Y0139892D01*
X0089000Y0134892D01*
X0091500Y0132392D01*
X0089000Y0129892D01*
X0089000Y0124892D01*
X0150009Y0072368D02*
X0150009Y0070666D01*
X0148874Y0070666D02*
X0152277Y0070666D01*
X0152277Y0072368D01*
X0151710Y0072935D01*
X0150576Y0072935D01*
X0150009Y0072368D01*
X0150576Y0069252D02*
X0153412Y0069252D01*
X0153412Y0066983D02*
X0150576Y0066983D01*
X0150009Y0067550D01*
X0150009Y0068685D01*
X0150576Y0069252D01*
X0158009Y0068685D02*
X0158576Y0069252D01*
X0159710Y0069252D01*
X0159710Y0068117D01*
X0158576Y0066983D02*
X0158009Y0067550D01*
X0158009Y0068685D01*
X0158576Y0066983D02*
X0160844Y0066983D01*
X0161412Y0067550D01*
X0161412Y0068685D01*
X0160844Y0069252D01*
X0160277Y0070666D02*
X0160277Y0072368D01*
X0159710Y0072935D01*
X0158009Y0072935D01*
X0158576Y0074349D02*
X0159710Y0074349D01*
X0160277Y0074917D01*
X0160277Y0076618D01*
X0161412Y0076618D02*
X0158009Y0076618D01*
X0158009Y0074917D01*
X0158576Y0074349D01*
X0158009Y0070666D02*
X0160277Y0070666D01*
X0166009Y0070666D02*
X0168277Y0070666D01*
X0168277Y0072368D01*
X0167710Y0072935D01*
X0166009Y0072935D01*
X0166576Y0069252D02*
X0168844Y0069252D01*
X0169412Y0068685D01*
X0169412Y0066983D01*
X0166009Y0066983D01*
X0166009Y0068685D01*
X0166576Y0069252D01*
X0167471Y0063496D02*
X0168605Y0063496D01*
X0169172Y0062929D01*
X0169172Y0062362D01*
X0168605Y0061795D01*
X0167471Y0061795D01*
X0166904Y0061228D01*
X0166904Y0060660D01*
X0167471Y0060093D01*
X0168605Y0060093D01*
X0169172Y0060660D01*
X0166904Y0062929D02*
X0167471Y0063496D01*
X0165489Y0062362D02*
X0165489Y0060660D01*
X0164922Y0060093D01*
X0164355Y0060660D01*
X0163788Y0060093D01*
X0163221Y0060660D01*
X0163221Y0062362D01*
X0161806Y0062929D02*
X0161806Y0060660D01*
X0161239Y0060093D01*
X0160105Y0060093D01*
X0159538Y0060660D01*
X0159538Y0062929D02*
X0160105Y0063496D01*
X0161239Y0063496D01*
X0161806Y0062929D01*
X0161500Y0057392D02*
X0159000Y0054892D01*
X0156500Y0057392D01*
X0151500Y0057392D02*
X0149000Y0054892D01*
X0149000Y0049892D01*
X0151500Y0047392D01*
X0156500Y0047392D02*
X0159000Y0049892D01*
X0161500Y0047392D01*
X0161806Y0043811D02*
X0160105Y0043811D01*
X0159538Y0043244D01*
X0159538Y0040975D01*
X0160105Y0040408D01*
X0161806Y0040408D01*
X0161806Y0043811D01*
X0163221Y0042677D02*
X0163221Y0040975D01*
X0163788Y0040408D01*
X0164355Y0040975D01*
X0164922Y0040408D01*
X0165489Y0040975D01*
X0165489Y0042677D01*
X0166904Y0043244D02*
X0167471Y0043811D01*
X0168605Y0043811D01*
X0169172Y0043244D01*
X0169172Y0042677D01*
X0168605Y0042110D01*
X0167471Y0042110D01*
X0166904Y0041543D01*
X0166904Y0040975D01*
X0167471Y0040408D01*
X0168605Y0040408D01*
X0169172Y0040975D01*
X0171500Y0037392D02*
X0169000Y0034892D01*
X0166500Y0037392D01*
X0161500Y0037392D02*
X0159000Y0034892D01*
X0156500Y0037392D01*
X0151500Y0037392D02*
X0149000Y0034892D01*
X0149000Y0029892D01*
X0151500Y0027392D01*
X0156500Y0027392D02*
X0159000Y0029892D01*
X0161500Y0027392D01*
X0166500Y0027392D02*
X0169000Y0029892D01*
X0171500Y0027392D01*
X0176500Y0027392D02*
X0179000Y0029892D01*
X0179000Y0034892D01*
X0176500Y0037392D01*
X0184000Y0034892D02*
X0184000Y0029892D01*
X0186500Y0027392D01*
X0191500Y0027392D02*
X0194000Y0029892D01*
X0196500Y0027392D01*
X0201500Y0027392D02*
X0204000Y0029892D01*
X0206500Y0027392D01*
X0211500Y0027392D02*
X0214000Y0029892D01*
X0214000Y0034892D01*
X0211500Y0037392D01*
X0206500Y0037392D02*
X0204000Y0034892D01*
X0201500Y0037392D01*
X0201880Y0040408D02*
X0203015Y0040408D01*
X0203582Y0040975D01*
X0203015Y0042110D02*
X0201880Y0042110D01*
X0201313Y0041543D01*
X0201313Y0040975D01*
X0201880Y0040408D01*
X0203015Y0042110D02*
X0203582Y0042677D01*
X0203582Y0043244D01*
X0203015Y0043811D01*
X0201880Y0043811D01*
X0201313Y0043244D01*
X0199899Y0042677D02*
X0199899Y0040975D01*
X0199332Y0040408D01*
X0198764Y0040975D01*
X0198197Y0040408D01*
X0197630Y0040975D01*
X0197630Y0042677D01*
X0196216Y0042110D02*
X0195081Y0042110D01*
X0196216Y0043811D02*
X0193947Y0043811D01*
X0196216Y0043811D02*
X0196216Y0040408D01*
X0196500Y0037392D02*
X0194000Y0034892D01*
X0191500Y0037392D01*
X0186500Y0037392D02*
X0184000Y0034892D01*
X0186500Y0047392D02*
X0184000Y0049892D01*
X0184000Y0054892D01*
X0186500Y0057392D01*
X0191500Y0057392D02*
X0194000Y0054892D01*
X0196500Y0057392D01*
X0196216Y0060093D02*
X0193947Y0060093D01*
X0195081Y0061795D02*
X0196216Y0061795D01*
X0197630Y0062362D02*
X0197630Y0060660D01*
X0198197Y0060093D01*
X0198764Y0060660D01*
X0199332Y0060093D01*
X0199899Y0060660D01*
X0199899Y0062362D01*
X0201313Y0062929D02*
X0201880Y0063496D01*
X0203015Y0063496D01*
X0203582Y0062929D01*
X0203582Y0062362D01*
X0203015Y0061795D01*
X0201880Y0061795D01*
X0201313Y0061228D01*
X0201313Y0060660D01*
X0201880Y0060093D01*
X0203015Y0060093D01*
X0203582Y0060660D01*
X0201500Y0057392D02*
X0204000Y0054892D01*
X0206500Y0057392D01*
X0211500Y0057392D02*
X0214000Y0054892D01*
X0214000Y0049892D01*
X0211500Y0047392D01*
X0206500Y0047392D02*
X0204000Y0049892D01*
X0201500Y0047392D01*
X0196500Y0047392D02*
X0194000Y0049892D01*
X0191500Y0047392D01*
X0179000Y0049892D02*
X0176500Y0047392D01*
X0179000Y0049892D02*
X0179000Y0054892D01*
X0176500Y0057392D01*
X0171500Y0057392D02*
X0169000Y0054892D01*
X0166500Y0057392D01*
X0169000Y0049892D02*
X0166500Y0047392D01*
X0169000Y0049892D02*
X0171500Y0047392D01*
X0193947Y0063496D02*
X0196216Y0063496D01*
X0196216Y0060093D01*
X0219000Y0054892D02*
X0219000Y0049892D01*
X0221500Y0047392D01*
X0226500Y0047392D02*
X0229000Y0049892D01*
X0231500Y0047392D01*
X0231649Y0043811D02*
X0231649Y0040408D01*
X0233063Y0040975D02*
X0233063Y0042677D01*
X0231649Y0042110D02*
X0229380Y0042110D01*
X0229380Y0043811D02*
X0229380Y0040408D01*
X0231500Y0037392D02*
X0229000Y0034892D01*
X0226500Y0037392D01*
X0221500Y0037392D02*
X0219000Y0034892D01*
X0219000Y0029892D01*
X0221500Y0027392D01*
X0226500Y0027392D02*
X0229000Y0029892D01*
X0231500Y0027392D01*
X0236500Y0027392D02*
X0239000Y0029892D01*
X0241500Y0027392D01*
X0246500Y0027392D02*
X0249000Y0029892D01*
X0249000Y0034892D01*
X0246500Y0037392D01*
X0241500Y0037392D02*
X0239000Y0034892D01*
X0236500Y0037392D01*
X0237314Y0040408D02*
X0238448Y0040408D01*
X0239015Y0040975D01*
X0238448Y0042110D02*
X0237314Y0042110D01*
X0236746Y0041543D01*
X0236746Y0040975D01*
X0237314Y0040408D01*
X0238448Y0042110D02*
X0239015Y0042677D01*
X0239015Y0043244D01*
X0238448Y0043811D01*
X0237314Y0043811D01*
X0236746Y0043244D01*
X0235332Y0042677D02*
X0235332Y0040975D01*
X0234765Y0040408D01*
X0234198Y0040975D01*
X0233630Y0040408D01*
X0233063Y0040975D01*
X0236500Y0047392D02*
X0239000Y0049892D01*
X0241500Y0047392D01*
X0246500Y0047392D02*
X0249000Y0049892D01*
X0249000Y0054892D01*
X0246500Y0057392D01*
X0241500Y0057392D02*
X0239000Y0054892D01*
X0236500Y0057392D01*
X0237314Y0060093D02*
X0236746Y0060660D01*
X0236746Y0061228D01*
X0237314Y0061795D01*
X0238448Y0061795D01*
X0239015Y0062362D01*
X0239015Y0062929D01*
X0238448Y0063496D01*
X0237314Y0063496D01*
X0236746Y0062929D01*
X0235332Y0062362D02*
X0235332Y0060660D01*
X0234765Y0060093D01*
X0234198Y0060660D01*
X0233630Y0060093D01*
X0233063Y0060660D01*
X0233063Y0062362D01*
X0231649Y0062929D02*
X0231649Y0060660D01*
X0231082Y0060093D01*
X0229947Y0060093D01*
X0229380Y0060660D01*
X0229380Y0061795D01*
X0230514Y0061795D01*
X0229380Y0062929D02*
X0229947Y0063496D01*
X0231082Y0063496D01*
X0231649Y0062929D01*
X0231500Y0057392D02*
X0229000Y0054892D01*
X0226500Y0057392D01*
X0221500Y0057392D02*
X0219000Y0054892D01*
X0237314Y0060093D02*
X0238448Y0060093D01*
X0239015Y0060660D01*
X0245063Y0068947D02*
X0247563Y0066447D01*
X0252563Y0066447D01*
X0255063Y0068947D01*
X0255063Y0073947D02*
X0252563Y0076447D01*
X0255063Y0078947D01*
X0255063Y0083947D02*
X0252563Y0086447D01*
X0255063Y0088947D01*
X0255063Y0093947D02*
X0252563Y0096447D01*
X0247563Y0096447D01*
X0245063Y0093947D01*
X0245063Y0088947D02*
X0247563Y0086447D01*
X0245063Y0083947D01*
X0245063Y0078947D02*
X0247563Y0076447D01*
X0245063Y0073947D01*
X0284749Y0073223D02*
X0285316Y0072656D01*
X0285883Y0073223D01*
X0285883Y0074924D01*
X0286450Y0074924D02*
X0284749Y0074924D01*
X0284749Y0073223D01*
X0285316Y0071241D02*
X0286450Y0071241D01*
X0287017Y0070674D01*
X0287017Y0068972D01*
X0288152Y0068972D02*
X0284749Y0068972D01*
X0284749Y0070674D01*
X0285316Y0071241D01*
X0287017Y0073223D02*
X0287017Y0074357D01*
X0286450Y0074924D01*
X0287017Y0076339D02*
X0287017Y0077473D01*
X0287585Y0076906D02*
X0285316Y0076906D01*
X0284749Y0077473D01*
X0285883Y0081037D02*
X0284749Y0082172D01*
X0285883Y0083306D01*
X0288152Y0083306D01*
X0288152Y0081037D02*
X0285883Y0081037D01*
X0284182Y0084720D02*
X0284182Y0086989D01*
X0284749Y0088404D02*
X0284749Y0089538D01*
X0284749Y0088971D02*
X0287017Y0088971D01*
X0287017Y0088404D01*
X0288152Y0088971D02*
X0288719Y0088971D01*
X0287017Y0090859D02*
X0287017Y0092560D01*
X0286450Y0093128D01*
X0284749Y0093128D01*
X0284749Y0090859D02*
X0287017Y0090859D01*
X0291500Y0089892D02*
X0294000Y0087392D01*
X0291500Y0084892D01*
X0291500Y0079892D02*
X0294000Y0077392D01*
X0291500Y0074892D01*
X0291500Y0069892D02*
X0294000Y0067392D01*
X0291500Y0064892D01*
X0288152Y0065289D02*
X0285883Y0065289D01*
X0284749Y0066424D01*
X0285883Y0067558D01*
X0288152Y0067558D01*
X0288152Y0061632D02*
X0284749Y0061632D01*
X0284749Y0059930D01*
X0285316Y0059363D01*
X0286450Y0059363D01*
X0287017Y0059930D01*
X0287017Y0061632D01*
X0286450Y0057948D02*
X0284749Y0057948D01*
X0286450Y0057948D02*
X0287017Y0057381D01*
X0287017Y0055680D01*
X0284749Y0055680D01*
X0285316Y0054265D02*
X0286450Y0054265D01*
X0286450Y0053131D01*
X0285316Y0054265D02*
X0284749Y0053698D01*
X0284749Y0052564D01*
X0285316Y0051997D01*
X0287585Y0051997D01*
X0288152Y0052564D01*
X0288152Y0053698D01*
X0287585Y0054265D01*
X0291500Y0054892D02*
X0294000Y0057392D01*
X0291500Y0059892D01*
X0299000Y0057392D02*
X0301500Y0059892D01*
X0299000Y0057392D02*
X0301500Y0054892D01*
X0301500Y0049892D02*
X0299000Y0047392D01*
X0294000Y0047392D01*
X0291500Y0049892D01*
X0301500Y0064892D02*
X0299000Y0067392D01*
X0301500Y0069892D01*
X0301500Y0074892D02*
X0299000Y0077392D01*
X0301500Y0079892D01*
X0301500Y0084892D02*
X0299000Y0087392D01*
X0301500Y0089892D01*
X0301500Y0094892D02*
X0299000Y0097392D01*
X0294000Y0097392D01*
X0291500Y0094892D01*
X0290698Y0098416D02*
X0289563Y0099550D01*
X0289563Y0101819D01*
X0291832Y0101819D02*
X0291832Y0099550D01*
X0290698Y0098416D01*
X0293247Y0098416D02*
X0295515Y0098416D01*
X0293247Y0100685D01*
X0293247Y0101252D01*
X0293814Y0101819D01*
X0294948Y0101819D01*
X0295515Y0101252D01*
X0298064Y0101819D02*
X0298064Y0098416D01*
X0299198Y0098416D02*
X0296930Y0098416D01*
X0299198Y0100685D02*
X0298064Y0101819D01*
X0300613Y0100118D02*
X0302881Y0100118D01*
X0304296Y0101252D02*
X0306565Y0098983D01*
X0306565Y0098416D01*
X0306565Y0101819D02*
X0304296Y0101819D01*
X0304296Y0101252D01*
X0299000Y0107392D02*
X0294000Y0107392D01*
X0291500Y0109892D01*
X0291500Y0114892D02*
X0294000Y0117392D01*
X0291500Y0119892D01*
X0291500Y0124892D02*
X0294000Y0127392D01*
X0291500Y0129892D01*
X0291500Y0134892D02*
X0294000Y0137392D01*
X0299000Y0137392D01*
X0301500Y0134892D01*
X0301500Y0129892D02*
X0299000Y0127392D01*
X0301500Y0124892D01*
X0303450Y0125145D02*
X0304017Y0124577D01*
X0303450Y0125145D02*
X0303450Y0126279D01*
X0304017Y0126846D01*
X0304584Y0126846D01*
X0305151Y0126279D01*
X0305151Y0125145D01*
X0305718Y0124577D01*
X0306285Y0124577D01*
X0306853Y0125145D01*
X0306853Y0126279D01*
X0306285Y0126846D01*
X0305718Y0128261D02*
X0304017Y0128261D01*
X0303450Y0128828D01*
X0304017Y0129395D01*
X0303450Y0129962D01*
X0304017Y0130529D01*
X0305718Y0130529D01*
X0305718Y0123210D02*
X0305718Y0122642D01*
X0304584Y0121508D01*
X0303450Y0121508D02*
X0305718Y0121508D01*
X0305718Y0120094D02*
X0304017Y0120094D01*
X0303450Y0119526D01*
X0304017Y0118959D01*
X0303450Y0118392D01*
X0304017Y0117825D01*
X0305718Y0117825D01*
X0305151Y0116410D02*
X0304584Y0115843D01*
X0304584Y0114142D01*
X0303450Y0114142D02*
X0306853Y0114142D01*
X0306853Y0115843D01*
X0306285Y0116410D01*
X0305151Y0116410D01*
X0301500Y0114892D02*
X0299000Y0117392D01*
X0301500Y0119892D01*
X0301500Y0109892D02*
X0299000Y0107392D01*
X0299000Y0152392D02*
X0294000Y0152392D01*
X0291500Y0154892D01*
X0287167Y0158930D02*
X0287167Y0161199D01*
X0287167Y0160065D02*
X0283765Y0160065D01*
X0283765Y0162614D02*
X0286033Y0162614D01*
X0284899Y0162614D02*
X0286033Y0163748D01*
X0286033Y0164315D01*
X0286033Y0165683D02*
X0286033Y0166250D01*
X0283765Y0166250D01*
X0283765Y0165683D02*
X0283765Y0166817D01*
X0283765Y0168138D02*
X0286033Y0168138D01*
X0286033Y0168705D01*
X0285466Y0169273D01*
X0286033Y0169840D01*
X0285466Y0170407D01*
X0283765Y0170407D01*
X0283765Y0169273D02*
X0285466Y0169273D01*
X0286600Y0171821D02*
X0285466Y0172956D01*
X0283765Y0172956D01*
X0285466Y0172956D02*
X0286600Y0174090D01*
X0287167Y0174090D01*
X0286600Y0175505D02*
X0287167Y0176072D01*
X0287167Y0177206D01*
X0286600Y0177773D01*
X0286033Y0177773D01*
X0283765Y0175505D01*
X0283765Y0177773D01*
X0286600Y0171821D02*
X0287167Y0171821D01*
X0291500Y0169892D02*
X0294000Y0172392D01*
X0291500Y0174892D01*
X0291500Y0179892D02*
X0294000Y0182392D01*
X0299000Y0182392D01*
X0301500Y0179892D01*
X0302315Y0178457D02*
X0305718Y0178457D01*
X0305718Y0180159D01*
X0305151Y0180726D01*
X0304017Y0180726D01*
X0303450Y0180159D01*
X0303450Y0178457D01*
X0304017Y0177043D02*
X0306853Y0177043D01*
X0306853Y0174774D02*
X0304017Y0174774D01*
X0303450Y0175341D01*
X0303450Y0176476D01*
X0304017Y0177043D01*
X0301500Y0174892D02*
X0299000Y0172392D01*
X0301500Y0169892D01*
X0303450Y0170166D02*
X0304017Y0169599D01*
X0305151Y0169599D01*
X0305718Y0170166D01*
X0305718Y0171868D01*
X0306853Y0171868D02*
X0303450Y0171868D01*
X0303450Y0170166D01*
X0303450Y0168185D02*
X0305151Y0168185D01*
X0305718Y0167617D01*
X0305718Y0165916D01*
X0303450Y0165916D01*
X0304017Y0164501D02*
X0305151Y0164501D01*
X0305151Y0163367D01*
X0304017Y0162233D02*
X0303450Y0162800D01*
X0303450Y0163934D01*
X0304017Y0164501D01*
X0304017Y0162233D02*
X0306285Y0162233D01*
X0306853Y0162800D01*
X0306853Y0163934D01*
X0306285Y0164501D01*
X0305151Y0160057D02*
X0303450Y0160057D01*
X0305151Y0160057D02*
X0305718Y0159490D01*
X0305718Y0157788D01*
X0303450Y0157788D01*
X0304017Y0156374D02*
X0306285Y0156374D01*
X0306853Y0155806D01*
X0306853Y0154105D01*
X0303450Y0154105D01*
X0303450Y0155806D01*
X0304017Y0156374D01*
X0301500Y0154892D02*
X0299000Y0152392D01*
X0301500Y0159892D02*
X0299000Y0162392D01*
X0301500Y0164892D01*
X0294000Y0162392D02*
X0291500Y0164892D01*
X0294000Y0162392D02*
X0291500Y0159892D01*
X0287735Y0166250D02*
X0287167Y0166250D01*
X0294000Y0182392D02*
X0291500Y0184892D01*
X0294000Y0182392D02*
X0299000Y0182392D01*
X0301500Y0184892D01*
X0303450Y0184617D02*
X0303450Y0186318D01*
X0304017Y0186885D01*
X0306285Y0186885D01*
X0306853Y0186318D01*
X0306853Y0184617D01*
X0303450Y0184617D01*
X0303450Y0188300D02*
X0305718Y0188300D01*
X0305718Y0190001D01*
X0305151Y0190569D01*
X0303450Y0190569D01*
X0301500Y0189892D02*
X0299000Y0192392D01*
X0301500Y0194892D01*
X0303450Y0194446D02*
X0304017Y0195013D01*
X0305151Y0195013D01*
X0305151Y0193879D01*
X0304017Y0192745D02*
X0303450Y0193312D01*
X0303450Y0194446D01*
X0304017Y0192745D02*
X0306285Y0192745D01*
X0306853Y0193312D01*
X0306853Y0194446D01*
X0306285Y0195013D01*
X0305718Y0196428D02*
X0305718Y0198129D01*
X0305151Y0198696D01*
X0303450Y0198696D01*
X0304017Y0200111D02*
X0305151Y0200111D01*
X0305718Y0200678D01*
X0305718Y0202380D01*
X0306853Y0202380D02*
X0303450Y0202380D01*
X0303450Y0200678D01*
X0304017Y0200111D01*
X0301500Y0199892D02*
X0299000Y0202392D01*
X0301500Y0204892D01*
X0303450Y0204869D02*
X0303450Y0206003D01*
X0304017Y0206570D01*
X0306853Y0206570D01*
X0305718Y0207985D02*
X0305718Y0209686D01*
X0305151Y0210254D01*
X0304017Y0210254D01*
X0303450Y0209686D01*
X0303450Y0207985D01*
X0302315Y0207985D02*
X0305718Y0207985D01*
X0306853Y0204302D02*
X0304017Y0204302D01*
X0303450Y0204869D01*
X0301500Y0209892D02*
X0299000Y0212392D01*
X0294000Y0212392D01*
X0291500Y0209892D01*
X0294000Y0212392D02*
X0299000Y0212392D01*
X0301500Y0214892D01*
X0303450Y0215115D02*
X0303450Y0213981D01*
X0304017Y0213414D01*
X0306285Y0213414D01*
X0306853Y0213981D01*
X0306853Y0215115D01*
X0306285Y0215683D01*
X0305151Y0215683D02*
X0305151Y0214548D01*
X0305151Y0215683D02*
X0304017Y0215683D01*
X0303450Y0215115D01*
X0303450Y0217097D02*
X0305718Y0217097D01*
X0305718Y0218799D01*
X0305151Y0219366D01*
X0303450Y0219366D01*
X0304017Y0220780D02*
X0305151Y0220780D01*
X0305718Y0221347D01*
X0305718Y0223049D01*
X0306853Y0223049D02*
X0303450Y0223049D01*
X0303450Y0221347D01*
X0304017Y0220780D01*
X0301500Y0219892D02*
X0299000Y0222392D01*
X0301500Y0224892D01*
X0303450Y0226105D02*
X0305151Y0226105D01*
X0306285Y0227240D01*
X0306853Y0227240D01*
X0306285Y0228654D02*
X0306853Y0229221D01*
X0306853Y0230356D01*
X0306285Y0230923D01*
X0305718Y0230923D01*
X0303450Y0228654D01*
X0303450Y0230923D01*
X0301500Y0229892D02*
X0299000Y0232392D01*
X0301500Y0234892D01*
X0303450Y0234397D02*
X0303450Y0235531D01*
X0304017Y0236098D01*
X0305151Y0236098D01*
X0305718Y0235531D01*
X0305718Y0234964D01*
X0305151Y0233829D01*
X0306853Y0233829D01*
X0306853Y0236098D01*
X0306853Y0237513D02*
X0304584Y0237513D01*
X0303450Y0238647D01*
X0304584Y0239781D01*
X0306853Y0239781D01*
X0306285Y0242942D02*
X0304017Y0242942D01*
X0303450Y0243509D01*
X0303450Y0244643D01*
X0304017Y0245210D01*
X0305151Y0245210D01*
X0305151Y0244076D01*
X0306285Y0245210D02*
X0306853Y0244643D01*
X0306853Y0243509D01*
X0306285Y0242942D01*
X0305718Y0246625D02*
X0305718Y0248326D01*
X0305151Y0248893D01*
X0303450Y0248893D01*
X0304017Y0250308D02*
X0305151Y0250308D01*
X0305718Y0250875D01*
X0305718Y0252576D01*
X0306853Y0252576D02*
X0303450Y0252576D01*
X0303450Y0250875D01*
X0304017Y0250308D01*
X0301500Y0249892D02*
X0299000Y0252392D01*
X0301500Y0254892D01*
X0303450Y0255483D02*
X0306853Y0257752D01*
X0306285Y0259166D02*
X0306853Y0259733D01*
X0306853Y0260868D01*
X0306285Y0261435D01*
X0305718Y0261435D01*
X0303450Y0259166D01*
X0303450Y0261435D01*
X0301500Y0259892D02*
X0299000Y0262392D01*
X0301500Y0264892D01*
X0303450Y0264908D02*
X0303450Y0266043D01*
X0304017Y0266610D01*
X0305151Y0266610D01*
X0305718Y0266043D01*
X0305718Y0265475D01*
X0305151Y0264341D01*
X0306853Y0264341D01*
X0306853Y0266610D01*
X0306853Y0268024D02*
X0304584Y0268024D01*
X0303450Y0269159D01*
X0304584Y0270293D01*
X0306853Y0270293D01*
X0301500Y0269892D02*
X0299000Y0272392D01*
X0294000Y0272392D01*
X0291500Y0269892D01*
X0287167Y0270293D02*
X0284899Y0270293D01*
X0283765Y0269159D01*
X0284899Y0268024D01*
X0287167Y0268024D01*
X0287167Y0266610D02*
X0287167Y0264341D01*
X0285466Y0264341D01*
X0286033Y0265475D01*
X0286033Y0266043D01*
X0285466Y0266610D01*
X0284332Y0266610D01*
X0283765Y0266043D01*
X0283765Y0264908D01*
X0284332Y0264341D01*
X0281500Y0264892D02*
X0279000Y0262392D01*
X0281500Y0259892D01*
X0283765Y0259166D02*
X0283765Y0261435D01*
X0286033Y0261435D02*
X0283765Y0259166D01*
X0283765Y0257752D02*
X0283765Y0255483D01*
X0284332Y0255483D01*
X0286600Y0257752D01*
X0287167Y0257752D01*
X0287167Y0255483D01*
X0287167Y0252576D02*
X0283765Y0252576D01*
X0283765Y0250875D01*
X0284332Y0250308D01*
X0285466Y0250308D01*
X0286033Y0250875D01*
X0286033Y0252576D01*
X0285466Y0248893D02*
X0283765Y0248893D01*
X0285466Y0248893D02*
X0286033Y0248326D01*
X0286033Y0246625D01*
X0283765Y0246625D01*
X0284332Y0245210D02*
X0283765Y0244643D01*
X0283765Y0243509D01*
X0284332Y0242942D01*
X0286600Y0242942D01*
X0287167Y0243509D01*
X0287167Y0244643D01*
X0286600Y0245210D01*
X0285466Y0245210D02*
X0285466Y0244076D01*
X0285466Y0245210D02*
X0284332Y0245210D01*
X0281500Y0244892D02*
X0279000Y0242392D01*
X0274000Y0242392D01*
X0271500Y0244892D01*
X0274000Y0242392D02*
X0271500Y0239892D01*
X0274000Y0242392D02*
X0279000Y0242392D01*
X0281500Y0239892D01*
X0283765Y0238647D02*
X0284899Y0239781D01*
X0287167Y0239781D01*
X0287167Y0237513D02*
X0284899Y0237513D01*
X0283765Y0238647D01*
X0284332Y0236098D02*
X0283765Y0235531D01*
X0283765Y0234397D01*
X0284332Y0233829D01*
X0285466Y0233829D02*
X0286033Y0234964D01*
X0286033Y0235531D01*
X0285466Y0236098D01*
X0284332Y0236098D01*
X0285466Y0233829D02*
X0287167Y0233829D01*
X0287167Y0236098D01*
X0291500Y0234892D02*
X0294000Y0232392D01*
X0291500Y0229892D01*
X0287167Y0229639D02*
X0287167Y0231340D01*
X0286600Y0231907D01*
X0286033Y0231907D01*
X0285466Y0231340D01*
X0285466Y0229639D01*
X0285466Y0228224D02*
X0286033Y0227657D01*
X0286033Y0225955D01*
X0287167Y0225955D02*
X0283765Y0225955D01*
X0283765Y0227657D01*
X0284332Y0228224D01*
X0285466Y0228224D01*
X0283765Y0229639D02*
X0283765Y0231340D01*
X0284332Y0231907D01*
X0284899Y0231907D01*
X0285466Y0231340D01*
X0283765Y0229639D02*
X0287167Y0229639D01*
X0287167Y0224541D02*
X0284899Y0222272D01*
X0285466Y0222839D02*
X0283765Y0224541D01*
X0283765Y0222272D02*
X0287167Y0222272D01*
X0287167Y0219112D02*
X0283765Y0219112D01*
X0283765Y0217410D01*
X0284332Y0216843D01*
X0285466Y0216843D01*
X0286033Y0217410D01*
X0286033Y0219112D01*
X0285466Y0215429D02*
X0283765Y0215429D01*
X0285466Y0215429D02*
X0286033Y0214862D01*
X0286033Y0213160D01*
X0283765Y0213160D01*
X0284332Y0211746D02*
X0283765Y0211178D01*
X0283765Y0210044D01*
X0284332Y0209477D01*
X0286600Y0209477D01*
X0287167Y0210044D01*
X0287167Y0211178D01*
X0286600Y0211746D01*
X0285466Y0211746D02*
X0285466Y0210611D01*
X0285466Y0211746D02*
X0284332Y0211746D01*
X0281500Y0214892D02*
X0279000Y0212392D01*
X0274000Y0212392D01*
X0271500Y0214892D01*
X0271500Y0219892D02*
X0274000Y0222392D01*
X0271500Y0224892D01*
X0267482Y0223987D02*
X0266915Y0223987D01*
X0265781Y0225121D01*
X0264080Y0225121D01*
X0265781Y0225121D02*
X0266915Y0226255D01*
X0267482Y0226255D01*
X0265781Y0227670D02*
X0265781Y0229939D01*
X0267482Y0229371D02*
X0265781Y0227670D01*
X0264080Y0229371D02*
X0267482Y0229371D01*
X0267482Y0233829D02*
X0265781Y0233829D01*
X0266348Y0234964D01*
X0266348Y0235531D01*
X0265781Y0236098D01*
X0264647Y0236098D01*
X0264080Y0235531D01*
X0264080Y0234397D01*
X0264647Y0233829D01*
X0267482Y0233829D02*
X0267482Y0236098D01*
X0267482Y0237513D02*
X0265214Y0237513D01*
X0264080Y0238647D01*
X0265214Y0239781D01*
X0267482Y0239781D01*
X0266915Y0242942D02*
X0264647Y0242942D01*
X0264080Y0243509D01*
X0264080Y0244643D01*
X0264647Y0245210D01*
X0265781Y0245210D01*
X0265781Y0244076D01*
X0266915Y0245210D02*
X0267482Y0244643D01*
X0267482Y0243509D01*
X0266915Y0242942D01*
X0266348Y0246625D02*
X0264080Y0246625D01*
X0266348Y0246625D02*
X0266348Y0248326D01*
X0265781Y0248893D01*
X0264080Y0248893D01*
X0264647Y0250308D02*
X0265781Y0250308D01*
X0266348Y0250875D01*
X0266348Y0252576D01*
X0267482Y0252576D02*
X0264080Y0252576D01*
X0264080Y0250875D01*
X0264647Y0250308D01*
X0261500Y0249892D02*
X0259000Y0252392D01*
X0261500Y0254892D01*
X0264080Y0255483D02*
X0267482Y0257752D01*
X0265781Y0259166D02*
X0265781Y0261435D01*
X0267482Y0260868D02*
X0265781Y0259166D01*
X0264080Y0257752D02*
X0267482Y0255483D01*
X0271500Y0254892D02*
X0274000Y0252392D01*
X0271500Y0249892D01*
X0279000Y0252392D02*
X0281500Y0249892D01*
X0279000Y0252392D02*
X0281500Y0254892D01*
X0286600Y0259166D02*
X0287167Y0259733D01*
X0287167Y0260868D01*
X0286600Y0261435D01*
X0286033Y0261435D01*
X0291500Y0259892D02*
X0294000Y0262392D01*
X0291500Y0264892D01*
X0291500Y0254892D02*
X0294000Y0252392D01*
X0291500Y0249892D01*
X0291500Y0244892D02*
X0294000Y0242392D01*
X0299000Y0242392D01*
X0301500Y0244892D01*
X0303450Y0246625D02*
X0305718Y0246625D01*
X0299000Y0242392D02*
X0301500Y0239892D01*
X0299000Y0242392D02*
X0294000Y0242392D01*
X0291500Y0239892D01*
X0281500Y0234892D02*
X0279000Y0232392D01*
X0281500Y0229892D01*
X0281500Y0224892D02*
X0279000Y0222392D01*
X0281500Y0219892D01*
X0291500Y0219892D02*
X0294000Y0222392D01*
X0291500Y0224892D01*
X0291500Y0214892D02*
X0294000Y0212392D01*
X0287585Y0205332D02*
X0288152Y0204765D01*
X0288152Y0203631D01*
X0287585Y0203064D01*
X0288152Y0201649D02*
X0284749Y0199381D01*
X0284749Y0197966D02*
X0286450Y0197966D01*
X0287017Y0197399D01*
X0286450Y0196832D01*
X0284749Y0196832D01*
X0284749Y0195697D02*
X0287017Y0195697D01*
X0287017Y0196265D01*
X0286450Y0196832D01*
X0284749Y0194376D02*
X0284749Y0193242D01*
X0284749Y0193809D02*
X0287017Y0193809D01*
X0287017Y0193242D01*
X0288152Y0193809D02*
X0288719Y0193809D01*
X0287017Y0191874D02*
X0287017Y0191307D01*
X0285883Y0190173D01*
X0284749Y0190173D02*
X0287017Y0190173D01*
X0288152Y0188758D02*
X0288152Y0186490D01*
X0288152Y0187624D02*
X0284749Y0187624D01*
X0291500Y0189892D02*
X0294000Y0192392D01*
X0291500Y0194892D01*
X0291500Y0199892D02*
X0294000Y0202392D01*
X0291500Y0204892D01*
X0287585Y0205332D02*
X0287017Y0205332D01*
X0284749Y0203064D01*
X0284749Y0205332D01*
X0284749Y0201649D02*
X0288152Y0199381D01*
X0303450Y0196428D02*
X0305718Y0196428D01*
X0306285Y0224971D02*
X0305151Y0226105D01*
X0306285Y0224971D02*
X0306853Y0224971D01*
X0304017Y0233829D02*
X0303450Y0234397D01*
X0306853Y0255483D02*
X0303450Y0257752D01*
X0304017Y0264341D02*
X0303450Y0264908D01*
X0281500Y0269892D02*
X0279000Y0272392D01*
X0274000Y0272392D01*
X0271500Y0269892D01*
X0267482Y0270293D02*
X0265214Y0270293D01*
X0264080Y0269159D01*
X0265214Y0268024D01*
X0267482Y0268024D01*
X0267482Y0266610D02*
X0267482Y0264341D01*
X0265781Y0264341D01*
X0266348Y0265475D01*
X0266348Y0266043D01*
X0265781Y0266610D01*
X0264647Y0266610D01*
X0264080Y0266043D01*
X0264080Y0264908D01*
X0264647Y0264341D01*
X0261500Y0264892D02*
X0259000Y0262392D01*
X0261500Y0259892D01*
X0264080Y0260868D02*
X0267482Y0260868D01*
X0271500Y0259892D02*
X0274000Y0262392D01*
X0271500Y0264892D01*
X0261500Y0269892D02*
X0259000Y0272392D01*
X0254000Y0272392D01*
X0251500Y0269892D01*
X0251500Y0264892D02*
X0254000Y0262392D01*
X0251500Y0259892D01*
X0251500Y0254892D02*
X0254000Y0252392D01*
X0251500Y0249892D01*
X0251500Y0244892D02*
X0254000Y0242392D01*
X0251500Y0239892D01*
X0254000Y0242392D02*
X0259000Y0242392D01*
X0261500Y0239892D01*
X0259000Y0242392D02*
X0254000Y0242392D01*
X0259000Y0242392D02*
X0261500Y0244892D01*
X0261500Y0234892D02*
X0259000Y0232392D01*
X0261500Y0229892D01*
X0261500Y0224892D02*
X0259000Y0222392D01*
X0261500Y0219892D01*
X0264080Y0219379D02*
X0264080Y0221080D01*
X0267482Y0221080D01*
X0266348Y0221080D02*
X0266348Y0219379D01*
X0265781Y0218812D01*
X0264647Y0218812D01*
X0264080Y0219379D01*
X0264080Y0217397D02*
X0265781Y0217397D01*
X0266348Y0216830D01*
X0266348Y0215129D01*
X0264080Y0215129D01*
X0264647Y0213714D02*
X0265781Y0213714D01*
X0265781Y0212580D01*
X0266915Y0213714D02*
X0267482Y0213147D01*
X0267482Y0212013D01*
X0266915Y0211445D01*
X0264647Y0211445D01*
X0264080Y0212013D01*
X0264080Y0213147D01*
X0264647Y0213714D01*
X0261500Y0214892D02*
X0259000Y0212392D01*
X0254000Y0212392D01*
X0251500Y0214892D01*
X0251500Y0219892D02*
X0254000Y0222392D01*
X0251500Y0224892D01*
X0251500Y0229892D02*
X0254000Y0232392D01*
X0251500Y0234892D01*
X0271500Y0234892D02*
X0274000Y0232392D01*
X0271500Y0229892D01*
X0266915Y0208285D02*
X0266348Y0208285D01*
X0265781Y0207718D01*
X0265781Y0206016D01*
X0267482Y0206016D02*
X0267482Y0207718D01*
X0266915Y0208285D01*
X0265781Y0207718D02*
X0265214Y0208285D01*
X0264647Y0208285D01*
X0264080Y0207718D01*
X0264080Y0206016D01*
X0267482Y0206016D01*
X0134156Y0063496D02*
X0134724Y0062929D01*
X0134724Y0062362D01*
X0134156Y0061795D01*
X0133022Y0061795D01*
X0132455Y0061228D01*
X0132455Y0060660D01*
X0133022Y0060093D01*
X0134156Y0060093D01*
X0134724Y0060660D01*
X0134156Y0063496D02*
X0133022Y0063496D01*
X0132455Y0062929D01*
X0131040Y0062362D02*
X0131040Y0060660D01*
X0130473Y0060093D01*
X0129906Y0060660D01*
X0129339Y0060093D01*
X0128772Y0060660D01*
X0128772Y0062362D01*
X0127357Y0062362D02*
X0126223Y0063496D01*
X0125089Y0062362D01*
X0125089Y0060093D01*
X0125089Y0061795D02*
X0127357Y0061795D01*
X0127357Y0062362D02*
X0127357Y0060093D01*
X0126500Y0057392D02*
X0124000Y0054892D01*
X0121500Y0057392D01*
X0116500Y0057392D02*
X0114000Y0054892D01*
X0114000Y0049892D01*
X0116500Y0047392D01*
X0121500Y0047392D02*
X0124000Y0049892D01*
X0126500Y0047392D01*
X0125656Y0043811D02*
X0125089Y0043244D01*
X0125089Y0042677D01*
X0125656Y0042110D01*
X0127357Y0042110D01*
X0128772Y0042677D02*
X0128772Y0040975D01*
X0129339Y0040408D01*
X0129906Y0040975D01*
X0130473Y0040408D01*
X0131040Y0040975D01*
X0131040Y0042677D01*
X0132455Y0043244D02*
X0133022Y0043811D01*
X0134156Y0043811D01*
X0134724Y0043244D01*
X0134724Y0042677D01*
X0134156Y0042110D01*
X0133022Y0042110D01*
X0132455Y0041543D01*
X0132455Y0040975D01*
X0133022Y0040408D01*
X0134156Y0040408D01*
X0134724Y0040975D01*
X0136500Y0037392D02*
X0134000Y0034892D01*
X0131500Y0037392D01*
X0126500Y0037392D02*
X0124000Y0034892D01*
X0121500Y0037392D01*
X0125089Y0040975D02*
X0125656Y0040408D01*
X0127357Y0040408D01*
X0127357Y0043811D01*
X0125656Y0043811D01*
X0125656Y0042110D02*
X0125089Y0041543D01*
X0125089Y0040975D01*
X0131500Y0047392D02*
X0134000Y0049892D01*
X0136500Y0047392D01*
X0141500Y0047392D02*
X0144000Y0049892D01*
X0144000Y0054892D01*
X0141500Y0057392D01*
X0136500Y0057392D02*
X0134000Y0054892D01*
X0131500Y0057392D01*
X0141500Y0037392D02*
X0144000Y0034892D01*
X0144000Y0029892D01*
X0141500Y0027392D01*
X0136500Y0027392D02*
X0134000Y0029892D01*
X0131500Y0027392D01*
X0126500Y0027392D02*
X0124000Y0029892D01*
X0121500Y0027392D01*
X0116500Y0027392D02*
X0114000Y0029892D01*
X0114000Y0034892D01*
X0116500Y0037392D01*
X0016500Y0212392D02*
X0014000Y0214892D01*
X0011577Y0214965D02*
X0011010Y0214398D01*
X0008741Y0214398D01*
X0008174Y0214965D01*
X0008174Y0216100D01*
X0008741Y0216667D01*
X0009875Y0216667D01*
X0009875Y0215533D01*
X0011010Y0216667D02*
X0011577Y0216100D01*
X0011577Y0214965D01*
X0010443Y0218081D02*
X0008174Y0218081D01*
X0010443Y0218081D02*
X0010443Y0219783D01*
X0009875Y0220350D01*
X0008174Y0220350D01*
X0008741Y0221764D02*
X0009875Y0221764D01*
X0010443Y0222332D01*
X0010443Y0224033D01*
X0011577Y0224033D02*
X0008174Y0224033D01*
X0008174Y0222332D01*
X0008741Y0221764D01*
X0011010Y0225955D02*
X0009875Y0227090D01*
X0008174Y0227090D01*
X0009875Y0227090D02*
X0011010Y0228224D01*
X0011577Y0228224D01*
X0010443Y0229639D02*
X0011577Y0230773D01*
X0008174Y0230773D01*
X0008174Y0229639D02*
X0008174Y0231907D01*
X0008741Y0234814D02*
X0008174Y0235381D01*
X0008174Y0236515D01*
X0008741Y0237082D01*
X0009875Y0237082D01*
X0010443Y0236515D01*
X0010443Y0235948D01*
X0009875Y0234814D01*
X0011577Y0234814D01*
X0011577Y0237082D01*
X0011577Y0238497D02*
X0009308Y0238497D01*
X0008174Y0239631D01*
X0009308Y0240765D01*
X0011577Y0240765D01*
X0014000Y0239892D02*
X0016500Y0242392D01*
X0021500Y0242392D01*
X0024000Y0239892D01*
X0021500Y0242392D02*
X0016500Y0242392D01*
X0014000Y0244892D01*
X0011577Y0244493D02*
X0011010Y0243926D01*
X0008741Y0243926D01*
X0008174Y0244493D01*
X0008174Y0245627D01*
X0008741Y0246194D01*
X0009875Y0246194D01*
X0009875Y0245060D01*
X0011010Y0246194D02*
X0011577Y0245627D01*
X0011577Y0244493D01*
X0010443Y0247609D02*
X0008174Y0247609D01*
X0008174Y0249878D02*
X0009875Y0249878D01*
X0010443Y0249310D01*
X0010443Y0247609D01*
X0009875Y0251292D02*
X0008741Y0251292D01*
X0008174Y0251859D01*
X0008174Y0253561D01*
X0011577Y0253561D01*
X0010443Y0253561D02*
X0010443Y0251859D01*
X0009875Y0251292D01*
X0014000Y0249892D02*
X0016500Y0252392D01*
X0014000Y0254892D01*
X0011577Y0256467D02*
X0008174Y0258736D01*
X0008174Y0260150D02*
X0008174Y0262419D01*
X0008174Y0261285D02*
X0011577Y0261285D01*
X0010443Y0260150D01*
X0011577Y0258736D02*
X0008174Y0256467D01*
X0014000Y0259892D02*
X0016500Y0262392D01*
X0014000Y0264892D01*
X0011577Y0265325D02*
X0011577Y0267594D01*
X0010443Y0267027D02*
X0009875Y0267594D01*
X0008741Y0267594D01*
X0008174Y0267027D01*
X0008174Y0265893D01*
X0008741Y0265325D01*
X0009875Y0265325D02*
X0010443Y0266460D01*
X0010443Y0267027D01*
X0009875Y0265325D02*
X0011577Y0265325D01*
X0011577Y0269009D02*
X0009308Y0269009D01*
X0008174Y0270143D01*
X0009308Y0271277D01*
X0011577Y0271277D01*
X0014000Y0269892D02*
X0016500Y0272392D01*
X0021500Y0272392D01*
X0024000Y0269892D01*
X0024000Y0264892D02*
X0021500Y0262392D01*
X0024000Y0259892D01*
X0024000Y0254892D02*
X0021500Y0252392D01*
X0024000Y0249892D01*
X0024000Y0244892D02*
X0021500Y0242392D01*
X0024000Y0234892D02*
X0021500Y0232392D01*
X0024000Y0229892D01*
X0028843Y0229639D02*
X0031112Y0229639D01*
X0032246Y0230773D01*
X0031112Y0231907D01*
X0028843Y0231907D01*
X0030545Y0231907D02*
X0030545Y0229639D01*
X0034000Y0229892D02*
X0036500Y0232392D01*
X0034000Y0234892D01*
X0032246Y0233829D02*
X0030545Y0233829D01*
X0031112Y0234964D01*
X0031112Y0235531D01*
X0030545Y0236098D01*
X0029410Y0236098D01*
X0028843Y0235531D01*
X0028843Y0234397D01*
X0029410Y0233829D01*
X0032246Y0233829D02*
X0032246Y0236098D01*
X0032246Y0237513D02*
X0029978Y0237513D01*
X0028843Y0238647D01*
X0029978Y0239781D01*
X0032246Y0239781D01*
X0034000Y0239892D02*
X0036500Y0242392D01*
X0041500Y0242392D01*
X0044000Y0239892D01*
X0044000Y0234892D02*
X0041500Y0232392D01*
X0044000Y0229892D01*
X0050230Y0225121D02*
X0051364Y0223987D01*
X0051931Y0223987D01*
X0054000Y0224892D02*
X0056500Y0222392D01*
X0054000Y0219892D01*
X0054000Y0229892D02*
X0056500Y0232392D01*
X0054000Y0234892D01*
X0044000Y0249892D02*
X0041500Y0252392D01*
X0044000Y0254892D01*
X0044000Y0259892D02*
X0041500Y0262392D01*
X0044000Y0264892D01*
X0048528Y0265058D02*
X0048528Y0263924D01*
X0049095Y0263357D01*
X0050230Y0263357D02*
X0050797Y0264491D01*
X0050797Y0265058D01*
X0050230Y0265626D01*
X0049095Y0265626D01*
X0048528Y0265058D01*
X0049663Y0267040D02*
X0048528Y0268174D01*
X0049663Y0267040D02*
X0051931Y0267040D01*
X0051931Y0265626D02*
X0051931Y0263357D01*
X0050230Y0263357D01*
X0050230Y0259883D02*
X0050230Y0259316D01*
X0054000Y0259892D02*
X0056500Y0262392D01*
X0054000Y0264892D01*
X0031112Y0246625D02*
X0028843Y0246625D01*
X0016500Y0232392D02*
X0014000Y0229892D01*
X0016500Y0232392D02*
X0014000Y0234892D01*
X0011577Y0225955D02*
X0011010Y0225955D01*
X0014000Y0224892D02*
X0016500Y0222392D01*
X0014000Y0219892D01*
D12*
X0082780Y0045030D02*
X0082780Y0040108D01*
X0303213Y0106053D02*
X0306165Y0106053D01*
X0306165Y0111959D01*
X0306165Y0133612D02*
X0306165Y0139518D01*
X0303213Y0139518D01*
D13*
X0214519Y0087812D02*
X0214519Y0085476D01*
X0212767Y0085476D01*
X0213351Y0086644D01*
X0213351Y0087228D01*
X0212767Y0087812D01*
X0211600Y0087812D01*
X0211016Y0087228D01*
X0211016Y0086060D01*
X0211600Y0085476D01*
X0211600Y0084129D02*
X0211016Y0083545D01*
X0211016Y0082377D01*
X0211600Y0081793D01*
X0214519Y0081793D01*
X0214519Y0084129D02*
X0211600Y0084129D01*
X0115254Y0147039D02*
X0110750Y0147039D01*
X0110750Y0145538D02*
X0110750Y0148540D01*
X0113753Y0145538D02*
X0115254Y0147039D01*
X0096254Y0120040D02*
X0095503Y0118539D01*
X0094002Y0117038D01*
X0094002Y0119290D01*
X0093251Y0120040D01*
X0092501Y0120040D01*
X0091750Y0119290D01*
X0091750Y0117788D01*
X0092501Y0117038D01*
X0094002Y0117038D01*
X0105693Y0080384D02*
X0107661Y0080384D01*
X0107661Y0023297D01*
X0048803Y0023297D01*
X0048606Y0023297D02*
X0048606Y0074478D01*
X0053331Y0074478D01*
X0053331Y0080384D01*
X0067504Y0080384D01*
D14*
X0061500Y0202392D02*
X0056500Y0202392D01*
X0056500Y0212392D02*
X0061500Y0212392D01*
X0206122Y0096906D02*
X0206122Y0071106D01*
X0219122Y0071106D01*
X0219122Y0096906D01*
X0206122Y0096906D01*
X0254000Y0202392D02*
X0259000Y0202392D01*
X0259000Y0212392D02*
X0254000Y0212392D01*
M02*
