G75*
%MOIN*%
%OFA0B0*%
%FSLAX25Y25*%
%IPPOS*%
%LPD*%
%AMOC8*
5,1,8,0,0,1.08239X$1,22.5*
%
%ADD10C,0.00000*%
D10*
X0004000Y0022392D02*
X0004000Y0297982D01*
X0311087Y0297982D01*
X0311087Y0022392D01*
X0004000Y0022392D01*
X0018173Y0032234D02*
X0018175Y0032382D01*
X0018181Y0032530D01*
X0018191Y0032678D01*
X0018205Y0032825D01*
X0018223Y0032972D01*
X0018244Y0033118D01*
X0018270Y0033264D01*
X0018300Y0033409D01*
X0018333Y0033553D01*
X0018371Y0033696D01*
X0018412Y0033838D01*
X0018457Y0033979D01*
X0018505Y0034119D01*
X0018558Y0034258D01*
X0018614Y0034395D01*
X0018674Y0034530D01*
X0018737Y0034664D01*
X0018804Y0034796D01*
X0018875Y0034926D01*
X0018949Y0035054D01*
X0019026Y0035180D01*
X0019107Y0035304D01*
X0019191Y0035426D01*
X0019278Y0035545D01*
X0019369Y0035662D01*
X0019463Y0035777D01*
X0019559Y0035889D01*
X0019659Y0035999D01*
X0019761Y0036105D01*
X0019867Y0036209D01*
X0019975Y0036310D01*
X0020086Y0036408D01*
X0020199Y0036504D01*
X0020315Y0036596D01*
X0020433Y0036685D01*
X0020554Y0036770D01*
X0020677Y0036853D01*
X0020802Y0036932D01*
X0020929Y0037008D01*
X0021058Y0037080D01*
X0021189Y0037149D01*
X0021322Y0037214D01*
X0021457Y0037275D01*
X0021593Y0037333D01*
X0021730Y0037388D01*
X0021869Y0037438D01*
X0022010Y0037485D01*
X0022151Y0037528D01*
X0022294Y0037568D01*
X0022438Y0037603D01*
X0022582Y0037635D01*
X0022728Y0037662D01*
X0022874Y0037686D01*
X0023021Y0037706D01*
X0023168Y0037722D01*
X0023315Y0037734D01*
X0023463Y0037742D01*
X0023611Y0037746D01*
X0023759Y0037746D01*
X0023907Y0037742D01*
X0024055Y0037734D01*
X0024202Y0037722D01*
X0024349Y0037706D01*
X0024496Y0037686D01*
X0024642Y0037662D01*
X0024788Y0037635D01*
X0024932Y0037603D01*
X0025076Y0037568D01*
X0025219Y0037528D01*
X0025360Y0037485D01*
X0025501Y0037438D01*
X0025640Y0037388D01*
X0025777Y0037333D01*
X0025913Y0037275D01*
X0026048Y0037214D01*
X0026181Y0037149D01*
X0026312Y0037080D01*
X0026441Y0037008D01*
X0026568Y0036932D01*
X0026693Y0036853D01*
X0026816Y0036770D01*
X0026937Y0036685D01*
X0027055Y0036596D01*
X0027171Y0036504D01*
X0027284Y0036408D01*
X0027395Y0036310D01*
X0027503Y0036209D01*
X0027609Y0036105D01*
X0027711Y0035999D01*
X0027811Y0035889D01*
X0027907Y0035777D01*
X0028001Y0035662D01*
X0028092Y0035545D01*
X0028179Y0035426D01*
X0028263Y0035304D01*
X0028344Y0035180D01*
X0028421Y0035054D01*
X0028495Y0034926D01*
X0028566Y0034796D01*
X0028633Y0034664D01*
X0028696Y0034530D01*
X0028756Y0034395D01*
X0028812Y0034258D01*
X0028865Y0034119D01*
X0028913Y0033979D01*
X0028958Y0033838D01*
X0028999Y0033696D01*
X0029037Y0033553D01*
X0029070Y0033409D01*
X0029100Y0033264D01*
X0029126Y0033118D01*
X0029147Y0032972D01*
X0029165Y0032825D01*
X0029179Y0032678D01*
X0029189Y0032530D01*
X0029195Y0032382D01*
X0029197Y0032234D01*
X0029195Y0032086D01*
X0029189Y0031938D01*
X0029179Y0031790D01*
X0029165Y0031643D01*
X0029147Y0031496D01*
X0029126Y0031350D01*
X0029100Y0031204D01*
X0029070Y0031059D01*
X0029037Y0030915D01*
X0028999Y0030772D01*
X0028958Y0030630D01*
X0028913Y0030489D01*
X0028865Y0030349D01*
X0028812Y0030210D01*
X0028756Y0030073D01*
X0028696Y0029938D01*
X0028633Y0029804D01*
X0028566Y0029672D01*
X0028495Y0029542D01*
X0028421Y0029414D01*
X0028344Y0029288D01*
X0028263Y0029164D01*
X0028179Y0029042D01*
X0028092Y0028923D01*
X0028001Y0028806D01*
X0027907Y0028691D01*
X0027811Y0028579D01*
X0027711Y0028469D01*
X0027609Y0028363D01*
X0027503Y0028259D01*
X0027395Y0028158D01*
X0027284Y0028060D01*
X0027171Y0027964D01*
X0027055Y0027872D01*
X0026937Y0027783D01*
X0026816Y0027698D01*
X0026693Y0027615D01*
X0026568Y0027536D01*
X0026441Y0027460D01*
X0026312Y0027388D01*
X0026181Y0027319D01*
X0026048Y0027254D01*
X0025913Y0027193D01*
X0025777Y0027135D01*
X0025640Y0027080D01*
X0025501Y0027030D01*
X0025360Y0026983D01*
X0025219Y0026940D01*
X0025076Y0026900D01*
X0024932Y0026865D01*
X0024788Y0026833D01*
X0024642Y0026806D01*
X0024496Y0026782D01*
X0024349Y0026762D01*
X0024202Y0026746D01*
X0024055Y0026734D01*
X0023907Y0026726D01*
X0023759Y0026722D01*
X0023611Y0026722D01*
X0023463Y0026726D01*
X0023315Y0026734D01*
X0023168Y0026746D01*
X0023021Y0026762D01*
X0022874Y0026782D01*
X0022728Y0026806D01*
X0022582Y0026833D01*
X0022438Y0026865D01*
X0022294Y0026900D01*
X0022151Y0026940D01*
X0022010Y0026983D01*
X0021869Y0027030D01*
X0021730Y0027080D01*
X0021593Y0027135D01*
X0021457Y0027193D01*
X0021322Y0027254D01*
X0021189Y0027319D01*
X0021058Y0027388D01*
X0020929Y0027460D01*
X0020802Y0027536D01*
X0020677Y0027615D01*
X0020554Y0027698D01*
X0020433Y0027783D01*
X0020315Y0027872D01*
X0020199Y0027964D01*
X0020086Y0028060D01*
X0019975Y0028158D01*
X0019867Y0028259D01*
X0019761Y0028363D01*
X0019659Y0028469D01*
X0019559Y0028579D01*
X0019463Y0028691D01*
X0019369Y0028806D01*
X0019278Y0028923D01*
X0019191Y0029042D01*
X0019107Y0029164D01*
X0019026Y0029288D01*
X0018949Y0029414D01*
X0018875Y0029542D01*
X0018804Y0029672D01*
X0018737Y0029804D01*
X0018674Y0029938D01*
X0018614Y0030073D01*
X0018558Y0030210D01*
X0018505Y0030349D01*
X0018457Y0030489D01*
X0018412Y0030630D01*
X0018371Y0030772D01*
X0018333Y0030915D01*
X0018300Y0031059D01*
X0018270Y0031204D01*
X0018244Y0031350D01*
X0018223Y0031496D01*
X0018205Y0031643D01*
X0018191Y0031790D01*
X0018181Y0031938D01*
X0018175Y0032086D01*
X0018173Y0032234D01*
X0101441Y0266486D02*
X0101443Y0266611D01*
X0101449Y0266736D01*
X0101459Y0266860D01*
X0101473Y0266984D01*
X0101490Y0267108D01*
X0101512Y0267231D01*
X0101538Y0267353D01*
X0101567Y0267475D01*
X0101600Y0267595D01*
X0101638Y0267714D01*
X0101678Y0267833D01*
X0101723Y0267949D01*
X0101771Y0268064D01*
X0101823Y0268178D01*
X0101879Y0268290D01*
X0101938Y0268400D01*
X0102000Y0268508D01*
X0102066Y0268615D01*
X0102135Y0268719D01*
X0102208Y0268820D01*
X0102283Y0268920D01*
X0102362Y0269017D01*
X0102444Y0269111D01*
X0102529Y0269203D01*
X0102616Y0269292D01*
X0102707Y0269378D01*
X0102800Y0269461D01*
X0102896Y0269542D01*
X0102994Y0269619D01*
X0103094Y0269693D01*
X0103197Y0269764D01*
X0103302Y0269831D01*
X0103410Y0269896D01*
X0103519Y0269956D01*
X0103630Y0270014D01*
X0103743Y0270067D01*
X0103857Y0270117D01*
X0103973Y0270164D01*
X0104090Y0270206D01*
X0104209Y0270245D01*
X0104329Y0270281D01*
X0104450Y0270312D01*
X0104572Y0270340D01*
X0104694Y0270363D01*
X0104818Y0270383D01*
X0104942Y0270399D01*
X0105066Y0270411D01*
X0105191Y0270419D01*
X0105316Y0270423D01*
X0105440Y0270423D01*
X0105565Y0270419D01*
X0105690Y0270411D01*
X0105814Y0270399D01*
X0105938Y0270383D01*
X0106062Y0270363D01*
X0106184Y0270340D01*
X0106306Y0270312D01*
X0106427Y0270281D01*
X0106547Y0270245D01*
X0106666Y0270206D01*
X0106783Y0270164D01*
X0106899Y0270117D01*
X0107013Y0270067D01*
X0107126Y0270014D01*
X0107237Y0269956D01*
X0107347Y0269896D01*
X0107454Y0269831D01*
X0107559Y0269764D01*
X0107662Y0269693D01*
X0107762Y0269619D01*
X0107860Y0269542D01*
X0107956Y0269461D01*
X0108049Y0269378D01*
X0108140Y0269292D01*
X0108227Y0269203D01*
X0108312Y0269111D01*
X0108394Y0269017D01*
X0108473Y0268920D01*
X0108548Y0268820D01*
X0108621Y0268719D01*
X0108690Y0268615D01*
X0108756Y0268508D01*
X0108818Y0268400D01*
X0108877Y0268290D01*
X0108933Y0268178D01*
X0108985Y0268064D01*
X0109033Y0267949D01*
X0109078Y0267833D01*
X0109118Y0267714D01*
X0109156Y0267595D01*
X0109189Y0267475D01*
X0109218Y0267353D01*
X0109244Y0267231D01*
X0109266Y0267108D01*
X0109283Y0266984D01*
X0109297Y0266860D01*
X0109307Y0266736D01*
X0109313Y0266611D01*
X0109315Y0266486D01*
X0109313Y0266361D01*
X0109307Y0266236D01*
X0109297Y0266112D01*
X0109283Y0265988D01*
X0109266Y0265864D01*
X0109244Y0265741D01*
X0109218Y0265619D01*
X0109189Y0265497D01*
X0109156Y0265377D01*
X0109118Y0265258D01*
X0109078Y0265139D01*
X0109033Y0265023D01*
X0108985Y0264908D01*
X0108933Y0264794D01*
X0108877Y0264682D01*
X0108818Y0264572D01*
X0108756Y0264464D01*
X0108690Y0264357D01*
X0108621Y0264253D01*
X0108548Y0264152D01*
X0108473Y0264052D01*
X0108394Y0263955D01*
X0108312Y0263861D01*
X0108227Y0263769D01*
X0108140Y0263680D01*
X0108049Y0263594D01*
X0107956Y0263511D01*
X0107860Y0263430D01*
X0107762Y0263353D01*
X0107662Y0263279D01*
X0107559Y0263208D01*
X0107454Y0263141D01*
X0107346Y0263076D01*
X0107237Y0263016D01*
X0107126Y0262958D01*
X0107013Y0262905D01*
X0106899Y0262855D01*
X0106783Y0262808D01*
X0106666Y0262766D01*
X0106547Y0262727D01*
X0106427Y0262691D01*
X0106306Y0262660D01*
X0106184Y0262632D01*
X0106062Y0262609D01*
X0105938Y0262589D01*
X0105814Y0262573D01*
X0105690Y0262561D01*
X0105565Y0262553D01*
X0105440Y0262549D01*
X0105316Y0262549D01*
X0105191Y0262553D01*
X0105066Y0262561D01*
X0104942Y0262573D01*
X0104818Y0262589D01*
X0104694Y0262609D01*
X0104572Y0262632D01*
X0104450Y0262660D01*
X0104329Y0262691D01*
X0104209Y0262727D01*
X0104090Y0262766D01*
X0103973Y0262808D01*
X0103857Y0262855D01*
X0103743Y0262905D01*
X0103630Y0262958D01*
X0103519Y0263016D01*
X0103409Y0263076D01*
X0103302Y0263141D01*
X0103197Y0263208D01*
X0103094Y0263279D01*
X0102994Y0263353D01*
X0102896Y0263430D01*
X0102800Y0263511D01*
X0102707Y0263594D01*
X0102616Y0263680D01*
X0102529Y0263769D01*
X0102444Y0263861D01*
X0102362Y0263955D01*
X0102283Y0264052D01*
X0102208Y0264152D01*
X0102135Y0264253D01*
X0102066Y0264357D01*
X0102000Y0264464D01*
X0101938Y0264572D01*
X0101879Y0264682D01*
X0101823Y0264794D01*
X0101771Y0264908D01*
X0101723Y0265023D01*
X0101678Y0265139D01*
X0101638Y0265258D01*
X0101600Y0265377D01*
X0101567Y0265497D01*
X0101538Y0265619D01*
X0101512Y0265741D01*
X0101490Y0265864D01*
X0101473Y0265988D01*
X0101459Y0266112D01*
X0101449Y0266236D01*
X0101443Y0266361D01*
X0101441Y0266486D01*
X0018173Y0288140D02*
X0018175Y0288288D01*
X0018181Y0288436D01*
X0018191Y0288584D01*
X0018205Y0288731D01*
X0018223Y0288878D01*
X0018244Y0289024D01*
X0018270Y0289170D01*
X0018300Y0289315D01*
X0018333Y0289459D01*
X0018371Y0289602D01*
X0018412Y0289744D01*
X0018457Y0289885D01*
X0018505Y0290025D01*
X0018558Y0290164D01*
X0018614Y0290301D01*
X0018674Y0290436D01*
X0018737Y0290570D01*
X0018804Y0290702D01*
X0018875Y0290832D01*
X0018949Y0290960D01*
X0019026Y0291086D01*
X0019107Y0291210D01*
X0019191Y0291332D01*
X0019278Y0291451D01*
X0019369Y0291568D01*
X0019463Y0291683D01*
X0019559Y0291795D01*
X0019659Y0291905D01*
X0019761Y0292011D01*
X0019867Y0292115D01*
X0019975Y0292216D01*
X0020086Y0292314D01*
X0020199Y0292410D01*
X0020315Y0292502D01*
X0020433Y0292591D01*
X0020554Y0292676D01*
X0020677Y0292759D01*
X0020802Y0292838D01*
X0020929Y0292914D01*
X0021058Y0292986D01*
X0021189Y0293055D01*
X0021322Y0293120D01*
X0021457Y0293181D01*
X0021593Y0293239D01*
X0021730Y0293294D01*
X0021869Y0293344D01*
X0022010Y0293391D01*
X0022151Y0293434D01*
X0022294Y0293474D01*
X0022438Y0293509D01*
X0022582Y0293541D01*
X0022728Y0293568D01*
X0022874Y0293592D01*
X0023021Y0293612D01*
X0023168Y0293628D01*
X0023315Y0293640D01*
X0023463Y0293648D01*
X0023611Y0293652D01*
X0023759Y0293652D01*
X0023907Y0293648D01*
X0024055Y0293640D01*
X0024202Y0293628D01*
X0024349Y0293612D01*
X0024496Y0293592D01*
X0024642Y0293568D01*
X0024788Y0293541D01*
X0024932Y0293509D01*
X0025076Y0293474D01*
X0025219Y0293434D01*
X0025360Y0293391D01*
X0025501Y0293344D01*
X0025640Y0293294D01*
X0025777Y0293239D01*
X0025913Y0293181D01*
X0026048Y0293120D01*
X0026181Y0293055D01*
X0026312Y0292986D01*
X0026441Y0292914D01*
X0026568Y0292838D01*
X0026693Y0292759D01*
X0026816Y0292676D01*
X0026937Y0292591D01*
X0027055Y0292502D01*
X0027171Y0292410D01*
X0027284Y0292314D01*
X0027395Y0292216D01*
X0027503Y0292115D01*
X0027609Y0292011D01*
X0027711Y0291905D01*
X0027811Y0291795D01*
X0027907Y0291683D01*
X0028001Y0291568D01*
X0028092Y0291451D01*
X0028179Y0291332D01*
X0028263Y0291210D01*
X0028344Y0291086D01*
X0028421Y0290960D01*
X0028495Y0290832D01*
X0028566Y0290702D01*
X0028633Y0290570D01*
X0028696Y0290436D01*
X0028756Y0290301D01*
X0028812Y0290164D01*
X0028865Y0290025D01*
X0028913Y0289885D01*
X0028958Y0289744D01*
X0028999Y0289602D01*
X0029037Y0289459D01*
X0029070Y0289315D01*
X0029100Y0289170D01*
X0029126Y0289024D01*
X0029147Y0288878D01*
X0029165Y0288731D01*
X0029179Y0288584D01*
X0029189Y0288436D01*
X0029195Y0288288D01*
X0029197Y0288140D01*
X0029195Y0287992D01*
X0029189Y0287844D01*
X0029179Y0287696D01*
X0029165Y0287549D01*
X0029147Y0287402D01*
X0029126Y0287256D01*
X0029100Y0287110D01*
X0029070Y0286965D01*
X0029037Y0286821D01*
X0028999Y0286678D01*
X0028958Y0286536D01*
X0028913Y0286395D01*
X0028865Y0286255D01*
X0028812Y0286116D01*
X0028756Y0285979D01*
X0028696Y0285844D01*
X0028633Y0285710D01*
X0028566Y0285578D01*
X0028495Y0285448D01*
X0028421Y0285320D01*
X0028344Y0285194D01*
X0028263Y0285070D01*
X0028179Y0284948D01*
X0028092Y0284829D01*
X0028001Y0284712D01*
X0027907Y0284597D01*
X0027811Y0284485D01*
X0027711Y0284375D01*
X0027609Y0284269D01*
X0027503Y0284165D01*
X0027395Y0284064D01*
X0027284Y0283966D01*
X0027171Y0283870D01*
X0027055Y0283778D01*
X0026937Y0283689D01*
X0026816Y0283604D01*
X0026693Y0283521D01*
X0026568Y0283442D01*
X0026441Y0283366D01*
X0026312Y0283294D01*
X0026181Y0283225D01*
X0026048Y0283160D01*
X0025913Y0283099D01*
X0025777Y0283041D01*
X0025640Y0282986D01*
X0025501Y0282936D01*
X0025360Y0282889D01*
X0025219Y0282846D01*
X0025076Y0282806D01*
X0024932Y0282771D01*
X0024788Y0282739D01*
X0024642Y0282712D01*
X0024496Y0282688D01*
X0024349Y0282668D01*
X0024202Y0282652D01*
X0024055Y0282640D01*
X0023907Y0282632D01*
X0023759Y0282628D01*
X0023611Y0282628D01*
X0023463Y0282632D01*
X0023315Y0282640D01*
X0023168Y0282652D01*
X0023021Y0282668D01*
X0022874Y0282688D01*
X0022728Y0282712D01*
X0022582Y0282739D01*
X0022438Y0282771D01*
X0022294Y0282806D01*
X0022151Y0282846D01*
X0022010Y0282889D01*
X0021869Y0282936D01*
X0021730Y0282986D01*
X0021593Y0283041D01*
X0021457Y0283099D01*
X0021322Y0283160D01*
X0021189Y0283225D01*
X0021058Y0283294D01*
X0020929Y0283366D01*
X0020802Y0283442D01*
X0020677Y0283521D01*
X0020554Y0283604D01*
X0020433Y0283689D01*
X0020315Y0283778D01*
X0020199Y0283870D01*
X0020086Y0283966D01*
X0019975Y0284064D01*
X0019867Y0284165D01*
X0019761Y0284269D01*
X0019659Y0284375D01*
X0019559Y0284485D01*
X0019463Y0284597D01*
X0019369Y0284712D01*
X0019278Y0284829D01*
X0019191Y0284948D01*
X0019107Y0285070D01*
X0019026Y0285194D01*
X0018949Y0285320D01*
X0018875Y0285448D01*
X0018804Y0285578D01*
X0018737Y0285710D01*
X0018674Y0285844D01*
X0018614Y0285979D01*
X0018558Y0286116D01*
X0018505Y0286255D01*
X0018457Y0286395D01*
X0018412Y0286536D01*
X0018371Y0286678D01*
X0018333Y0286821D01*
X0018300Y0286965D01*
X0018270Y0287110D01*
X0018244Y0287256D01*
X0018223Y0287402D01*
X0018205Y0287549D01*
X0018191Y0287696D01*
X0018181Y0287844D01*
X0018175Y0287992D01*
X0018173Y0288140D01*
X0285890Y0288140D02*
X0285892Y0288288D01*
X0285898Y0288436D01*
X0285908Y0288584D01*
X0285922Y0288731D01*
X0285940Y0288878D01*
X0285961Y0289024D01*
X0285987Y0289170D01*
X0286017Y0289315D01*
X0286050Y0289459D01*
X0286088Y0289602D01*
X0286129Y0289744D01*
X0286174Y0289885D01*
X0286222Y0290025D01*
X0286275Y0290164D01*
X0286331Y0290301D01*
X0286391Y0290436D01*
X0286454Y0290570D01*
X0286521Y0290702D01*
X0286592Y0290832D01*
X0286666Y0290960D01*
X0286743Y0291086D01*
X0286824Y0291210D01*
X0286908Y0291332D01*
X0286995Y0291451D01*
X0287086Y0291568D01*
X0287180Y0291683D01*
X0287276Y0291795D01*
X0287376Y0291905D01*
X0287478Y0292011D01*
X0287584Y0292115D01*
X0287692Y0292216D01*
X0287803Y0292314D01*
X0287916Y0292410D01*
X0288032Y0292502D01*
X0288150Y0292591D01*
X0288271Y0292676D01*
X0288394Y0292759D01*
X0288519Y0292838D01*
X0288646Y0292914D01*
X0288775Y0292986D01*
X0288906Y0293055D01*
X0289039Y0293120D01*
X0289174Y0293181D01*
X0289310Y0293239D01*
X0289447Y0293294D01*
X0289586Y0293344D01*
X0289727Y0293391D01*
X0289868Y0293434D01*
X0290011Y0293474D01*
X0290155Y0293509D01*
X0290299Y0293541D01*
X0290445Y0293568D01*
X0290591Y0293592D01*
X0290738Y0293612D01*
X0290885Y0293628D01*
X0291032Y0293640D01*
X0291180Y0293648D01*
X0291328Y0293652D01*
X0291476Y0293652D01*
X0291624Y0293648D01*
X0291772Y0293640D01*
X0291919Y0293628D01*
X0292066Y0293612D01*
X0292213Y0293592D01*
X0292359Y0293568D01*
X0292505Y0293541D01*
X0292649Y0293509D01*
X0292793Y0293474D01*
X0292936Y0293434D01*
X0293077Y0293391D01*
X0293218Y0293344D01*
X0293357Y0293294D01*
X0293494Y0293239D01*
X0293630Y0293181D01*
X0293765Y0293120D01*
X0293898Y0293055D01*
X0294029Y0292986D01*
X0294158Y0292914D01*
X0294285Y0292838D01*
X0294410Y0292759D01*
X0294533Y0292676D01*
X0294654Y0292591D01*
X0294772Y0292502D01*
X0294888Y0292410D01*
X0295001Y0292314D01*
X0295112Y0292216D01*
X0295220Y0292115D01*
X0295326Y0292011D01*
X0295428Y0291905D01*
X0295528Y0291795D01*
X0295624Y0291683D01*
X0295718Y0291568D01*
X0295809Y0291451D01*
X0295896Y0291332D01*
X0295980Y0291210D01*
X0296061Y0291086D01*
X0296138Y0290960D01*
X0296212Y0290832D01*
X0296283Y0290702D01*
X0296350Y0290570D01*
X0296413Y0290436D01*
X0296473Y0290301D01*
X0296529Y0290164D01*
X0296582Y0290025D01*
X0296630Y0289885D01*
X0296675Y0289744D01*
X0296716Y0289602D01*
X0296754Y0289459D01*
X0296787Y0289315D01*
X0296817Y0289170D01*
X0296843Y0289024D01*
X0296864Y0288878D01*
X0296882Y0288731D01*
X0296896Y0288584D01*
X0296906Y0288436D01*
X0296912Y0288288D01*
X0296914Y0288140D01*
X0296912Y0287992D01*
X0296906Y0287844D01*
X0296896Y0287696D01*
X0296882Y0287549D01*
X0296864Y0287402D01*
X0296843Y0287256D01*
X0296817Y0287110D01*
X0296787Y0286965D01*
X0296754Y0286821D01*
X0296716Y0286678D01*
X0296675Y0286536D01*
X0296630Y0286395D01*
X0296582Y0286255D01*
X0296529Y0286116D01*
X0296473Y0285979D01*
X0296413Y0285844D01*
X0296350Y0285710D01*
X0296283Y0285578D01*
X0296212Y0285448D01*
X0296138Y0285320D01*
X0296061Y0285194D01*
X0295980Y0285070D01*
X0295896Y0284948D01*
X0295809Y0284829D01*
X0295718Y0284712D01*
X0295624Y0284597D01*
X0295528Y0284485D01*
X0295428Y0284375D01*
X0295326Y0284269D01*
X0295220Y0284165D01*
X0295112Y0284064D01*
X0295001Y0283966D01*
X0294888Y0283870D01*
X0294772Y0283778D01*
X0294654Y0283689D01*
X0294533Y0283604D01*
X0294410Y0283521D01*
X0294285Y0283442D01*
X0294158Y0283366D01*
X0294029Y0283294D01*
X0293898Y0283225D01*
X0293765Y0283160D01*
X0293630Y0283099D01*
X0293494Y0283041D01*
X0293357Y0282986D01*
X0293218Y0282936D01*
X0293077Y0282889D01*
X0292936Y0282846D01*
X0292793Y0282806D01*
X0292649Y0282771D01*
X0292505Y0282739D01*
X0292359Y0282712D01*
X0292213Y0282688D01*
X0292066Y0282668D01*
X0291919Y0282652D01*
X0291772Y0282640D01*
X0291624Y0282632D01*
X0291476Y0282628D01*
X0291328Y0282628D01*
X0291180Y0282632D01*
X0291032Y0282640D01*
X0290885Y0282652D01*
X0290738Y0282668D01*
X0290591Y0282688D01*
X0290445Y0282712D01*
X0290299Y0282739D01*
X0290155Y0282771D01*
X0290011Y0282806D01*
X0289868Y0282846D01*
X0289727Y0282889D01*
X0289586Y0282936D01*
X0289447Y0282986D01*
X0289310Y0283041D01*
X0289174Y0283099D01*
X0289039Y0283160D01*
X0288906Y0283225D01*
X0288775Y0283294D01*
X0288646Y0283366D01*
X0288519Y0283442D01*
X0288394Y0283521D01*
X0288271Y0283604D01*
X0288150Y0283689D01*
X0288032Y0283778D01*
X0287916Y0283870D01*
X0287803Y0283966D01*
X0287692Y0284064D01*
X0287584Y0284165D01*
X0287478Y0284269D01*
X0287376Y0284375D01*
X0287276Y0284485D01*
X0287180Y0284597D01*
X0287086Y0284712D01*
X0286995Y0284829D01*
X0286908Y0284948D01*
X0286824Y0285070D01*
X0286743Y0285194D01*
X0286666Y0285320D01*
X0286592Y0285448D01*
X0286521Y0285578D01*
X0286454Y0285710D01*
X0286391Y0285844D01*
X0286331Y0285979D01*
X0286275Y0286116D01*
X0286222Y0286255D01*
X0286174Y0286395D01*
X0286129Y0286536D01*
X0286088Y0286678D01*
X0286050Y0286821D01*
X0286017Y0286965D01*
X0285987Y0287110D01*
X0285961Y0287256D01*
X0285940Y0287402D01*
X0285922Y0287549D01*
X0285908Y0287696D01*
X0285898Y0287844D01*
X0285892Y0287992D01*
X0285890Y0288140D01*
X0285890Y0032234D02*
X0285892Y0032382D01*
X0285898Y0032530D01*
X0285908Y0032678D01*
X0285922Y0032825D01*
X0285940Y0032972D01*
X0285961Y0033118D01*
X0285987Y0033264D01*
X0286017Y0033409D01*
X0286050Y0033553D01*
X0286088Y0033696D01*
X0286129Y0033838D01*
X0286174Y0033979D01*
X0286222Y0034119D01*
X0286275Y0034258D01*
X0286331Y0034395D01*
X0286391Y0034530D01*
X0286454Y0034664D01*
X0286521Y0034796D01*
X0286592Y0034926D01*
X0286666Y0035054D01*
X0286743Y0035180D01*
X0286824Y0035304D01*
X0286908Y0035426D01*
X0286995Y0035545D01*
X0287086Y0035662D01*
X0287180Y0035777D01*
X0287276Y0035889D01*
X0287376Y0035999D01*
X0287478Y0036105D01*
X0287584Y0036209D01*
X0287692Y0036310D01*
X0287803Y0036408D01*
X0287916Y0036504D01*
X0288032Y0036596D01*
X0288150Y0036685D01*
X0288271Y0036770D01*
X0288394Y0036853D01*
X0288519Y0036932D01*
X0288646Y0037008D01*
X0288775Y0037080D01*
X0288906Y0037149D01*
X0289039Y0037214D01*
X0289174Y0037275D01*
X0289310Y0037333D01*
X0289447Y0037388D01*
X0289586Y0037438D01*
X0289727Y0037485D01*
X0289868Y0037528D01*
X0290011Y0037568D01*
X0290155Y0037603D01*
X0290299Y0037635D01*
X0290445Y0037662D01*
X0290591Y0037686D01*
X0290738Y0037706D01*
X0290885Y0037722D01*
X0291032Y0037734D01*
X0291180Y0037742D01*
X0291328Y0037746D01*
X0291476Y0037746D01*
X0291624Y0037742D01*
X0291772Y0037734D01*
X0291919Y0037722D01*
X0292066Y0037706D01*
X0292213Y0037686D01*
X0292359Y0037662D01*
X0292505Y0037635D01*
X0292649Y0037603D01*
X0292793Y0037568D01*
X0292936Y0037528D01*
X0293077Y0037485D01*
X0293218Y0037438D01*
X0293357Y0037388D01*
X0293494Y0037333D01*
X0293630Y0037275D01*
X0293765Y0037214D01*
X0293898Y0037149D01*
X0294029Y0037080D01*
X0294158Y0037008D01*
X0294285Y0036932D01*
X0294410Y0036853D01*
X0294533Y0036770D01*
X0294654Y0036685D01*
X0294772Y0036596D01*
X0294888Y0036504D01*
X0295001Y0036408D01*
X0295112Y0036310D01*
X0295220Y0036209D01*
X0295326Y0036105D01*
X0295428Y0035999D01*
X0295528Y0035889D01*
X0295624Y0035777D01*
X0295718Y0035662D01*
X0295809Y0035545D01*
X0295896Y0035426D01*
X0295980Y0035304D01*
X0296061Y0035180D01*
X0296138Y0035054D01*
X0296212Y0034926D01*
X0296283Y0034796D01*
X0296350Y0034664D01*
X0296413Y0034530D01*
X0296473Y0034395D01*
X0296529Y0034258D01*
X0296582Y0034119D01*
X0296630Y0033979D01*
X0296675Y0033838D01*
X0296716Y0033696D01*
X0296754Y0033553D01*
X0296787Y0033409D01*
X0296817Y0033264D01*
X0296843Y0033118D01*
X0296864Y0032972D01*
X0296882Y0032825D01*
X0296896Y0032678D01*
X0296906Y0032530D01*
X0296912Y0032382D01*
X0296914Y0032234D01*
X0296912Y0032086D01*
X0296906Y0031938D01*
X0296896Y0031790D01*
X0296882Y0031643D01*
X0296864Y0031496D01*
X0296843Y0031350D01*
X0296817Y0031204D01*
X0296787Y0031059D01*
X0296754Y0030915D01*
X0296716Y0030772D01*
X0296675Y0030630D01*
X0296630Y0030489D01*
X0296582Y0030349D01*
X0296529Y0030210D01*
X0296473Y0030073D01*
X0296413Y0029938D01*
X0296350Y0029804D01*
X0296283Y0029672D01*
X0296212Y0029542D01*
X0296138Y0029414D01*
X0296061Y0029288D01*
X0295980Y0029164D01*
X0295896Y0029042D01*
X0295809Y0028923D01*
X0295718Y0028806D01*
X0295624Y0028691D01*
X0295528Y0028579D01*
X0295428Y0028469D01*
X0295326Y0028363D01*
X0295220Y0028259D01*
X0295112Y0028158D01*
X0295001Y0028060D01*
X0294888Y0027964D01*
X0294772Y0027872D01*
X0294654Y0027783D01*
X0294533Y0027698D01*
X0294410Y0027615D01*
X0294285Y0027536D01*
X0294158Y0027460D01*
X0294029Y0027388D01*
X0293898Y0027319D01*
X0293765Y0027254D01*
X0293630Y0027193D01*
X0293494Y0027135D01*
X0293357Y0027080D01*
X0293218Y0027030D01*
X0293077Y0026983D01*
X0292936Y0026940D01*
X0292793Y0026900D01*
X0292649Y0026865D01*
X0292505Y0026833D01*
X0292359Y0026806D01*
X0292213Y0026782D01*
X0292066Y0026762D01*
X0291919Y0026746D01*
X0291772Y0026734D01*
X0291624Y0026726D01*
X0291476Y0026722D01*
X0291328Y0026722D01*
X0291180Y0026726D01*
X0291032Y0026734D01*
X0290885Y0026746D01*
X0290738Y0026762D01*
X0290591Y0026782D01*
X0290445Y0026806D01*
X0290299Y0026833D01*
X0290155Y0026865D01*
X0290011Y0026900D01*
X0289868Y0026940D01*
X0289727Y0026983D01*
X0289586Y0027030D01*
X0289447Y0027080D01*
X0289310Y0027135D01*
X0289174Y0027193D01*
X0289039Y0027254D01*
X0288906Y0027319D01*
X0288775Y0027388D01*
X0288646Y0027460D01*
X0288519Y0027536D01*
X0288394Y0027615D01*
X0288271Y0027698D01*
X0288150Y0027783D01*
X0288032Y0027872D01*
X0287916Y0027964D01*
X0287803Y0028060D01*
X0287692Y0028158D01*
X0287584Y0028259D01*
X0287478Y0028363D01*
X0287376Y0028469D01*
X0287276Y0028579D01*
X0287180Y0028691D01*
X0287086Y0028806D01*
X0286995Y0028923D01*
X0286908Y0029042D01*
X0286824Y0029164D01*
X0286743Y0029288D01*
X0286666Y0029414D01*
X0286592Y0029542D01*
X0286521Y0029672D01*
X0286454Y0029804D01*
X0286391Y0029938D01*
X0286331Y0030073D01*
X0286275Y0030210D01*
X0286222Y0030349D01*
X0286174Y0030489D01*
X0286129Y0030630D01*
X0286088Y0030772D01*
X0286050Y0030915D01*
X0286017Y0031059D01*
X0285987Y0031204D01*
X0285961Y0031350D01*
X0285940Y0031496D01*
X0285922Y0031643D01*
X0285908Y0031790D01*
X0285898Y0031938D01*
X0285892Y0032086D01*
X0285890Y0032234D01*
M02*
