G75*
%MOIN*%
%OFA0B0*%
%FSLAX25Y25*%
%IPPOS*%
%LPD*%
%AMOC8*
5,1,8,0,0,1.08239X$1,22.5*
%
%ADD10C,0.11824*%
%ADD11C,0.08674*%
%ADD12OC8,0.06000*%
%ADD13OC8,0.07000*%
%ADD14C,0.07000*%
%ADD15C,0.07493*%
%ADD16C,0.07400*%
%ADD17C,0.05200*%
%ADD18C,0.06800*%
%ADD19C,0.08200*%
%ADD20C,0.06800*%
%ADD21OC8,0.06800*%
%ADD22R,0.03162X0.05524*%
%ADD23R,0.05524X0.07887*%
%ADD24R,0.05524X0.09461*%
%ADD25R,0.07099X0.06706*%
%ADD26R,0.09600X0.05600*%
%ADD27R,0.09461X0.14973*%
%ADD28C,0.06737*%
%ADD29C,0.03975*%
D10*
X0023685Y0032234D03*
X0023685Y0288140D03*
X0291402Y0288140D03*
X0291402Y0032234D03*
D11*
X0105378Y0266486D03*
D12*
X0082740Y0254833D03*
X0072898Y0254833D03*
X0072898Y0234833D03*
X0072898Y0227274D03*
X0082740Y0227274D03*
X0082740Y0234833D03*
X0092583Y0227274D03*
X0102425Y0227274D03*
X0112268Y0227274D03*
X0117189Y0233396D03*
X0121126Y0227274D03*
X0129000Y0227274D03*
X0122189Y0240896D03*
X0112189Y0240896D03*
X0139827Y0238770D03*
X0147701Y0238770D03*
X0155575Y0238770D03*
X0163449Y0238770D03*
X0163449Y0258770D03*
X0155575Y0258770D03*
X0147701Y0258770D03*
X0139827Y0258770D03*
X0129000Y0207274D03*
X0121126Y0207274D03*
X0112268Y0207274D03*
X0102425Y0207274D03*
X0092583Y0207274D03*
X0082740Y0207274D03*
X0072898Y0207274D03*
X0078961Y0187746D03*
X0086677Y0187904D03*
X0078961Y0175935D03*
X0086677Y0167904D03*
X0074000Y0159705D03*
X0069000Y0167205D03*
X0064000Y0159705D03*
X0054000Y0149892D03*
X0054000Y0169892D03*
X0058961Y0175935D03*
X0058961Y0187746D03*
X0054039Y0127707D03*
X0054039Y0113927D03*
X0054039Y0106053D03*
X0054039Y0098179D03*
X0054039Y0090305D03*
X0074039Y0090305D03*
X0081598Y0090305D03*
X0081598Y0098179D03*
X0074039Y0098179D03*
X0074039Y0106053D03*
X0081598Y0106053D03*
X0081598Y0113927D03*
X0074039Y0113927D03*
X0074039Y0127707D03*
X0101598Y0113927D03*
X0101598Y0106053D03*
X0101598Y0098179D03*
X0101598Y0090305D03*
X0114079Y0086368D03*
X0119000Y0077510D03*
X0114079Y0065699D03*
X0134079Y0065699D03*
X0139000Y0077510D03*
X0147543Y0079478D03*
X0147543Y0090305D03*
X0134079Y0086368D03*
X0129079Y0098179D03*
X0124079Y0105679D03*
X0119079Y0098179D03*
X0114079Y0113927D03*
X0134079Y0113927D03*
X0167543Y0090305D03*
X0167543Y0079478D03*
X0262858Y0075699D03*
X0269669Y0087352D03*
X0274669Y0094852D03*
X0279669Y0087352D03*
X0274669Y0075699D03*
X0274669Y0055699D03*
X0262858Y0055699D03*
X0264669Y0103100D03*
X0264669Y0112943D03*
X0264669Y0122785D03*
X0264669Y0131644D03*
X0284669Y0131644D03*
X0284669Y0122785D03*
X0284669Y0112943D03*
X0284669Y0103100D03*
X0243173Y0179715D03*
X0243173Y0199715D03*
X0243173Y0207274D03*
X0233331Y0207274D03*
X0223488Y0207274D03*
X0213646Y0207274D03*
X0213646Y0227274D03*
X0213646Y0234833D03*
X0223488Y0234833D03*
X0223488Y0227274D03*
X0233331Y0227274D03*
X0233331Y0234833D03*
X0243173Y0234833D03*
X0243173Y0227274D03*
X0243173Y0254833D03*
X0246500Y0264892D03*
X0246500Y0272392D03*
X0233331Y0254833D03*
X0223488Y0254833D03*
X0213646Y0254833D03*
X0226500Y0264892D03*
X0226500Y0272392D03*
D13*
X0241126Y0109006D03*
D14*
X0251126Y0109006D03*
D15*
X0256205Y0131644D03*
X0264591Y0142470D03*
X0294591Y0142470D03*
X0226205Y0131644D03*
X0082031Y0142392D03*
X0052031Y0142392D03*
D16*
X0175024Y0239833D03*
X0175024Y0249833D03*
X0205024Y0249833D03*
X0205024Y0239833D03*
D17*
X0167543Y0107426D02*
X0167543Y0103026D01*
X0147543Y0103026D02*
X0147543Y0107426D01*
D18*
X0154000Y0055392D02*
X0154000Y0049392D01*
X0164000Y0049392D02*
X0164000Y0055392D01*
X0174000Y0055392D02*
X0174000Y0049392D01*
X0189000Y0049392D02*
X0189000Y0055392D01*
X0199000Y0055392D02*
X0199000Y0049392D01*
X0209000Y0049392D02*
X0209000Y0055392D01*
X0224000Y0055392D02*
X0224000Y0049392D01*
X0234000Y0049392D02*
X0234000Y0055392D01*
X0244000Y0055392D02*
X0244000Y0049392D01*
X0244000Y0035392D02*
X0244000Y0029392D01*
X0234000Y0029392D02*
X0234000Y0035392D01*
X0224000Y0035392D02*
X0224000Y0029392D01*
X0209000Y0029392D02*
X0209000Y0035392D01*
X0199000Y0035392D02*
X0199000Y0029392D01*
X0189000Y0029392D02*
X0189000Y0035392D01*
X0174000Y0035392D02*
X0174000Y0029392D01*
X0164000Y0029392D02*
X0164000Y0035392D01*
X0154000Y0035392D02*
X0154000Y0029392D01*
X0139000Y0029392D02*
X0139000Y0035392D01*
X0129000Y0035392D02*
X0129000Y0029392D01*
X0119000Y0029392D02*
X0119000Y0035392D01*
X0119000Y0049392D02*
X0119000Y0055392D01*
X0129000Y0055392D02*
X0129000Y0049392D01*
X0139000Y0049392D02*
X0139000Y0055392D01*
X0042000Y0052392D02*
X0036000Y0052392D01*
X0036000Y0062392D02*
X0042000Y0062392D01*
X0042000Y0072392D02*
X0036000Y0072392D01*
X0036000Y0082392D02*
X0042000Y0082392D01*
X0042000Y0092392D02*
X0036000Y0092392D01*
X0022000Y0092392D02*
X0016000Y0092392D01*
X0016000Y0102392D02*
X0022000Y0102392D01*
X0022000Y0112392D02*
X0016000Y0112392D01*
X0016000Y0122392D02*
X0022000Y0122392D01*
X0022000Y0132392D02*
X0016000Y0132392D01*
X0016000Y0142392D02*
X0022000Y0142392D01*
X0036000Y0142392D02*
X0042000Y0142392D01*
X0042000Y0132392D02*
X0036000Y0132392D01*
X0036000Y0122392D02*
X0042000Y0122392D01*
X0042000Y0157392D02*
X0036000Y0157392D01*
X0036000Y0167392D02*
X0042000Y0167392D01*
X0042000Y0177392D02*
X0036000Y0177392D01*
X0036000Y0187392D02*
X0042000Y0187392D01*
X0042000Y0197392D02*
X0036000Y0197392D01*
X0022000Y0197392D02*
X0016000Y0197392D01*
X0016000Y0207392D02*
X0022000Y0207392D01*
X0022000Y0217392D02*
X0016000Y0217392D01*
X0016000Y0227392D02*
X0022000Y0227392D01*
X0022000Y0237392D02*
X0016000Y0237392D01*
X0016000Y0247392D02*
X0022000Y0247392D01*
X0022000Y0257392D02*
X0016000Y0257392D01*
X0016000Y0267392D02*
X0022000Y0267392D01*
X0036000Y0267392D02*
X0042000Y0267392D01*
X0042000Y0257392D02*
X0036000Y0257392D01*
X0036000Y0247392D02*
X0042000Y0247392D01*
X0042000Y0237392D02*
X0036000Y0237392D01*
X0036000Y0227392D02*
X0042000Y0227392D01*
X0042000Y0217392D02*
X0036000Y0217392D01*
X0056000Y0217392D02*
X0062000Y0217392D01*
X0062000Y0227392D02*
X0056000Y0227392D01*
X0056000Y0237392D02*
X0062000Y0237392D01*
X0062000Y0247392D02*
X0056000Y0247392D01*
X0056000Y0257392D02*
X0062000Y0257392D01*
X0062000Y0267392D02*
X0056000Y0267392D01*
X0055161Y0285140D02*
X0055161Y0291140D01*
X0065161Y0291140D02*
X0065161Y0285140D01*
X0075161Y0285140D02*
X0075161Y0291140D01*
X0085161Y0291140D02*
X0085161Y0285140D01*
X0095161Y0285140D02*
X0095161Y0291140D01*
X0105161Y0291140D02*
X0105161Y0285140D01*
X0115161Y0285140D02*
X0115161Y0291140D01*
X0125161Y0291140D02*
X0125161Y0285140D01*
X0135161Y0285140D02*
X0135161Y0291140D01*
X0145161Y0291140D02*
X0145161Y0285140D01*
X0155161Y0285140D02*
X0155161Y0291140D01*
X0165161Y0291140D02*
X0165161Y0285140D01*
X0175161Y0285140D02*
X0175161Y0291140D01*
X0185161Y0291140D02*
X0185161Y0285140D01*
X0195161Y0285140D02*
X0195161Y0291140D01*
X0205161Y0291140D02*
X0205161Y0285140D01*
X0215161Y0285140D02*
X0215161Y0291140D01*
X0225161Y0291140D02*
X0225161Y0285140D01*
X0235161Y0285140D02*
X0235161Y0291140D01*
X0245161Y0291140D02*
X0245161Y0285140D01*
X0253500Y0267392D02*
X0259500Y0267392D01*
X0259500Y0257392D02*
X0253500Y0257392D01*
X0253500Y0247392D02*
X0259500Y0247392D01*
X0259500Y0237392D02*
X0253500Y0237392D01*
X0253500Y0227392D02*
X0259500Y0227392D01*
X0259500Y0217392D02*
X0253500Y0217392D01*
X0273500Y0217392D02*
X0279500Y0217392D01*
X0279500Y0227392D02*
X0273500Y0227392D01*
X0273500Y0237392D02*
X0279500Y0237392D01*
X0279500Y0247392D02*
X0273500Y0247392D01*
X0273500Y0257392D02*
X0279500Y0257392D01*
X0279500Y0267392D02*
X0273500Y0267392D01*
X0293500Y0267392D02*
X0299500Y0267392D01*
X0299500Y0257392D02*
X0293500Y0257392D01*
X0293500Y0247392D02*
X0299500Y0247392D01*
X0299500Y0237392D02*
X0293500Y0237392D01*
X0293500Y0227392D02*
X0299500Y0227392D01*
X0299500Y0217392D02*
X0293500Y0217392D01*
X0293500Y0207392D02*
X0299500Y0207392D01*
X0299500Y0197392D02*
X0293500Y0197392D01*
X0293500Y0187392D02*
X0299500Y0187392D01*
X0299500Y0177392D02*
X0293500Y0177392D01*
X0293500Y0167392D02*
X0299500Y0167392D01*
X0299500Y0157392D02*
X0293500Y0157392D01*
X0293500Y0132392D02*
X0299500Y0132392D01*
X0299500Y0122392D02*
X0293500Y0122392D01*
X0293500Y0112392D02*
X0299500Y0112392D01*
X0299500Y0092392D02*
X0293500Y0092392D01*
X0293500Y0082392D02*
X0299500Y0082392D01*
X0299500Y0072392D02*
X0293500Y0072392D01*
X0293500Y0062392D02*
X0299500Y0062392D01*
X0299500Y0052392D02*
X0293500Y0052392D01*
X0253063Y0071447D02*
X0247063Y0071447D01*
X0247063Y0081447D02*
X0253063Y0081447D01*
X0253063Y0091447D02*
X0247063Y0091447D01*
X0022000Y0082392D02*
X0016000Y0082392D01*
X0016000Y0072392D02*
X0022000Y0072392D01*
X0022000Y0062392D02*
X0016000Y0062392D01*
X0016000Y0052392D02*
X0022000Y0052392D01*
X0022000Y0157392D02*
X0016000Y0157392D01*
X0016000Y0167392D02*
X0022000Y0167392D01*
X0022000Y0177392D02*
X0016000Y0177392D01*
X0016000Y0187392D02*
X0022000Y0187392D01*
D19*
X0095378Y0266486D03*
X0115378Y0256486D03*
X0115378Y0276486D03*
D20*
X0104000Y0147392D03*
D21*
X0094000Y0147392D03*
X0094000Y0137392D03*
X0104000Y0137392D03*
X0104000Y0127392D03*
X0094000Y0127392D03*
D22*
X0095358Y0082057D03*
X0099689Y0082057D03*
X0104020Y0082057D03*
X0091028Y0082057D03*
X0086697Y0082057D03*
X0082366Y0082057D03*
X0078035Y0082057D03*
X0073705Y0082057D03*
X0069374Y0082057D03*
D23*
X0110319Y0077234D03*
D24*
X0110319Y0040620D03*
X0046146Y0040620D03*
D25*
X0049984Y0077825D03*
D26*
X0224822Y0074906D03*
X0224822Y0084006D03*
X0224822Y0093106D03*
D27*
X0200421Y0084006D03*
D28*
X0253531Y0207392D02*
X0259469Y0207392D01*
X0061969Y0207392D02*
X0056031Y0207392D01*
D29*
X0093523Y0177947D03*
X0096520Y0174078D03*
X0108220Y0184793D03*
X0109315Y0189715D03*
X0126047Y0192667D03*
X0126047Y0186762D03*
X0132937Y0178888D03*
X0135890Y0171014D03*
X0145732Y0170030D03*
X0157543Y0180856D03*
X0163647Y0169832D03*
X0159008Y0167581D03*
X0168568Y0173769D03*
X0177228Y0178888D03*
X0181165Y0172982D03*
X0173291Y0164616D03*
X0177228Y0162156D03*
X0168370Y0158711D03*
X0166402Y0147392D03*
X0170339Y0144439D03*
X0167386Y0140502D03*
X0162465Y0138533D03*
X0162465Y0143947D03*
X0157543Y0147392D03*
X0151751Y0147505D03*
X0155575Y0137549D03*
X0144256Y0138630D03*
X0144562Y0133426D03*
X0134906Y0139518D03*
X0136874Y0145423D03*
X0141795Y0145423D03*
X0148685Y0158711D03*
X0181165Y0153297D03*
X0181165Y0148376D03*
X0182150Y0138533D03*
X0192484Y0121801D03*
X0192484Y0117372D03*
X0192484Y0112943D03*
X0182150Y0100148D03*
X0191500Y0096703D03*
X0212661Y0107037D03*
X0212661Y0111959D03*
X0212661Y0116880D03*
X0212661Y0121801D03*
X0235299Y0124754D03*
X0251047Y0124754D03*
X0228409Y0100148D03*
X0224965Y0145915D03*
X0233331Y0156250D03*
X0214630Y0175935D03*
X0214630Y0181841D03*
X0203803Y0164124D03*
X0203803Y0159203D03*
X0198882Y0153789D03*
X0185102Y0183809D03*
X0185102Y0189715D03*
X0169354Y0199557D03*
X0169354Y0204478D03*
X0158528Y0217274D03*
X0151638Y0195620D03*
X0112268Y0159203D03*
X0116205Y0155266D03*
X0116697Y0137057D03*
X0129000Y0126722D03*
X0127031Y0121801D03*
X0080772Y0121801D03*
X0060102Y0135089D03*
X0072787Y0150344D03*
X0077819Y0150344D03*
X0107346Y0217274D03*
X0136874Y0248770D03*
X0166402Y0273376D03*
X0171323Y0270423D03*
X0176244Y0267470D03*
X0196913Y0262549D03*
X0198882Y0268455D03*
X0198882Y0273376D03*
X0211677Y0221211D03*
X0201835Y0216289D03*
X0096520Y0076526D03*
X0096520Y0069636D03*
X0104394Y0057825D03*
X0080772Y0076526D03*
M02*
