G75*
%MOIN*%
%OFA0B0*%
%FSLAX25Y25*%
%IPPOS*%
%LPD*%
%AMOC8*
5,1,8,0,0,1.08239X$1,22.5*
%
%ADD10C,0.00800*%
%ADD11C,0.00500*%
D10*
X0042728Y0085516D02*
X0050776Y0085516D01*
X0058776Y0089016D02*
X0058776Y0106016D01*
X0059709Y0102516D02*
X0064709Y0102516D01*
X0067209Y0100016D01*
X0069709Y0102516D01*
X0074709Y0102516D01*
X0077209Y0100016D01*
X0079709Y0102516D01*
X0084709Y0102516D01*
X0087209Y0100016D01*
X0087209Y0095016D01*
X0084709Y0092516D01*
X0079709Y0092516D01*
X0077209Y0095016D01*
X0074709Y0092516D01*
X0069709Y0092516D01*
X0067209Y0095016D01*
X0064709Y0092516D01*
X0059709Y0092516D01*
X0057209Y0095016D01*
X0057209Y0100016D01*
X0059709Y0102516D01*
X0050776Y0109516D02*
X0042846Y0109516D01*
X0034776Y0106016D02*
X0034776Y0089016D01*
X0039776Y0097516D02*
X0039778Y0097688D01*
X0039784Y0097859D01*
X0039795Y0098031D01*
X0039810Y0098202D01*
X0039829Y0098373D01*
X0039852Y0098543D01*
X0039879Y0098713D01*
X0039911Y0098882D01*
X0039946Y0099050D01*
X0039986Y0099217D01*
X0040030Y0099383D01*
X0040077Y0099548D01*
X0040129Y0099712D01*
X0040185Y0099874D01*
X0040245Y0100035D01*
X0040309Y0100195D01*
X0040377Y0100353D01*
X0040448Y0100509D01*
X0040523Y0100663D01*
X0040603Y0100816D01*
X0040685Y0100966D01*
X0040772Y0101115D01*
X0040862Y0101261D01*
X0040956Y0101405D01*
X0041053Y0101547D01*
X0041154Y0101686D01*
X0041258Y0101823D01*
X0041365Y0101957D01*
X0041476Y0102088D01*
X0041589Y0102217D01*
X0041706Y0102343D01*
X0041826Y0102466D01*
X0041949Y0102586D01*
X0042075Y0102703D01*
X0042204Y0102816D01*
X0042335Y0102927D01*
X0042469Y0103034D01*
X0042606Y0103138D01*
X0042745Y0103239D01*
X0042887Y0103336D01*
X0043031Y0103430D01*
X0043177Y0103520D01*
X0043326Y0103607D01*
X0043476Y0103689D01*
X0043629Y0103769D01*
X0043783Y0103844D01*
X0043939Y0103915D01*
X0044097Y0103983D01*
X0044257Y0104047D01*
X0044418Y0104107D01*
X0044580Y0104163D01*
X0044744Y0104215D01*
X0044909Y0104262D01*
X0045075Y0104306D01*
X0045242Y0104346D01*
X0045410Y0104381D01*
X0045579Y0104413D01*
X0045749Y0104440D01*
X0045919Y0104463D01*
X0046090Y0104482D01*
X0046261Y0104497D01*
X0046433Y0104508D01*
X0046604Y0104514D01*
X0046776Y0104516D01*
X0046948Y0104514D01*
X0047119Y0104508D01*
X0047291Y0104497D01*
X0047462Y0104482D01*
X0047633Y0104463D01*
X0047803Y0104440D01*
X0047973Y0104413D01*
X0048142Y0104381D01*
X0048310Y0104346D01*
X0048477Y0104306D01*
X0048643Y0104262D01*
X0048808Y0104215D01*
X0048972Y0104163D01*
X0049134Y0104107D01*
X0049295Y0104047D01*
X0049455Y0103983D01*
X0049613Y0103915D01*
X0049769Y0103844D01*
X0049923Y0103769D01*
X0050076Y0103689D01*
X0050226Y0103607D01*
X0050375Y0103520D01*
X0050521Y0103430D01*
X0050665Y0103336D01*
X0050807Y0103239D01*
X0050946Y0103138D01*
X0051083Y0103034D01*
X0051217Y0102927D01*
X0051348Y0102816D01*
X0051477Y0102703D01*
X0051603Y0102586D01*
X0051726Y0102466D01*
X0051846Y0102343D01*
X0051963Y0102217D01*
X0052076Y0102088D01*
X0052187Y0101957D01*
X0052294Y0101823D01*
X0052398Y0101686D01*
X0052499Y0101547D01*
X0052596Y0101405D01*
X0052690Y0101261D01*
X0052780Y0101115D01*
X0052867Y0100966D01*
X0052949Y0100816D01*
X0053029Y0100663D01*
X0053104Y0100509D01*
X0053175Y0100353D01*
X0053243Y0100195D01*
X0053307Y0100035D01*
X0053367Y0099874D01*
X0053423Y0099712D01*
X0053475Y0099548D01*
X0053522Y0099383D01*
X0053566Y0099217D01*
X0053606Y0099050D01*
X0053641Y0098882D01*
X0053673Y0098713D01*
X0053700Y0098543D01*
X0053723Y0098373D01*
X0053742Y0098202D01*
X0053757Y0098031D01*
X0053768Y0097859D01*
X0053774Y0097688D01*
X0053776Y0097516D01*
X0053774Y0097344D01*
X0053768Y0097173D01*
X0053757Y0097001D01*
X0053742Y0096830D01*
X0053723Y0096659D01*
X0053700Y0096489D01*
X0053673Y0096319D01*
X0053641Y0096150D01*
X0053606Y0095982D01*
X0053566Y0095815D01*
X0053522Y0095649D01*
X0053475Y0095484D01*
X0053423Y0095320D01*
X0053367Y0095158D01*
X0053307Y0094997D01*
X0053243Y0094837D01*
X0053175Y0094679D01*
X0053104Y0094523D01*
X0053029Y0094369D01*
X0052949Y0094216D01*
X0052867Y0094066D01*
X0052780Y0093917D01*
X0052690Y0093771D01*
X0052596Y0093627D01*
X0052499Y0093485D01*
X0052398Y0093346D01*
X0052294Y0093209D01*
X0052187Y0093075D01*
X0052076Y0092944D01*
X0051963Y0092815D01*
X0051846Y0092689D01*
X0051726Y0092566D01*
X0051603Y0092446D01*
X0051477Y0092329D01*
X0051348Y0092216D01*
X0051217Y0092105D01*
X0051083Y0091998D01*
X0050946Y0091894D01*
X0050807Y0091793D01*
X0050665Y0091696D01*
X0050521Y0091602D01*
X0050375Y0091512D01*
X0050226Y0091425D01*
X0050076Y0091343D01*
X0049923Y0091263D01*
X0049769Y0091188D01*
X0049613Y0091117D01*
X0049455Y0091049D01*
X0049295Y0090985D01*
X0049134Y0090925D01*
X0048972Y0090869D01*
X0048808Y0090817D01*
X0048643Y0090770D01*
X0048477Y0090726D01*
X0048310Y0090686D01*
X0048142Y0090651D01*
X0047973Y0090619D01*
X0047803Y0090592D01*
X0047633Y0090569D01*
X0047462Y0090550D01*
X0047291Y0090535D01*
X0047119Y0090524D01*
X0046948Y0090518D01*
X0046776Y0090516D01*
X0046604Y0090518D01*
X0046433Y0090524D01*
X0046261Y0090535D01*
X0046090Y0090550D01*
X0045919Y0090569D01*
X0045749Y0090592D01*
X0045579Y0090619D01*
X0045410Y0090651D01*
X0045242Y0090686D01*
X0045075Y0090726D01*
X0044909Y0090770D01*
X0044744Y0090817D01*
X0044580Y0090869D01*
X0044418Y0090925D01*
X0044257Y0090985D01*
X0044097Y0091049D01*
X0043939Y0091117D01*
X0043783Y0091188D01*
X0043629Y0091263D01*
X0043476Y0091343D01*
X0043326Y0091425D01*
X0043177Y0091512D01*
X0043031Y0091602D01*
X0042887Y0091696D01*
X0042745Y0091793D01*
X0042606Y0091894D01*
X0042469Y0091998D01*
X0042335Y0092105D01*
X0042204Y0092216D01*
X0042075Y0092329D01*
X0041949Y0092446D01*
X0041826Y0092566D01*
X0041706Y0092689D01*
X0041589Y0092815D01*
X0041476Y0092944D01*
X0041365Y0093075D01*
X0041258Y0093209D01*
X0041154Y0093346D01*
X0041053Y0093485D01*
X0040956Y0093627D01*
X0040862Y0093771D01*
X0040772Y0093917D01*
X0040685Y0094066D01*
X0040603Y0094216D01*
X0040523Y0094369D01*
X0040448Y0094523D01*
X0040377Y0094679D01*
X0040309Y0094837D01*
X0040245Y0094997D01*
X0040185Y0095158D01*
X0040129Y0095320D01*
X0040077Y0095484D01*
X0040030Y0095649D01*
X0039986Y0095815D01*
X0039946Y0095982D01*
X0039911Y0096150D01*
X0039879Y0096319D01*
X0039852Y0096489D01*
X0039829Y0096659D01*
X0039810Y0096830D01*
X0039795Y0097001D01*
X0039784Y0097173D01*
X0039778Y0097344D01*
X0039776Y0097516D01*
X0085957Y0106016D02*
X0085957Y0089016D01*
X0093957Y0085516D02*
X0101886Y0085516D01*
X0109957Y0089016D02*
X0109957Y0106016D01*
X0102004Y0109516D02*
X0093957Y0109516D01*
X0090957Y0097516D02*
X0090959Y0097688D01*
X0090965Y0097859D01*
X0090976Y0098031D01*
X0090991Y0098202D01*
X0091010Y0098373D01*
X0091033Y0098543D01*
X0091060Y0098713D01*
X0091092Y0098882D01*
X0091127Y0099050D01*
X0091167Y0099217D01*
X0091211Y0099383D01*
X0091258Y0099548D01*
X0091310Y0099712D01*
X0091366Y0099874D01*
X0091426Y0100035D01*
X0091490Y0100195D01*
X0091558Y0100353D01*
X0091629Y0100509D01*
X0091704Y0100663D01*
X0091784Y0100816D01*
X0091866Y0100966D01*
X0091953Y0101115D01*
X0092043Y0101261D01*
X0092137Y0101405D01*
X0092234Y0101547D01*
X0092335Y0101686D01*
X0092439Y0101823D01*
X0092546Y0101957D01*
X0092657Y0102088D01*
X0092770Y0102217D01*
X0092887Y0102343D01*
X0093007Y0102466D01*
X0093130Y0102586D01*
X0093256Y0102703D01*
X0093385Y0102816D01*
X0093516Y0102927D01*
X0093650Y0103034D01*
X0093787Y0103138D01*
X0093926Y0103239D01*
X0094068Y0103336D01*
X0094212Y0103430D01*
X0094358Y0103520D01*
X0094507Y0103607D01*
X0094657Y0103689D01*
X0094810Y0103769D01*
X0094964Y0103844D01*
X0095120Y0103915D01*
X0095278Y0103983D01*
X0095438Y0104047D01*
X0095599Y0104107D01*
X0095761Y0104163D01*
X0095925Y0104215D01*
X0096090Y0104262D01*
X0096256Y0104306D01*
X0096423Y0104346D01*
X0096591Y0104381D01*
X0096760Y0104413D01*
X0096930Y0104440D01*
X0097100Y0104463D01*
X0097271Y0104482D01*
X0097442Y0104497D01*
X0097614Y0104508D01*
X0097785Y0104514D01*
X0097957Y0104516D01*
X0098129Y0104514D01*
X0098300Y0104508D01*
X0098472Y0104497D01*
X0098643Y0104482D01*
X0098814Y0104463D01*
X0098984Y0104440D01*
X0099154Y0104413D01*
X0099323Y0104381D01*
X0099491Y0104346D01*
X0099658Y0104306D01*
X0099824Y0104262D01*
X0099989Y0104215D01*
X0100153Y0104163D01*
X0100315Y0104107D01*
X0100476Y0104047D01*
X0100636Y0103983D01*
X0100794Y0103915D01*
X0100950Y0103844D01*
X0101104Y0103769D01*
X0101257Y0103689D01*
X0101407Y0103607D01*
X0101556Y0103520D01*
X0101702Y0103430D01*
X0101846Y0103336D01*
X0101988Y0103239D01*
X0102127Y0103138D01*
X0102264Y0103034D01*
X0102398Y0102927D01*
X0102529Y0102816D01*
X0102658Y0102703D01*
X0102784Y0102586D01*
X0102907Y0102466D01*
X0103027Y0102343D01*
X0103144Y0102217D01*
X0103257Y0102088D01*
X0103368Y0101957D01*
X0103475Y0101823D01*
X0103579Y0101686D01*
X0103680Y0101547D01*
X0103777Y0101405D01*
X0103871Y0101261D01*
X0103961Y0101115D01*
X0104048Y0100966D01*
X0104130Y0100816D01*
X0104210Y0100663D01*
X0104285Y0100509D01*
X0104356Y0100353D01*
X0104424Y0100195D01*
X0104488Y0100035D01*
X0104548Y0099874D01*
X0104604Y0099712D01*
X0104656Y0099548D01*
X0104703Y0099383D01*
X0104747Y0099217D01*
X0104787Y0099050D01*
X0104822Y0098882D01*
X0104854Y0098713D01*
X0104881Y0098543D01*
X0104904Y0098373D01*
X0104923Y0098202D01*
X0104938Y0098031D01*
X0104949Y0097859D01*
X0104955Y0097688D01*
X0104957Y0097516D01*
X0104955Y0097344D01*
X0104949Y0097173D01*
X0104938Y0097001D01*
X0104923Y0096830D01*
X0104904Y0096659D01*
X0104881Y0096489D01*
X0104854Y0096319D01*
X0104822Y0096150D01*
X0104787Y0095982D01*
X0104747Y0095815D01*
X0104703Y0095649D01*
X0104656Y0095484D01*
X0104604Y0095320D01*
X0104548Y0095158D01*
X0104488Y0094997D01*
X0104424Y0094837D01*
X0104356Y0094679D01*
X0104285Y0094523D01*
X0104210Y0094369D01*
X0104130Y0094216D01*
X0104048Y0094066D01*
X0103961Y0093917D01*
X0103871Y0093771D01*
X0103777Y0093627D01*
X0103680Y0093485D01*
X0103579Y0093346D01*
X0103475Y0093209D01*
X0103368Y0093075D01*
X0103257Y0092944D01*
X0103144Y0092815D01*
X0103027Y0092689D01*
X0102907Y0092566D01*
X0102784Y0092446D01*
X0102658Y0092329D01*
X0102529Y0092216D01*
X0102398Y0092105D01*
X0102264Y0091998D01*
X0102127Y0091894D01*
X0101988Y0091793D01*
X0101846Y0091696D01*
X0101702Y0091602D01*
X0101556Y0091512D01*
X0101407Y0091425D01*
X0101257Y0091343D01*
X0101104Y0091263D01*
X0100950Y0091188D01*
X0100794Y0091117D01*
X0100636Y0091049D01*
X0100476Y0090985D01*
X0100315Y0090925D01*
X0100153Y0090869D01*
X0099989Y0090817D01*
X0099824Y0090770D01*
X0099658Y0090726D01*
X0099491Y0090686D01*
X0099323Y0090651D01*
X0099154Y0090619D01*
X0098984Y0090592D01*
X0098814Y0090569D01*
X0098643Y0090550D01*
X0098472Y0090535D01*
X0098300Y0090524D01*
X0098129Y0090518D01*
X0097957Y0090516D01*
X0097785Y0090518D01*
X0097614Y0090524D01*
X0097442Y0090535D01*
X0097271Y0090550D01*
X0097100Y0090569D01*
X0096930Y0090592D01*
X0096760Y0090619D01*
X0096591Y0090651D01*
X0096423Y0090686D01*
X0096256Y0090726D01*
X0096090Y0090770D01*
X0095925Y0090817D01*
X0095761Y0090869D01*
X0095599Y0090925D01*
X0095438Y0090985D01*
X0095278Y0091049D01*
X0095120Y0091117D01*
X0094964Y0091188D01*
X0094810Y0091263D01*
X0094657Y0091343D01*
X0094507Y0091425D01*
X0094358Y0091512D01*
X0094212Y0091602D01*
X0094068Y0091696D01*
X0093926Y0091793D01*
X0093787Y0091894D01*
X0093650Y0091998D01*
X0093516Y0092105D01*
X0093385Y0092216D01*
X0093256Y0092329D01*
X0093130Y0092446D01*
X0093007Y0092566D01*
X0092887Y0092689D01*
X0092770Y0092815D01*
X0092657Y0092944D01*
X0092546Y0093075D01*
X0092439Y0093209D01*
X0092335Y0093346D01*
X0092234Y0093485D01*
X0092137Y0093627D01*
X0092043Y0093771D01*
X0091953Y0093917D01*
X0091866Y0094066D01*
X0091784Y0094216D01*
X0091704Y0094369D01*
X0091629Y0094523D01*
X0091558Y0094679D01*
X0091490Y0094837D01*
X0091426Y0094997D01*
X0091366Y0095158D01*
X0091310Y0095320D01*
X0091258Y0095484D01*
X0091211Y0095649D01*
X0091167Y0095815D01*
X0091127Y0095982D01*
X0091092Y0096150D01*
X0091060Y0096319D01*
X0091033Y0096489D01*
X0091010Y0096659D01*
X0090991Y0096830D01*
X0090976Y0097001D01*
X0090965Y0097173D01*
X0090959Y0097344D01*
X0090957Y0097516D01*
D11*
X0084656Y0090070D02*
X0083155Y0088568D01*
X0084656Y0090070D02*
X0084656Y0085566D01*
X0083155Y0085566D02*
X0086157Y0085566D01*
X0081553Y0090070D02*
X0080052Y0090070D01*
X0080803Y0090070D02*
X0080803Y0086316D01*
X0080052Y0085566D01*
X0079301Y0085566D01*
X0078551Y0086316D01*
X0113203Y0094705D02*
X0113953Y0093954D01*
X0114704Y0093954D01*
X0115455Y0094705D01*
X0115455Y0096206D01*
X0116205Y0096957D01*
X0116956Y0096957D01*
X0117707Y0096206D01*
X0117707Y0094705D01*
X0116956Y0093954D01*
X0113203Y0094705D02*
X0113203Y0096206D01*
X0113953Y0096957D01*
X0113203Y0098558D02*
X0117707Y0098558D01*
X0116205Y0100059D01*
X0117707Y0101560D01*
X0113203Y0101560D01*
X0114704Y0103162D02*
X0113203Y0104663D01*
X0117707Y0104663D01*
X0117707Y0103162D02*
X0117707Y0106164D01*
X0031526Y0099976D02*
X0031526Y0096974D01*
X0028523Y0099976D01*
X0027772Y0099976D01*
X0027022Y0099226D01*
X0027022Y0097724D01*
X0027772Y0096974D01*
X0027022Y0095372D02*
X0031526Y0095372D01*
X0030024Y0093871D01*
X0031526Y0092370D01*
X0027022Y0092370D01*
X0027772Y0090768D02*
X0027022Y0090018D01*
X0027022Y0088516D01*
X0027772Y0087766D01*
X0028523Y0087766D01*
X0029274Y0088516D01*
X0029274Y0090018D01*
X0030024Y0090768D01*
X0030775Y0090768D01*
X0031526Y0090018D01*
X0031526Y0088516D01*
X0030775Y0087766D01*
M02*
